<mxfile host="app.diagrams.net" modified="2022-02-12T14:22:40.821Z" agent="5.0 (Windows NT 10.0; Win64; x64) AppleWebKit/537.36 (KHTML, like Gecko) Chrome/97.0.4692.99 Safari/537.36" etag="ABcCS2sQZ5GuxqbT9ai8" version="16.5.6" type="github">
  <diagram id="WSRbePWAdTQRH3GNXas7" name="Page-1">
    <mxGraphModel dx="1038" dy="617" grid="1" gridSize="10" guides="1" tooltips="1" connect="1" arrows="1" fold="1" page="1" pageScale="1" pageWidth="850" pageHeight="1400" background="#ffffff" math="0" shadow="0">
      <root>
        <mxCell id="0" />
        <mxCell id="1" parent="0" />
        <mxCell id="EOrUfLX56-fCI15zJVo0-47" value="" style="endArrow=classic;html=1;rounded=0;exitX=0.5;exitY=1;exitDx=0;exitDy=0;exitPerimeter=0;fontStyle=1" edge="1" parent="1" source="EOrUfLX56-fCI15zJVo0-45" target="EOrUfLX56-fCI15zJVo0-15">
          <mxGeometry width="50" height="50" relative="1" as="geometry">
            <mxPoint x="660" y="245" as="sourcePoint" />
            <mxPoint x="680" y="490.0000000000001" as="targetPoint" />
          </mxGeometry>
        </mxCell>
        <mxCell id="EOrUfLX56-fCI15zJVo0-35" value="" style="rounded=0;whiteSpace=wrap;html=1;" vertex="1" parent="1">
          <mxGeometry x="590" y="480" width="230" height="160" as="geometry" />
        </mxCell>
        <mxCell id="EOrUfLX56-fCI15zJVo0-5" value="&lt;h1&gt;Tiktok system design&lt;/h1&gt;&lt;p&gt;&lt;br&gt;&lt;/p&gt;" style="text;html=1;strokeColor=none;fillColor=none;spacing=5;spacingTop=-20;whiteSpace=wrap;overflow=hidden;rounded=0;" vertex="1" parent="1">
          <mxGeometry x="10" y="10" width="320" height="40" as="geometry" />
        </mxCell>
        <mxCell id="EOrUfLX56-fCI15zJVo0-6" value="&lt;span&gt;Challenges&lt;/span&gt;&lt;br&gt;&lt;span&gt;- ingestion&lt;/span&gt;&lt;br&gt;&lt;span&gt;- distribution&lt;/span&gt;&lt;br&gt;&lt;span&gt;- storage&lt;/span&gt;" style="text;html=1;strokeColor=none;fillColor=none;align=left;verticalAlign=middle;whiteSpace=wrap;rounded=0;" vertex="1" parent="1">
          <mxGeometry x="20" y="60" width="110" height="70" as="geometry" />
        </mxCell>
        <mxCell id="EOrUfLX56-fCI15zJVo0-7" value="Functional requiremens&lt;br&gt;- upload videos&lt;br&gt;- feed/timeline&lt;br&gt;- storage&amp;nbsp;" style="text;html=1;strokeColor=none;fillColor=none;align=left;verticalAlign=middle;whiteSpace=wrap;rounded=0;" vertex="1" parent="1">
          <mxGeometry x="115" y="60" width="175" height="70" as="geometry" />
        </mxCell>
        <mxCell id="EOrUfLX56-fCI15zJVo0-8" value="Non Functional requirements&lt;br&gt;- Eventual consistency&lt;br&gt;- Fault tolerant&lt;br&gt;- High available&lt;br&gt;- Low latency in stream and upload/watch" style="text;html=1;strokeColor=none;fillColor=none;align=left;verticalAlign=middle;whiteSpace=wrap;rounded=0;" vertex="1" parent="1">
          <mxGeometry x="260" y="60" width="260" height="80" as="geometry" />
        </mxCell>
        <mxCell id="EOrUfLX56-fCI15zJVo0-9" value="Capacity estimation&lt;br&gt;- 10 m DAU&lt;br&gt;- 100k creators&lt;br&gt;- write:read = 1:100" style="text;html=1;strokeColor=none;fillColor=none;align=left;verticalAlign=middle;whiteSpace=wrap;rounded=0;" vertex="1" parent="1">
          <mxGeometry x="20" y="140" width="250" height="90" as="geometry" />
        </mxCell>
        <mxCell id="EOrUfLX56-fCI15zJVo0-11" value="" style="sketch=0;aspect=fixed;html=1;points=[];align=center;image;fontSize=12;image=img/lib/mscae/App_Service_Mobile_App.svg;" vertex="1" parent="1">
          <mxGeometry x="30" y="260.14" width="61" height="89.71" as="geometry" />
        </mxCell>
        <mxCell id="EOrUfLX56-fCI15zJVo0-15" value="" style="sketch=0;outlineConnect=0;fontColor=#232F3E;gradientColor=none;fillColor=#2E27AD;strokeColor=none;dashed=0;verticalLabelPosition=bottom;verticalAlign=top;align=center;html=1;fontSize=12;fontStyle=0;aspect=fixed;pointerEvents=1;shape=mxgraph.aws4.rds_postgresql_instance;" vertex="1" parent="1">
          <mxGeometry x="709" y="710" width="78" height="78" as="geometry" />
        </mxCell>
        <mxCell id="EOrUfLX56-fCI15zJVo0-18" value="" style="shape=image;verticalLabelPosition=bottom;verticalAlign=top;imageAspect=0;image=data:image/png,iVBORw0KGgoAAAANSUhEUgAAA4QAAAIgCAYAAADdtKd3AAB3oklEQVR42uy9h3dkx5lnOf/Ezu5snzl7zp6dHtPT3WpRFCmRUlMSJUpsSaQkFr333ntSNOVY3ntf8EABBe+9Bwree++9TaQFvs14FEpVKJjMRCbS4H59fi2JBBIXGS9fxEXEi/hP4uSanJx0auCDDz744IMPPvjggw8++OBzDd9/okHggw8++OCDDz744IMPPvgQQhoEPvjggw8++OCDDz744IMPIaRB4IMPPvjggw8++OCDDz74EEIaBD744IMPPvjggw8++OCDDyGkQeCDDz744IMPPvjggw8++BBCGgQ++OCDDz744IMPPvjggw8hpEHggw8++OCDDz744IMPPvgQQhoEPvjggw8++OCDDz744IMPIaRB4IMPPvjggw8++OCDDz74EEIaBD744IMPPvjggw8++OCDDyGkQeCDDz744IMPPvjggw8++BBCGgQ++OCDDz744IMPPvjggw8hpEHggw8++OCDDz744IMPPvgQQi4Y+OCDDz744IMPPvjggw8+hJALBj744IMPPvjggw8++OCDDyGEDz744IMPPvjggw8++OCDDyGEDz744IMPPvjggw8++OCDDyGEDz744IMPPvjggw8++OCDDyGEDz744IMPPvjggw8++OCDz24h5A2EDz744IMPPvjggw8++ODbnHwIIXzwwQcffPDBBx988MEHH0JIg8AHH3zwwQcffPDBBx988CGENAh88MEHH3zwwQcffPDBBx9CSIPABx988MEHH3zwwQcffPAhhDQIfPDBBx988MEHH3zwwQcfQkiDwAcffPDBBx988MEHH3zwIYQ0CHzwwQcffPDBBx988MEHH0JIg8AHH3zwwQcffPDBBx988CGENAh88MEHH3zwwQcffPDBBx9CSIPABx988MEHH3zwwQcffPAhhDQIfPDBBx988MEHH3zwwQcfQkiDwAcffPDBBx988MEHH3zwIYQ0CHzwwQcffPDBBx988MEHH0JIg8AHH3zwwQcffPDBBx988CGEXDDwwQcffPDBBx988MEHH3wIIXzwwQcffPDBBx988MEHH3wIIXzwwQcffPDBBx988MEHH3wIIXzwwQcffPDBBx988MEHH3wIIXzwwQcffPDBBx988MEHH3z2CyFvIHzwwQcffPDBBx988MEH3+bkQwjhgw8++HyUb2FhXuYMUzIx0yeD481S354nFY3Jcq0uUvIqAyWz7JykFB+TxMKDEpP3nUTmfCtXMr+UkPSPJCDlHfFLel0uJbwmF+NflvPxL8q52OflbMyzcib2aTkd/ZSci39azic8JxcSn5eLiS/J5eSXxS/lNfFPeV0C096S4PT3ra/3sUTmfiWxBTsk6dpeSSs7IlmVpyWv5pJcawiVytZYaejKlPb+a9LUWSwdvTXSN9guY+PDtC988MEHH3zwIYRcMPDBBx98Nwre7NyYDIw1SktvnpQ3R0lu9QVJvnbAKnNfWSXsbTkb95QcDv+DfBf0M/nm4m3yzaUfem22+d8pe0N+LcciHrIK6fMSmPqeXM3+RhKLDkpW2QUpqYvWJLerr35ZgeT6gw8++OCDDz6EED744IPPa/j6hzqksaNIE5300jOSULRbgtPekzOxT8r+sPtk6+UfebXguTo7A++WIxEPaDOZoWmfSkbFCas0R0pbf5GMTXWJxWLk+oMPPvjggw8+hBA++OCDzz18ExPj0t3fKNXN6ZJdfkmicrbL5aTX5LBVYrZdvgOpc3Uu3ib7Qn6tLXNVM6rZVWeltiNFm3E1mnV8PuCDDz744EMIaRD44IMPvvXzjY+PSntPpfasnlreqJ7HO3r1z9oSSMTMc6NkUT0LGVe4U3u+sXOwVHSGCT4f8MEHH3zwIYQ0CHzwwQff8jUzNyrNPXmSU3VOglLekyPhf5atfrcjWD6UvaH3ahvmROdul4LqEGntKtOkn88HfPDBBx98CCENAh988G0ivqnZQanvTJP08uMSkPKW7LOKAsK0OaNme09EPSrhmV9KdsVlaewolLHxET6/8MEHH3zwIYQ0CHzwwecLfGaLQboGyyW/5rKEpL+vbeqCCJG1JPF0zBPaTOK1uijpGWjm8wsffPDBBx9CSIPABx983sCnN05JY3emJF3br+3qybJP4pTlpiG/lsCU9ySr/KK09VRar7sJPr/wwQcffPAhhDQIfPDB526+weEeqe9Ml8TiPXIy5lH5liMdyAZkd9A94p/0llUQL8jgWJP1ql7g8wsffPDBBx9CSIPABx98ruYbnxiT+rZcSSg8ICejH0cAicdsWBOR84VUtcbJ7NwYn1/44IMPPvgQQi4Y+OCDz1l8vYMtklPhJ35Jb8lO/7sQEOLx5ySq2erU0sPSMVAqCwvz3F/ggw8++OBDCOGDDz747OFr7iyRpKLDcvzqwwgG8e7lpcH3yNWcL6WuI1WMJh33F/jggw8++BBC+OCDD76lmZgYl9rWbInM+Vb2hf4GkSC+uYPp5TvEP/l1KW0KF51hgvsLfPDBBx98CCF88MG3mfkmtOcBo3K2yd5gzgK0Neq5ye+Cfi4HrvxWjkf9Rc7FPy1+ya9KUNrbEpb5oVzN+UJi8r+VhKJdklpyUDLLj0t2xSnJqTojuVXnJL/6ghTUXpLCWj8prguQ4vpAKarzt/7vy5Jfc1Hyqs9Zv+6sZFeekqyKE5JWeliSivdKXMF2icr9SsKzPpWQ9PckIOVNuZj4gpyKeVQOR/xB9oT8Srb730kb2Zit1nb0S35NypojZc4wxf0FPvjggw8+hBA++ODbHHwtXaUSnbvTKoHMBG69fLvsD/uNnI59XIJS35bovK8lpeSAJmVlTeHS0JkmXf3XZHisSWZm+8VktIrDvMmjM2+ek7m5EZmY6pS+4Spp7c2R6tZYq3QGaHIaX7hTrmR+bJXJF+Xo1QdlZ+DdXAdWOQxIfVOq2uJldGyI+wt88MEHH3wIIXzwwedbfGrnxYI6fzkZ9cjmWR7od4c2c3Yp8SWJzPlSk6Fyq+QpQRocrZdZ3aAsWAweL3gbEZNxWsYnO6R7oFTq2pOkoOaSJBbtkuC0d7UZSPUc3ma5bnYE3CVhGZ9LXVvOTecdcn+BDz744IMPIYQPPvi8ik/trtjQlSmBaW9rMyC+OHhXSzfV7J6a8UovOyoVzZHSNVCizebJvBHZc2KMxkkZHmuUxq40bWlrbP42uZz0ihwMv99njx85EPof2uZKfYOt3F/ggw8++OBDCOGDDz7v4JuZG5GsyjNyIOx3PjMw3xf6a6t8vCwJhd9JSUOIdPYXiU43hKh5SCxmnSaLanYxs/yE9izl8aiHtFlaX1lS6p/0llQ3p9s9a8j9Dz744INvkwghbyB88MHnbr7a1iwJSHnXq2cDt/nfKadjH9M2T1HPvCnx0+tHkS4vzbxFLyPjzVLTFi+pJYes1+cbmtx7sxweiXhA8mv9RG+c4v4HH3zwwQff9SCE8MEHn1v4xsdHpbA6TI5HPuyVz/idiX1C4gt2SGVLlAyNNWoCgUj5ftTzm629uZJTeVrbndUbJXGH/12SULxHxqd7uf/BBx988MGHEMIHH3wbyzc00itpJSe9aqfQg1d+JxHZn2pHLfQOVYjFNIsckeuZnO6Ruo4kbZfX8wnPes1y028v3SahmR9Jz3A19z/44IMPPoSQBoEPPvhcyzc43C3xBfu0nRA9/ay+E9FbtNm/mrY4mVKzKEgPsSNm06x25Ic6k1Gduag2EPJ0ObyY+JJ0DJRw/4MPPvjgQwhpEPjgg8+5fAPDXRKXv1dbpuapg2F1pp06PL2+I1nm5njujzg36ogQda6iOiPSL/lV2e7/E4/9LFxIfF7a+4u5/8EHH3zwIYQ0CHzwwbe+0hunNRHc7vdTjxv0qrPpwrM+0Y56mJphBpBs8M6mplnp6C+S9NIj2lmJ31y6zeM+I+cTnvvbeYbc/+CDDz74EEIaBD744LOjLBajtpPhrkBPOhD8Nm3grc77UweYc6g78aSosyfLmyIkNOMD+S7wZx4lhn5Jr0tbdyX3P/jggw8+hJAGgQ8++NaqBalqi5eD4f/hIeev3W4dzL4q1xqCZXqmH/Eg3nHchXlO2vrytCXM+0J/4zGbz4Rnfil9g23c/+CDDz74EEIaBD744Lu1+kcb5GzcUx5xFmBw2rvaURCcAUi8P0bpGSyX1JKDcjji9x5xXEV6yWntyBjuf/DBBx98CCENAh988GnPCcYXfaftzOnOXUH9k1/Tngc06MeRCOKzUUeeJBbtdvvM4dGrf5ba1mzuz/DBBx98CCENAh98m5mvui1B9gbf67ZBqToYvrg+UDsoHFkgm23X0va+AonO+1p2Btztts9gSPpHMjDUyf0ZPvjggw8hpEHgg28z8c3MjUhQ+rtuGYDuCf6lJBXvkaHRBsSAEGtMxiltdlwdF+GWHXuD7pFrdVHcn+GDDz74EEIaBD74NgOf2jRm43cPvU0uJ72inRGoNtxAAghZPmOT7drzhuoPJxsthoGp72lnjnJ/hg8++OBDCGkQ+ODzQT69cUpC0t/f0AHmrqB/156XGh1vZbBPiJ3nHKqNlTZ6o6fdVhGtaEzm/gwffPDBhxDSIPDB50t8PcPVG3qUxNGrD0pJQ4iYjNMM7glZZ/qtn9+I7E+1Y1g25DN88TaJy98j4xNj3J/hgw8++BBCGgQ++Lybb0E7YH6r38YMJM8nPCsNnWkcGk+ICzI53SNJxXtlZ+DdG7Tp09PSO9DC/Rk++OCDDyGkQeCDzxv5TGa9hGZ+tCEDR//k16V7oJRBOyEbEHU0S3blKdkdfM+GbDhT15bD/Rk++OCDDyGkQeCDz5v4pnVDcjr2CZcPFgNS3tTOVWOQTsjGx2iYlJyqM1Yx/IVLP+fbLt8hBdWh3J/hgw8++BBCGgQ++LyBr3+0XvaH3efSAeKlxBcRQUI8RQyNk5JVcdLl5xnG5u+WhYV57s/wwQcffAghDQIffJ7KV9ua5dJB4fGoh6S5O5NBOCEemFndoMQX7HDp5jMROV/I/IKF+zN88MEHn6cJIW8gfPDB19yTK9v973DZYfJljVfYLIYQbzjLcKJNAlPfcuEzw2/J2Ngw92f44IMPPg/iQwjhg2+T89V1prpkJ9FvL/9Im3HQ60cZaBPiZWnqypBD4b93iRReSHhJRseGuD/DBx988CGENAh88Lmbr6knR7Zaxc35W84/IQMjtQysCfHimE2zkll+XLb6/djp94iLCS/L+Pgo92f44IMPPoSQBoEPPnfxdQ2Wy3a/O527o6D/nZJbdY7loYT4UAZH6+VUzKNOl8LgtI+s97EJ7s/wwQcffAghDQIffBvNNzjeLN8F/cy5s4JxT8qI9XUZQBPie5m36LXzC509WxiVs437M3zwwQcfQkiDwAffRvLp9ONy4MpvnTiou01Sru2XefMcA2dCfDzqyJhD4f/hVCnMLr/E/Rk++OCDDyGkQeCDbyP41DlglxJfdt4OoiG/kpaeLAbKhGyiGPTjEpbxodPuI2pTq/q2PPoP+OCDDz6EkAaBDz5X8yWXHHDaIE49UzQ53cMAmZBNmrzqc9puws64n+wNvlf6BtvoP+CDDz74EEIaBD74XMXX2lfoNBkMzXhfTMYpBsWEbPbjKbozZGfg3c7ZeTT+ZfoP+OCDDz6EkAaBDz5X8BlNOqc9N5hUvNc6EDQyGCaEaBkabZB9ob92yv0lvyqI/gM++OCDDyHkgoEPPmfzxeZvc87mD5WnGAATQm7J+GSHUzabUbONfYOt9B/wwQcffAghFwx88DmLr2e42ikyWFTnz8CXELJipmf65EjEH9d9rwlMeY/+Az744IMPIeSCgQ8+Z/FdTHhx/TODFcwMEkLWzsRUl+wPu2/d95zGjiL6D/jggw8+hJALBj741svX3JO37oFZYtEuBrqEEJszPNYou4LuWdd951zcc/Qf8MEHH3wIIRcMfPCtl+907GPrGpT5Jb8qCxYDg1xCiF1p7c1Z95EUNS0Z9B/wwQcffAghFwx88DnK1z1Uua7B2MHw+2VuboTBLSHEoeRUnl7fH6SS3qL/gA8++OBDCLlg4IPPUb7w7M8dHoipv+x3D5QyqCWErCNGuZT4kuP3oUu3Sc9AM/0HfPDBBx9CCB988NnLp9OPy7bLdzg8EEvguUFCiJOOo9ju/xPH70WFB+g/4IMPPvgQQvjgg89evvLmKIcHYPvDfiNG4ySDWUKIU5Jbdc7h+9GRiAfoP+CDDz74EEL44IPPXr6Q9PcdHoAV1wcyiCWEOC0m47TsDb3X4XtSV18D/Qd88MEHnyuFkDcQPvh8i29sfER2+N/l0MDrQNhvxWKaZRBLCHFqCmsvOyyERfXB9B/wwQcffC7kQwjhg8/H+NSBzo4OvDLLjzN4JYQ4PXr9mGz3v9Oh+1JY5sf0H/DBBx98CCF88MFnK19+VZDDQqg2gGDwSghxRcIyP3TovnQ04k/0H/DBBx98CCF88MFnK19UznaHBl0norcwaCWEuCw1bfEOH4NjthjoP+CDDz74EEL44IPPFr6LCS87NOiKzd/GoJUQ4rJMTnU7vHphcLyZ/gM++OCDDyGEDz74bOE7FfW4QwOusqZwBq2EEJdmT8ivHLo/dQyU0n/ABx988CGE8MEHny18hyMecGjA1dSdwYCVEOLSnIh6yKH7U2N3Jv0HfPDBBx9CCB988NnCt9fBv8B3q7/AM2AlhLgwlxJfdOj+VNkaS/8BH3zwwYcQwgcffLbw7Q/9rWNLsvqLGLASQlyas3FPOXR/qmlPpP+ADz744EMI4YMPPlv4Lia85NCA61p9EANWQohLcyj89w7dn5p78ug/4IMPPvgQQvjgg88Wvui8rQ4NuK5mf86AlRDissyb5xw+nL57qJL+Az744IMPIYQPPvhs4cutuuDQgEvt/ifzRgauhBCXpNcqdY4eOzE+3U3/AR988MGHEMIHH3y28NV1pDg86FIDNgauhBBXpKDmkkP3pR0Bd1nvdvP0H/DBBx98CCF88MFnC9/gaJPDQphVcYKBKyHEJTkd+5hD96WzcU+KLCzQf8AHH3zwIYTwwQefLXxmo0H2htzr0MBLDdgYuBJCnJ2hsUaH/1AVm7/VKoTMEMIHH3zwIYTwwQefTXzzZqNcyfzI4cFXY1c6A1hCiFMTmfOlw/ekuo4ksViM9B/wwQcffAghfPDBZ9MMoUkvpY2hDg++jkY+KPMWPYNYQohTMjreKt9e/pFD96Otfj8Wo2FS9MZp+g/44IMPPoQQPvjgs4VvenpEZnWDsvXy7Q5LYXFdAANZQohTEpz2rsP3ostJr2ivMaUbpv+ADz744EMI4YMPPlv42vrLtQFUUOrbDg/Cdgf/QvT6MQazhJB1pbY90eH7kEpFc+T3zyBOttN/wAcffPAhhPDBB58tfMVNMdoAqr4jeV0Dsas5XzCgJYQ4HLVSwdENrhb/MGU2zcqCxSi13dn0H/DBBx98rhJC3kD44PMtvoTyY9pgbN48JwfD71+XFOZXX2BgSwixO+o55IuJL67r/pNybb/2WibjrOTXRdF/wAcffPC5iA8hhA8+H+M7EPO09hd1NZAqaQhZ14BMbQTR1J3BAJcQYlcSi3av696zzf9OmZzq1l5rbLoPIYQPPvjgQwjhgw8+W/l2RW0RvXFSG0hZTLOyP+y+dQ3MdgberZ0hxiCXEGJLiur813XPUUkq3nP99Wo6MhBC+OCDDz6EED744LNHCDuGyq8Ppsoar6x7cHYo/PcyOzvIYJcQsmoqW6Ks94zb1nW/+S7wZzI3N3L9NS9nfIoQwgcffPAhhPDBB589Qhh5bd8NgzSjnI17at1SeDjiDzI+2cGglxCybGra4hw+b/DG5FWfu/6aRsOM7Ip8CCGEDz744EMI4YMPPnuEUA2gzCbd9UHVwEitUwZqe0Pv1V6LwS8h5Mao55WdcY85HfuYtiHN4uu29pUhhPDBBx98CCF88MHniBA29RXeNGBLKTmw7sHa4jOF7X0FDIIJIVpyKk875d6y1e/HMjhaf/111eZY59PeRwjhgw8++BBC+OCDzxEhPJX0xvXdRhePoTgT+4RTBm5qB8C69iQGw4Rs4qgzAiOyP3XKPUUlu+LUTa8/Md2n3csQQvjggw8+hBA++OBzQAhVBsebbhpgqWcA1QyfMwZvanlYRtmxm5Z3EUI2R6Zn+pz2ByaVgBT1ByzDTT8jqeI0QggffPDBhxBywcAH33qE8Hz6hzfNEqqomb317gJ4Y87FPyMTU10MkgnZJGnuzpQ9wb902j3kcMTvRa8fvVk4dcPX72MIIXzwwQcfQggffPA5KITfzxK2uuyZn+vbxAf9XGra4hksE+LDsZh12vmAzrx37Aj4qQyO1N30c9QfsSKL9iKE8MEHH3wIIRcMfPA5QwhPJL4i82bjLYO7qNyvnDqwU4nM+VKMxkkGz4T4WPqHa+Rk9MNOvV+oTWRaerJv+Vljkz033cMQQvjggw8+hBA++OBbhxCqVCyzAYzaZEY9t+NsKTxy9QHp6C9iEE2IL8wKmmYlvfSIbL18u5PvFbdJdWvcMvclvZxLeRchhA8++OBDCLlg4IPPmUKool9m5k7tEuif/JrTpVDlSuZHMjXTy6CaEC+NOl7mWOSfXXJ/KK4LWP48w5bYZe9fCCF88MEHH0IIH3zwrVMIL2R+fMsuft9L4YxcTnrFJYO+HQF3SW7VWe3ZIwbYhHjPDqLqDzquuCeomcFrDcHL/typmcFl710IIXzwwQcfQggffPA5QQi1QVVD2Arnic1IQMqbLhoAfr+MtLk7i8E2IR4ck3Fa23BqZ8DdLrkPqKNqKluiVvjZc3Iy8XWEED744IMPIaRB4IPPlUK40q6j2rM7Fr1LNpq5MUGpb8vwWCODb0I8KGrlQFnjFdkf9huXffa3+d8p9R3JK/x8o0QXH1r1voUQwgcffPAhhPDBB5+ThHBv5GOiM4ytODjMKD/mUilUS8bCMj+UodEGBuOEuDVGqetIctlzgovZG3qv9AyWr8hR1pq46j0LIYQPPvjgQwjhgw8+JwqhyrGEF8RsnltxgKaWdW33v9PlYhia8f4tZ5ARQlw/I1jbniDHox5y8Wf8h9pRFZPTPSuydA3WrHm/Qgjhgw8++BBC+OCDz8lCqOKX8YlYljmf8O/njlXLwSu/c/mAUYlhcNq72jlnDNYJcV3UUTNVLdFWEfzLBnyufygh6e+uei7p0FibTfcqhBA++OCDz8VCyBsIH3y+xWerEKoE5XxjlULDigM23dywy3YgXfYZw7S3OcOQECfHYJiQ/OoLciDstxvyOd7md4cU1vqtvpPp3Ijsin7Y5ntVeXsy/Qd88MEHn4v4EEL44NvEQqgSmr9tVSlUy8vUzoPOP5h65ailbNfqg8RomGRAT4iDGZ/skOTiffJd4M827LN7KPz30jdctSrXrFUG90U/bdd9CiGEDz744EMI4YMPPhcJoSaFuVtXlUKVvqFK7fiIjRpYquwMvFviCrazMykhdjwf2NSVIf7Jr2vLsTfy8xqR/akY9OOr8k3O9Mu+yMftvkchhPDBBx98CCF88MHnQiFUuZz5qVUK59Y4p2xKYvO3buggczEXE1+Q2vZE7TkoBv6ELDnUfbpXsitPycHw+zf8s6l2EW3oTFuTcWSqS/ZEP+TQ/QkhhA8++OBDCOGDDz4XC6HKmZQ3xWCYXnNg19FfKEci/ugWMdwX+httGZza9AYRIJs5ZtOs1LTFiV/yq9qh7+74PIZnfSJzcyNrzFoapaWv1OH7EkIIH3zwwYcQwgcffBskhCoH4p+Rad2gTYPR1JJDG/ps4dIcvfqgZJafkNHxVgSBbJoloe19+RKd943sCvp3t3321LOCamnq2jubGqSg4eq67kkIIXzwwQcfQggffPBtoBAupq2/RPvL/loDPnWOoFrO6a6B6WJOxz4m+TUXZWqmF3EgPneAfM9gmSQU7ZJ9ob926+dsm/+dklF+TMymGRv+aGSQ6OJDTrkfIYTwwQcffAghfPDBt8FCqJJV46/NSNgyaFXP923MuYVrn2uoBLWkIUSmZ/qQCeKdZwZa9NLeVyAJhd9t2HERayUw9S1t51Jb+Kd1w3I2+R2n3YsQQvjggw8+hBA++OBzgxCq+Gd/JgYbj39QswZZFSdkR8BdHjGAVTkZ84iklx6R7oFSm+WWEHdEHbPS0JkqkTlfyu7gezzmM3Q69nHtuWHblrSq5wVLZHfUQ069DyGE8MEHH3wIIXzwwecmIdQS/bB0DFXatIRUO2dsdlBb3qYOqPaUQa2KGmSrrfGrW2PX3AiDkI3IyHizFNRckstJL3vc50U9J6g2rVFLVm36g5BRL4llp5x//0EI4YMPPvgQQvjgg8/NQvi3xJUcW/O8wpvOHJvqlqjcv7ptB8TVopjOxT8jOZWntR1LmT0kG5FZ3aBVsuIlJv9bTbg87XOhopaoXqsPsn7WdTb/XkNjbXIs/gWX3XsQQvjggw8+hBA++ODzACFUORz7nAyMN9k8W6iidgFVy+DcuSPpWtkZeLd2mLcSxK7+a2IxzSIwZN2ZmxuVxq50SSzaLSeit2z4YfH2RD0DrJ69tUcELSaDZFT7u/SegxDCBx988CGE8MEHnwcJ4WJiS46I2aSza3CsZgzjC3bIdv87PXZQfONuihcSn9eeP2ztzdGe70JwyFqZmOqSqtYYic3fKsej/uLRAriYwxF/kNLGMLtEUP1BaGCsVY4nvLwh9xuEED744IMPIYQPPvg8TAhV9kU+rh1PMW+2b7nlzOyAdobhrqB7PH6wfOMSU7W5RlLxHm3APzzWyDLTTR6DYULbCTS36pyEpL8n+8Pu85rrWUUtma7vSLH7OjYapiSq+MCG3WcQQvjggw8+hBA++ODzUCFczIX0D2Rips+uZaQqJuO0tkTtWOSfvGogvZjt/j+Rs3FPSVzBdilrvCJ9w1UsNfXR6PVj0tFfJIW1ftry52ORf/aK2b/l/rARmvG+tuuu3UdhmPVS1ZYue6If2vB7DEIIH3zwwYcQwgcffB4shIuJLz8pRuOMAwNuo7YsMzD1TY/cgMaeqOckT0Y/rElDUV2A9jyiTjeEVHnL+X/mOW32t64jSTtCJTjtXTkYfr9XX5Mq6kD79LKjMjndY/d7ov7Q0ztcL8eTX3PbvQUhhA8++OBDCOGDDz4vEEKVnREPS0lLtFisA2tHBuTqOcOM8mNet/xurewK+nc5E/ekRGR/ZhWNk9p2/mp3U55NdE90c8PSM1iuLf9VoqSWfB6NfNCjNz6yP7dpx1nUtSdpouuICI5N9ohf5iduvacghPDBBx98CCF88MHnRUJ44/OFFa3J2i6EjgzY1XNNTV0ZEpT2to8N0pefvVEb2ETnfSN51ee157p6hyplWluGy3OKjsRsmtF2t23rzZOypnDJKDsmVzI/1p4DVXLuy9eT2i1USe7YRJvjwmwYl6jifR5xL0EI4YMPPvgQQvjgg88LhXAxB2OflLquXOsA3bCus9vU8sszsU/49EB+pWe+9oX+Rvvdg9Pe0Z5XVEdjVDRHSmtvrra8UT3ftllETwmy2pRoYKRWmruzpNwqe9mVp7Tda9Us3+nYx2RP8C833XWyI+AuuZrzhbbJja0HyS8/czoi8VaZ9KR7CEIIH3zwwYcQwgcffF4shNdnDKOflsq2FDEZ59YlBGrWR832eOqh3u4Tgp/KgSu/1c66U7ONamZVCUJC0S5tCW5B7SWrPEVos49KGvqHa2R8slM7J0/Nps1b9Bv2jJ5aJjs7OyijE63astmO/kJp7ErTlm9eawjWdu1MvrZPonL/qv0e5xOe1ZZzKtHz9mdMnXo0it8dEpT6tlS1RIvROLkOyTZaRXBMO0rGE+8dCCF88MEHn4uFkDcQPvh8i89ThfB6oh+WivYkh58xvDFKJtJKD8mRiD8iCE565kxJhpptUssq94bcqz3LeSj8P+To1QfleNRDcirmUTkb96QmaRcTX9D+Ux1foP6ZWo6p/r2SUvW16nw79f27g3+hCSsy54RNi/x+LAEpb0plS5QY9OPrnG01yvBYh4Tm7/Dse4Y1+XVR9B/wwQcffC7iQwjhgw8hdFsya/xFNzdq93EVy2VwpE6bOVQigjgQX8rOgLslNOMDTQLVjO76Z2n10jFYJefTPvCaewVCCB988MGHEMIHH3w+KISLCcn7RobH2+w+4H6lTEx1SnFdgPgnv6bNeCEVxNuyP+w32vOiLT1ZTjvb0miYkar2dDkU84zX3SMQQvjggw8+hBA++ODzYSFczPGEF6W2K0vMZp3TnllTz1ap5+ZirNLpC+fJER99HtD/Tu2ICLXLrNowZz0bw9w8G2iQkYlOifPg5wMRQvjggw8+hJAGgQ8+hPCWxJYelNGpLqfNGi5mbLJdShpCtB0pff34AeLZz2uq5c2JRbu1WUCTcdqp17maDazvynPrYfIIIXzwwQcfQkiDwAcfQrjuHI59VtuERmcYc8qzhkuPMOgbqpT8movakQ67g+9BVIjLBPBk9MParq/1Hcmi0w05fQdXdeZn73C9RBTu9ql7AEIIH3zwwYcQwgcffJtYCG/MubT3pKErX5v9cM2xCEYZGm2Qa/VB2iHm6oBvRIY4ku3+P5ELCc9JyrX90tCZJnNzIy46l9Eok1a5zK8Pkz0xj/rsZx8hhA8++OBDCOGDDz6E8KaE5W2TrqEKMZt0Lj03Tx2Crs7ISys9rD3j9V3gzxAeckvUERsR2Z9KcX2g9A1XaectuvK6nJoZkOLGq3Iw9tlN8XlHCOGDDz74EEL44IMPIVwxoflbpWOw3CqHsy4/WF0tMx0Zb5bq1jht9udy0ivaOXtI0eaIOkvxWOSfrfL3mRTUXpKO/kLR68dcft2p2etp3YCUtsTIkfjnN91nHCGEDz744EMI4YMPPoTQpgTkfC4NPbkyZ9iIQfoNMzbTvdLYlS7ZlackPOtT7XkxtXMkEuXdRz/4Jb8qScV7pKwpXHoGy8VknNqwa2reYpDhiTbJrvGXA7FPburPNUIIH3zwwYcQwgcffAih3Tma+KIUNobL+HS3NrO3kYK4OJs4Zh3QqyWnOVVnJDLnSzmf8KzsCfkVwuVBxz0cj/qLBKe9q834ljaGSfdA6QbN+t0ag2FSm+2OvnaAzzBCCB988MGHEHLBwAcfQujMRBTtkqbeAtHpR5x2zpvjA/8J6R+ukdr2BMmpPC3ReV+LX9KrcuTqA7KdmUWnZm/ovXI27km5kvmRpJQckGsNwdLWmycTU11u+UPBzecE6mV4sk3y60PlWOJLfE4RQvjggw8+hJALBj74EMKNyL7YxyWl6qx0D1dpcuZOKVjuebHZ2UHtSIy6jiQprL2siczVnC80aVTn13FExg9lm98d2k6wZ+Oe0s6VjC/YoS3ZLW+KkNbeXBmdaN2Q50rtPSh+fLpHKtuTJSDnMz6LCCF88MEHH0JIg8AHH0LoCVHPaCVVnJL2gVLR6UfdPoNo27lzszI51S39w9WaANW0xWm7XGZVnNDOu1O7XgakvKEtUz0RvUUOht8vu4Luka2Xb/cosdsR8FPZF/prOXr1QTkT+4S2m6sSPDVrmlpyUPKqz2uSp5bequWcI+Mtopsb9o42Ms/J2FSXlLcliF/WJ3zWEEL44IMPPoSQBoEPPoTQG7In+mG5WrxbajrTrAP6Tpcfb7HRMRmntVnICevvpnZNHRiplZ7BMmnvK5Dm7iyp70jRBLOqNUYqW6I0IStrvCKljaHaksviugApskad2VjSEKI9e1feFC4VzZFS1RKt7cJa256obbSjlmd29V/TjmMYGmuUscl2mZ7pE71VvN29ZNPZM7tzhlHpGqqS7JoAOZn0Kp8lhBA++OCDDyGkQeCDDyH0lRxJeEFSq89Jq1VuJmf7tdkfX5JEYp/86Y0TMmAV3DKr/IYVbLNeIw/zOUEI4YMPPvgQQhoEPvgQws2Uw/HPSULFcanvzpLRqU4xGqe9YikjsW/jl5m5YekZqZHipqsSkPMF1z5CSP8GH3zwIYQ0CHzwIYRk5VzO+lhbNtjcW6AtOTUap2TBgih6+vN+s3Mj0jtSpz3zF31tvxyKe4brGSGkf4MPPvgQQhoEPvgQQuKcnEx+XeLLjmrLDDuHKmVipk+bVfStZ+k8d5mnkj61adDQeLM09ORoh76rGb890Y9wfSKE9G/wwQcfQkiDwAcfQkjcl0NxT0tI/reSWe0n1R1p2pEY6ogCvWFCE5kFlqKuvrTTKtVKrtXyzqGJFmnuK9SWeMaWHpIzqW9xjSGE9B/wwQcffMsJIW8gfPD5Fh9C6PvSGJDzuSRVnJCipghtlkvtajk00aptdDNnGBOTcUY7787bn2VUs6ZKhA2GSU3y1DOafaN10tJXpJ3jp2b3rhbtltOa7HHd+3LKre1N/wEffPDB5xo+hBA++BBC4tPHZzwqJ5JfF7+sTyWiaJcmktm1gVLSHKXNQjb05Gq7pnYOVUjvSI0MjjfJyGS7jE93a4I5NTsg07ohTcjU83U6/Yi25FKJp4r67+qfqX+nvkZ97bRuQPveiZleTeKGxlusIlcv3cOV2jmPTb35UteVKRVtCVLQECrpVRckpvSQhOR9LefS39Okl7YjCCF88MEHH0LIBQMffAghIYQghPDBBx98CCF88MGHEBJCEEL6D/jggw8+hBA++OBDCAkhCCH9B3zwwQcfQggffPAhhIQQhJD+Az744IMPIYQPPvgQQkIIQkj/AR988MGHEMIHH0LIAJIQghDSf8AHH3zwIYTwwYcQEkIIQkj/AR988MGHEMIHH0JICCEIIf0HfPDBBx9CCB98CCEhhCCE9B/wwQcffAghfPAhhIQQghDSf8AHH3wIIQ0CH3wIISGEIIT0b/DBBx9CSIPABx9CSAghCCH9G3zwwYcQ0iDwwYcQEkIIQkj/Bh988CGENAh88CGEhBCCENK/wQcffAghDQIffAghIYQghPRv8MEHH0JIg8AHH0JICCEIIXzwwQcfQkiDwAcfQkgIIQghfPDBBx9CSIPABx9CSAghCCF88MEHnxcIIW8gfPD5Fh9CSAjxteTXRdF/wAcffPC5iA8hhA8+hJAQQhBC+g/44IMPIaRB4IMPISSEEISQ/g0++OBDCGkQ+OBDCAkhBCGkf4MPPvgQQhoEPvgQQkIIQQjp3+CDDz6EkAaBDz4v4Dub9g4DSEIIQkj/AR988MGHEMIH32bkC8j5kgEkIcSnUtKUTP8BH3zwwYcQwgcffLbwXSnYyQCSEOJTqWrNof+ADz744EMI4YMPPlv4YkuPMIAkhPhUGrvK6D/ggw8++BBC+OCDzxa+gsYIBpCEEJ/K0Gg//Qd88MEHH0IIH3zw2cLXMlDCAJIQ4jM5kvAS/Qd88MEHH0IIH3zw2co3qRtmEEkI8ZkE535D/wEffPDBhxDCBx989vCdSHqZgSQhxCeS1xBG/wEffPDBhxDCBx98tvPNS3LFKQaShBDfeH5wvI3+Az744IMPIYQPPvhs5VtYsEhrfzEDSUKI1+dk8quyYDbSf8AHH3zwIYTwwQefrXzz80Yxm3RyKO4ZBpSEEK9ORvVF603NJNPT0/Qf8MEHH3wIIXzwwWfTDKFVCNUAKr3qAgNKQogXZ4uMT/do9zOdbpb+Az744IMPIYQPPvhsEkLz90KoBlJqQMWgkhDijQnN26bdy1T0Oh39B3zwwQcfQggffPDZI4QqV/J3MLAkhHhl1LPQi/cygx4hhA8++OBDCOGDDz7bhNBiuD6IGhxrYpaQEOJ18c/+/Pp9TGVmZoL+Az744IPPVULIGwgffL7Ft2Ax3TSQii7exwCTEOJV6Rmuuek+NjTRRv8BH3zwweciPoQQPvh8TgiNNw2kJqZ7ZW/0owwyCSFekfCCnTfdw1T6xprpP+CDDz74EEL44IPPFj69fvKWwVRefQgDTUKIx+dA7FMyNTtwyz2sa7SG/gM++OCDDyGEDz74bOFbbjA1b9HLhYwPGHASQjw65W0Jt9y/VJp6C+k/4IMPPvgQQvjgg88WvvaB8mUHVEPjLbIn+hEGnYQQj0xQztfWe5VxmfuXUcrbk+k/4IMPPvgQQvjgg88Wvvy60GWFUKWkJZqBJyGbJHuiHpGjCS/IubT3JDDnK7latEfiSo9KYvlJSak6J+nVlySrLkByG0KkoDFCCpoirP891PrPAiW95pL2NYkVpySu7JhEFu+T4Lxv5Hz6B3I88WXZG/2YU1kV57RuaNn7ltEwhRDCBx988CGE8MEHn618l3I+W1EIVWKuHWCwTIi3y170I3Iq5Q2rpH0rCeUnNKGr686RntEGmZgdFIN5TlxdJotBpuZGpH+8RRp6C6SoOVqSK89IWMEOOZv2juyLecxmce0erlrxnjU80YoQwgcffPAhhPDBB5+tfLuitohFDQZXGFyZTDNyPv19BtWEeEF2Wz/Pp1Pf0mbo8hrCpKm/WMZnB2RhYV48vxZkem5U2gbLpbA5UmJKD2v3nqVL19XKhdX+iKU2xUII4YMPPvgQQvjgg88OIewfa1h1gKU2njme+BIDbkI8LCeSXpHokoNS1pYofePN2iycr5Vl3izDU11S3ZUhtd1Z1nuSedX71aG4ZxBC+OCDDz6EED744LNHCFOrz606wFIZmeyQQ/HPMggnxG3ZIhcyPtSe1avvyZOpuVHZ1KVmPRcsNwmiTj/y/e6jCCF88MEHH0IIH3zw2S6EaknWvNmwphT2jdbL/pgnGJgTskE5HP+cxJQcktrubNEZnH9P8DVB7Bis0GZNEUL44IMPPoQQPvjgs0MI1cCztb94TSFU6R6q0g6DZrBOiGtyMfNj7fk/tQR0YWEB0XOg9KaZW947+g/44IMPPoQQPvjgW0UIT6e8aZMQqvSPNmjP6TB4J8Q5UUtBC5uuajt+Uk6eOLSKocrs7Cz9B3zwwQcfQggffPCtJIQqw5NtNkuh2tr9SMILDOYJcTDqvL/8xisyNtOHtW1QWSwWMRgMMjMzQ/8BH3zwwYcQwgcffEuF8Fz6e1bZM9oshRPTvXI27W0G94TYmAOxT2oHvauz+Cj3y6Fer5epqSn6D/jggw8+hBA++BDCxax24PNyMRgmJTRvG4N9QlbJ5axPpbIjVYxmPSbmYaWWkxqNRruXlNJ/wAcffAghDQIffD4phOq8wQWL0S4pXLAYJLXyLAN/Qm7I3ujHJKH8hAxNdmBdPjhrSP8BH3zwIYQ0CHzw+aQQquTWB9slhIup685iB1LCURHxz0mO9TM0yzERXlvz8/Pas4bT09P0H/DBBx98CCF88G0+IVSZmOl1SArHp7rlQsYHiAHZdFE79Za3J4nJYsCofKTUclKTybTsJjT0H/DBBx9CSIPAB59PC+HJlNdl3mJwSArNJp0kV5xGEsimyNm0d6S+N58zA328lBje+Jwh/Qd88MG3aYWQNxA++HyLbyUhVIkrO+KQEC6mY7BMTiS9gjQQn50RrO3ORgQ34awh/Qd88MG3mfkQQvjg20RCqFLTkbYuKTQYpySx7DgCQXwmJ5Jfk6rOdJlfsGBHm3zG0BnnGdK/wQcffAghDQIffB4thCojk+3rkkKV9sFSOZ3yBkJBvDaH4p6RktZ4scybsSHq+myhOrJitc1n6N/ggw8+hJAGgQ8+rxdCtX3+zNzwuqXQYtZJXn2I7It5DMEgXpPdUQ9LStU5mTNOY0DUimK4nkPu6d/ggw8+hJAGgQ8+jxZClYNxT4vBMLFuKVSZnOmTKwU7kQ3i8QnJ2yrDU10YD2VTqXMMdTod/Rt88MGHENIg8MHne0KoHVqf9LKYjDNOkcLFZaQcUUE8MSeTX5Pm/msYDuVQmc1mu58vpH+DDz74EEIaBD74PF4Iv5fCV8VomHKaFC5YjFLTlc5upMRDlodukfTqS5wlSK277F1GSv8GH3zwIYQ0CHzweYUQqhxJeF7mDONOk8LFswuLmq7K4fjnEBPilpxPf1/6x1swGcqppZaR3nh+If0bfPDBhxDSIPDB5/VCuPhM4czckFOlUMVkmtHE8EjCC0gK2ZCoTZMKGiNkfp5jJCjXldqNdLXZQvo3+OCDDyGkQeCDz6uE8PvldY9I32i906VwUQyLmyPlKGJIXJiLGR/J6HQvtkJtSM3Pz684W0j/Bh988CGENAh88HmdEC6msj3ZJVK4uJS0sj1Jzqa9jcAQJ2aLZNb6c6Yg5ZYyGAy3zBbSv8EHH3wIIQ0CH3xeK4QqyZWntQ1iXCWGMm+U1v5iCcr5Cpkh68rxpFekc7gGK6HcWurZwht3IqV/gw8++BBCGgQ++LxaCFXOpr0rc4YxF0rh9xkcb5bEsuOyP+YJBIfYlcjifaJXR6dQlAfU4k6k9G/wwQcfQkiDwAefTwjh988VPiztA6Uul0IVg2FSSltj5VzaO8gOWTV7oh+R8vYkDITyyDKZTPRv8MEHH0JIg8AHn28I4WKSKk6KxazfEDFU6R6ukriSw8wakltyLPEl6R1rwjooj58tpH+DDz74EEIaBD74fEYIVdSZgmp550ZJoYrROC3VnWl/e9ZwC0K0yRNovQ5mDc7/bFKUp0sh/Rt88MGHEMIHH3xuF8LFpFSelfkNnC1czORMv+Q3hLCkdJMmrfqizC9wtiC1OcWQ/g0++OBDCOGDDz6PEUJttjDuWW1Z50ZL4WKGJ9okpy5IzqS+hSz5/EHzj0pNdxZWQW1qKaR/gw8++BBC+OCDz6OEcDHBeV/LnH7UbWKoMjTeItl1AXI+/T0EysdyMO4Z6RqpxSaoTS+F9G/wwQcfQggffPB5pBAuHgpe1BjhlmWkty4r7ZOSlhgJyvla9kQ9glR5cU4mvyaj071YBIUU0r/BBx98rhRC3kD44PMtPvcI4ffZH/ukNPXmu/hAe3uOsZiQuu4sbbdStTMlkuU9uZz1KZvHUD4thTqdjv4NPvjg8wg+hBA++BBCp+d40qvSO1rnEVK49LnD4uarEpL3reyLeQzx8tCEF+4Ss/qjAkX5uBQuHmJP/wYffPAhhDQIfPD5lBAu5lLmRzI00eJxYqhiNs1K51CFtjFNYM5fZW80gugJiSk5xE6i1KYqW6WQ/g0++OBDCOGDDz6vE8LFXMz4YMPPL7RfEHXSPVQlefXBEpz7jRyIfQpB2+AklJ9w+mHeFOUrUkj/Bh988CGE8MEHn9cK4WIupH8gA2ONVgEzerQcqqjnIIcnWqWiPUniS4/K2bS3tc1zEDfXJLX6gvWKRgapzVsGg4H+DT744EMIaRD44PNtIfz7M4YvS0tfkcxbDB4vhks3qekYKpOipgiJLt4nZ1LfRBKdkKy6QGyAoqxlNBrp3+CDDz6EkAsGPvh8XwgXsy/mcSlrjROTccarxPDGGI1T0jNcLaUtMZJQdkz8sj9juakdyakPxgIoygYppH+DDz74EEL44IPP54TwxnMM48uOyvh0t9eK4dJMzQ5I28A1bVfT+NIjmigejn8OCbwh6dWXGP1T1DK13PJR+jf44IMPIYQPPvh8WAhvOIw85XVp6i0Qi3nOZ+TwxugNE9I3Wi+1XRmSWx8kMdcOyOWsT+RIwgubSgaTKk4z6qcoO6SQ/g0++OBDCOGDD75NIYQ3zhomV56SsalOr9iExllHYYxNdUn7YKlUtidJdm2AxJYckuDcr7VNbQ7GPe0TbRtbeoTdRCnKTimkf4MPPvgQQvjgg2+TCeHfczjuWSltiZU5/eimEMPVYjLNyMR0r/bcYkNPjpS2xkpufbCkVJ7RNroJyf1WLmR8oG3co57R9LS2vFq81yqD84z0KcrGWjySgv4NPvjgQwjhgw++TSuES880bOzJE6NhatPLoS2ZN+utIj2mSeTQeIt0D1dJa3+R1HVnaUdqlLTESGFjuCaVmTWXJbXqnCSVn9BmJqOsghlZtEeuFu6S8IKdcqVgh4Tlb5OQvG+1WcugnK+1MxtD87Za//l267/fKRGF38nVot3W792rLYdVR3YkV5yS9OoLUtmeggxSlAM1NzdH/wYffPAhhPDBBx9CuDSXsz6W5r5CMRqnkT+Pj5lRPUU5WK5YYk3/Cx988CGE8MGHEPpU/LI/1ZZQzhnGkC9PDIfOU5RHSSH9L3zwwYcQwgcfQuizUc/PlTRHyeRs36bZkAYZpCikkP4XPvjgQwjhgw8+hHBJ9kY/JokVx6VrqJLnDt0RnhmkKI+UQvpf+OCDDyGEDz6EcFPmZNKrUtQYIaNTHWIx6xE2ZJCiNqUU0v/CBx98CCF88CGERNu19EMpa4mVEU0Q55A4p8mghVE7RXlw0f/CBx98CCF88CGEZJmcS39PrjVHysBYI0tM2VGUonx2lpD+Fz744EMI4YMPISQ2ZH/sExJfdkQae/NkarZfO9cP4WMTGYrydimk/4UPPviuCyFvIHzw+RYfQrgxu5imVp+T5t4CmZjpFYtJhwTy3CBFuaUsFgv9L3zwwbeuQgjhgw8hJE7I4bhnJbb0oFS0J0nfaL3o9CMybzbw3CBFUS4vg8FA/wsffPAhhPDBBx9C6Ik5mviSJJQdk4q2ROkZrpap2QExGWd98HxEnhukKHeWTqej/4UPPvgQQvjggw8h9J5skfPp70ty5Rmpak/Wzkkcn+4WvWHCO59T5LlBinJrzc/Py9TUFP0vfPDBhxDCBx9CiBD6QvZEPyKXMj6UpIqTUtx0VRp7cqV3pNYqjT0yZxgTs0knCxYjzw1SFHW9TCYT/S988MGHEMIHH0KIEG6m7I1+TM6mvSvhhTskpeqMFDZekZrOdGkfKJX+sUYZnerUlqnq9KPaMRpKJOctBqvDOUkmF1gqSlGeVHq9nv4XPvjgQwjhgw8hRJSIbdkX/bj2nOPZtHfEL+tjCc3/RiKL90h82VFJrToraZUXJKP6kmTV+EtObZDk1YdKQUOYFDWGS1lrnBjV8laKojym1FEUMzMz9L/wwQcfQggffAghIa5NbXc2o2+K8sCy5SgK+l/44IMPIYQPPoSQEIcTmr+dUTdFeXCttXSU/hc++OBDCOGDDyEkxKHsj3lCpnTDjLgpyoNL7To6PT1N/wsffPAhhPDBhxAS4tyUtMYz2qYoL6jVdh2l/4UPPvgQQvjgQwgJsTt+WZ9pm1ZQFOUdNTc3R/8LH3zwIYTwwYcQErL+7I56WIanOhlhU5QX1UoH1tP/wgcffAghfPAhhITYleTKM4yuKcoLy2Aw0P/CBx98CCF88CGEhDieQ3HPyJxxmpE1RXlhLXc2If0vfPDBhxDCBx9CSAgbyVDUJqmlG8zQ/8IHH3wIIXzwIYSE2JSzae/I/IKFETVFeXnpdDr6X/jggw8hhA8+hJAQ+9I2WM5ImqJ8oCwWC/0vfPDBhxDCBx9CSIjtCcnbyiiaonyo9Ho9/S988MGHEMIHH0JIiG3pG2tiBE1RPlSLx1DQ/8IHH3zXhZA3ED74fIsPISTOypWCnYyeKcpHi/4XPvjgWwxCCB98CCEhy2Zgoo1RM0X5YKljKJY7rJ7+Fz74EEIaBD74EEJCtEQU7WHUTFE+XIvPEtL/wgcffAghfPAhhIQsyRYZnupixExRPlyLzxLS/8IHH3wIIXzwIYSE3JSrzA5SFLOE9L/wwYcQ0iDwwYcQks2Z3rFGRsoUtUlmCel/4YMPPoQQPvgQQkKuxz/7c0bJFLWJam5ujv4XPvgQQhoEPvgQQkK+T1NfESNkitpEZbFY6H/hgw8hpEHggw8hJOQhOZXyhrYdPUVRm6t0Oh39L3zwIYQ0CHzw+QrfgegnkBviUMraEhkZU9QmLJPJRP8LH3wIIQ0CH3y+wnc+7X3khtidg3FPi8liYGRMUZu0ZmZm6H/hgw8hpEHgg88X+PyzvkRwiN1JrjzLiJiiNnEZDAb6X/jgQwhpEPjg8wW+kJwdCA6xO0OTHYyIKWoT13oPqqf/hQ8+hJAGgQ8+D+GLKzmB4BC7cinzE0bDFEWt6wgK+l/44EMIaRD44PMQvvy6KCSH2JWKjlRGwhRFidlspv+FDz6EkAaBDz5v52vsKkVyiM05EPukGM1zjIQpitLK0c1l6H/hgw8hpEHgg89D+EbGBmV31MPIDrEpCeUnGAFTFHW99Ho9/S988CGENAh88Hkzn9oUICCHnUaJbekcrmEETFHU9VKby9D/wgcfQkiDwAefF/PNzc1KYVM4skPWzJGEF2RhYZ4RMEVRN9Xs7Cz9L3zwIYQ0CHzweSufUa+XkckOhIdw9iBFUQ6VI2cS0v/CB58XCyFvIHzw+Rbf/LzR+v9McinzY6SHrJrukTpGvhRF3VILCwv0v/DBt4n4EEL44PM1IbSYNCGs7kxFesiKOZb4kkODPoqiKPpf+OBDCGkQ+ODzYL6Fv80Qmk2zcij+WeSHLJvUqvOMYCmKWrHs/YMR/S988CGENAh88HmKEFq+F0KV3Ppg5Icsm64RdhelKAohhA8++BBC+ODzvSWj5r8LodE4JUcSnkeAyJLD6J+S+XkLI16Kouh/4YMPPoQQPvh8eYZQpbQlBgkiNyWiaA+jV4qi6H/hgw8+hBA++HyRz2yeu0kILdb/fTbtbUSIXE9FR4rTrumI1kBGwhTlo2XPslH6X/jgQwhpEPjg8xC+ydn+m4RQpXekTnZHbUGGiJapuRGnXM96i17uCv/vkt2XysiZohBCxgfwwYcQ0iDwwecJfN1DVbcIoUp69QVkiMi5tHeddj2fqNkr/yvw/5AH438ulgUzo2eK2sRF/wsffAghDQIffB7CV9wUuawQqmMoWDpK0qsvOeVavjaUL/8c9F80IVQ5V3eEETFF+WDZOktI/wsffAghDQIffB7CF1a0Y1khVBmb6pKDsU8hRps4zf3X1n0dV4xckx+H/b/XZVDlB8H/IA3jHGVBUQgh4wP44EMIaRD44HMr366Yh2/ZafTGNPcVWMWA5wk3a3SGqXVdw6ndcfLDkP96kwwu5r7o22XKOMEImqI2YdH/wgcfQkiDwAefpwhh1BaZnOlbUQhVcuoCkaNNmDOpb63r+vVrPC3/FPifl5XBxTyX9mcxq+uMoiiEkPEBfPAhhDQIfPC5RwjV2YOrCaFKQtkxJGmTJb7suMPX7qnaA6uK4I35rOANRscU5UNly7JR+l/44EMIaRD44PMgITyR9OqaQrhgMUhE4S5EaROlqjPdoes2rOWyzTK4mP0VWxlFUxRCyPgAPvgQQhoEPvjcIYRq8D8x3bOmFJpNOgnO/RpZ2iQZne61+5qtGS2Xfw3+B7uFUMW/8QwjaYpCCBkfwAcfQkiDwAefO4QwvuzImkK4eBxFWP52hMnHcyjuGTWss+t6nTPr5LcxP3ZIBlX+d9D/qW1CQ1GU7xf9L3zwIYQ0CHzweZgQqpiMMzZJocU8J5FFexAnH05g7ld2X687Sj5zWAYXo3YkrR2rYLRMUQgh4wP44EMIaRD44NtoIcypDbJJCBefKYwvPYo8+WhSq87bda1Wj5ZpM3zrFUKVX0T+i4zqhxkxU5QX11rLRul/4YMPIaRB4IPPA4VQnTeoV+fC2SiFKoWN4ZxT6IOp7EyzfeBn/b9Hku5zigwu5rWsJxhRUxRCyPgAPvg8UQh5A+GDz7f4bhbCh7TjJewRQpWmvgLZH/MEIuVD6R9vsfm6iu+McKoMLiavP4NRNUV5ac3Pz9P/wgefj/IhhPDB5+NCqO0uOdVptxQOWQXiVMrryJRPZIuYLAabrinLglnui77dJUL4x7i7ra9vYWRNUV5a09PT9L/wwYcQ0iDwweeNQng86RXtGUF7pdBgmGSzGR/I6ZQ3bb6mrrYFuUQGFxPZFsyomqK8tHQ6Hf0vfPAhhDQIfPB5oxB+v8FMoN1CuJiy1jjZG/0YcuWlCS/cZdP1pJ4dvD/mTpcK4b1R/yZmdV1RFOV1pdfr6X/hgw8hpEHgg89bhVBlaLzZYSlUS0jPp7+PYHlh0qov2HQ9ZfYmuVQGF3OlxY+RNUV5YRkMBvpf+OBDCGkQ+ODzZiHcF/O4tgzUUSmcN+slpy5Q9kQ9gmh5UUpa4226nl5Mf2hDhFA9o8izhBTlfWUymeh/4YMPIaRB4IPPm4VQRc3yLViMDkuhysBYk/V13kO2vCTN/dfWvJZ6ZrrknwL/84YIoUpKdyyja4rysrJYLPS/8MGHENIg8MHn7UKoEl92xCp265NCNVtY2BTO8RRekGG1y+wadax6z4bJoMrTqX9kdE1RXlbqLEL6X/jgQwhpEPjg8wEhVMms8VuXEC5manaQnUg9PAbz3JrXkqs3k1ku7VPNjLApystqpaMn6H/hgw8hpEHgg8/LhFDlWnOUU6RQpX2wVM6lvYOAeVgOxT+75nXUOF674TKosr9iK6NrivKymp2dpf+FDz6EkAaBDz5fEUKVqvYUp0mhOuuwsj1JjiW+hIx5SM6nf7DmdXSiZq9bhPBXUf+mHXVBUZT31EpnEdL/wgcfQkiDwAeflwqhtgtlc7TTpFDFZJqR/IZQORD7FFLm5gTnfbPmdfR48u/cIoQq1aNljLApyotqpbMI6X/hgw8hpEHgg8+LhVAlrz7UqVKoMqcfk6waP6sYPomcuSlR1/aveg3NWuX9n4P+i9uE8EjVLkbYFIUQMj6ADz6EkAaBDz53C6FKatXZdR9JsaIY1vozY+iGJFeeWfUayh/IcpsMqjyadB8jbIryolrpcHr6X/jgQwhpEPjg8wEhVAnK/atY1K6UTpZCFb1+XHLqguRw/HPI2gYlpz541WvoVO0BtwrhPwf9XzJn1jHKpigvqZUOp6f/hQ8+hJAGgQ8+HxFClRNJr8icYcwlUrj4jGF5W7ycTnkDaXNxSlrjV72G3s193q1CqHJtMI9RNrUhNdzXLqf++vS6cvqrZ+T8tpckYO+7cvXUN5IWdlzKs2Okr71eLBazw2xdTZVy5uvn1p9vntP4Lu9+S0KPfibxl/dIXpyfNJbnim5m/f0QQggffAghDQIffJtACFX2Rj8mPcPVLpPC73clNUpTX4EE5HyBvLkotd3Zq15Df4y72+1CeKnhBKZCbUjNz1tkbnZKZqfHpbulWqLObpMD7/7RaTn68cMSe3GXdNSXqlPc7WbTz07LxHCfNFXkSeD+95zKpnLw/Qcl+vxOGe3vdPg9NJvN9L/wwYcQ0iDwwbcZhPDGA+zVcRKuFEOV4YlWSa44xXOGTk7rQOmq19APQ/6r24Xwq6L3MBXKbRV9bvuaItVSXSgzk2OarPV3NEhjWbZkRZ6Ts9++sOL3+O1+Szobyh0XL5NRLux4dVWuSztf1yRyZnJUm/1UnDkxF+XM18+u+n2HPviTlGVFO8RlsVjof+GDDyGkQeCDbzMJocqFjA9Ebxh3uRSqGI3TUtGeqP1MhG796RiqWvH6GTeMuV0GVZ5N+xNWQrmt6ksy1hTCnpaaFWf1KnLi5MhHD634vYkBB8Rk0DvElh11flWuy7veXF7azCbJi/Nf8/cqSglzYJZ1nv4XPvgQQhoEPvg2mxCq7I56WBp78zZEChczMNYkKZVn2IRmHekerVvx+mmdbPQIIbw/5k6shHJbqVk8R4VwsQY6m+T4p4+uOluoZhjtrdLMKIeEcLGupYWv/ru994B0N1chhPDBt9mFkDcQPvh8i89VQnj9oPPcr8RgmNxQMVS7nqpnDSMKv5M90Y8genakzyrVK1XlSKlHCOEdV/4/rIRyW/W21q5bCK+LpVWwVnoNtfxzzs5NXaryk9YlhOo5RrX5zWqvoWTVnlpY4dlI+l/44PNePoQQPvgQQrujpKypN98qa8YNFcPFMw3VktLg3K+1WUukb/UMTrStPHswlO8RQqiOnqAotwlhW51ThFBVWtiJVV9H7fq5MD9vM1tNYcr6hFD94Scvfs3fT70HCCF88CGENAh88CGEdudSxocyNTuw4VK4GN3ciJS3JUhg7l+tcrgFAVwmI9PdHi+EKvML80JR3i6EagZQ7TS62msVp17ZUCEc7G5d8/crSAyi/4UPPoSQBoEPPoTQ8WRUX3LZYfa2ZtYqh5UdyRJesFP2xTyODP4t4zP9K16PVaNlCCGFEDpRCFWlXzm56mupDWjUrqAbJYQzE6Nr/n6JAQfpf+GDDyGkQeCDDyFcX/bHPqEtI1VnC7pTDBcPvm/uK5SEsmNyJOGFTS2Ek7qhFa/H9qkWj5DBfwn+v1022LdneR6FEDpDCPs7G9d8vYyIMxsmhNPjw2vyJAUeov+FDz6EkAaBDz6E0Dk5kfSq9KmdLd0shX+PUQbHmqSwMVyCcr6SvdGPbiohHFtlhnDGNO0RQvjT8H+0+TM0NjIsAWdOyGP33SN/+cVPbvn3utkZCbl4Vl577E/ym9v+l/zyX/6bPPLrn8mBrV/KQG/Piq9rMholIfKKfPTKs/LA3T/Svu+Pd90mn7/5spQV5q/rcz8xPiYRAZfkk1efl4d++VO59wf/Q371g/8uf77nTnnv+SfE79RR6e/pdui113o/xkdH5PzRA/Lcg7+TX//b/9Dek5e3/FFCL50To8Hg8O80OjwkgedOafx//vc75Ff/+o/Xf6f3X3hKgs6fkuHBAafcN9XvEHb5vNY26ndUP0dF/Xf1s/xPH5fB/l6PEUK1kcvJL59a/QD7Tx62vv9zGyKEagfUtX4/tRsp/S988CGENAh88CGETo1f1scyrp5f8xgx/PvsYWt/saRWnpXz6e9ZWX372cPhqa5Vr8k7r/w3twvhH+LuXmN8vaBJ2Tfvv6lJjZI1laUClJOWrAnJ4r9fmvvv+BfJz0y7ddBdXiqP/+4XK36fyukDu+3+vOvn5rTv+93t/6y9xu9/8gP54MWnNMl89sHf3vT6SnB2ffmxJo9r+4Zt70dMWJD2M1f6nV599E8yMz1l1+9kNpvl3OF9ct+P/kl7jbeffkSSoiKk4lqhpMZFab/f4uv/5of/U47t3i7ZKYm3JjVJhgf6V/1ZSu6P79lx/Wf94ac/lA9felp7/57+w69v+l2UZO/75nOZduC+7XQhtFbsxV1rvqY6/3AjhLA0M3LV1zj43gMyMdJP/wsffAghDQIffAihaxKU+1ePFMMbdy1VS11Tq87JhYwPfE4QV9tlVNVjyb91uxC+nPHI8jOYVllRs31P/f7eZYXmRgFSM1KrCd1ifnv7/5aO1ubr36ckRomLLd+rxMdmyejquC4tSgjD/S/eMiPX2tigCdWNP2PLr+6Sxtqadb0fStp2ffGRTb/Ttx++bfPvNKfTaTOCi997bNe2ZXecvHj8sE0/++C2r1b8WZ1tLfLE/b+8LvJRwQFiNplu+pqmuhp5/fG/3PSaj97379LW1Oh2IVQHvq/1mnGX1v4jw3qFcN5i0Y67WO010sKO2/W7scsofPAhhDQIfPAhhA4lMPdLGVOzVR4qhovR68elpb9Ismr9tSWm+2Oe8Goh7F3lHEJVXxd/4HYh3FHy2bJs3R3t8tW7r2tLE5cTnEUBunDsoLZkUcmNmjmbmpjQomYDl87EqXz59qva9ynBU9+nlnFeOnFE6irLtWWlDTVV2syWmrVb+vNsWWapXkO95uLM1WpLTpW8KZ4bf87vf/Jv0lxfu+L7oeT3u8+Xfz8sVgH46zuvaf/7jScekujQQKmrqrBKZrW2bPXBn99+y/epf7emBMzPa0teF7/nlUceXPX5zE9ff2FVGVQzm36njy37vT2dHfKnn//4+ixjdVnJij9HLfX95LWbf9YDP/vRTdLvDiFsrsxf8zVPf/WMy4Uw8+qZVb8/+NDHYjbat3QYIYQPPoSQBoEPPoRwnUtJP5EBJSnzRo+XQ5UFi0GGxlu04y3iSo/IubR3vOr8w+6R1c8Xu9Lq73YhDGu5bNPn5+1nHr1FgM4c2qtJX3115bLfMz01eX2m6cblhUoG1X+qWSo187VcRYUE3CIymcnxqzKqWSz1jN7i1x/57lubZt6Wzvqp5x7XWv643PuhxFkJ0UqcavZxqege2PrXNRkjg/xv+p6Eq2Grfr2apbvx69Wzi+0tTWv+HINBf5PEnz64Z83vmZ2Z1p6hvPHnPfkfvxLd7KzbhNCW5/ZU1jqo3lEhVM8npoQcXXWZqNoN1Wwy2t2PIYTwwYcQ0iDwwYcQOiXHk16Rlr5iTbi8QQyXPofYaxWt8rZ4bSfTixkfeuxmNe1Dlatek56w02jtWKVNnx8lB0sF7fM3XtKe1Vut1GYxS79PCcpaS0DVDNjD99590/cd/W7rqt+jNji58bnAof4+m363a/k5tzAquVutzh7ad8v3KLFca4Oaz9548abvef5P968uuWazbPnbjOdi1CzeWqVmEe1dnqqeT7zxGcSJMduOZ8hNT7nlvTi84xu3CeHk6IBNQqjEcb1CaDYbRT87LaMD3dJaXShZkedW3NRGHXmhdhQd6e90uB9DCOGDDyGkQeCDDyF0atSZgWUtsWIwTHmdGN4YdQ7j8ESb1HdnS3ZdgEQU7pLTqW/Kbje3R8tAyZrX5S8jf+A2Gbwt9P8Ry4LZps+P2hnz5qWVP9CWDK5VI0ODt8jCFb8LNv1MtXHLUgFdqdQy1Rs3cXnr6Ufsuj+oJZ43bTTzr/8o7c0rC4N6nvDGr1fPKtqys+fS91F932pVXlx4y/tny/t+Yu/OW57fXPoc4I2ldkxd3IBH5eNXnrPr/Xvxod/fMhPc193lFiGcm52ySQjb60rWJYS25tzWF6W2KNWmnU0RQvjgQwhpEPjgQwjdlqvFe2Rkst1rlpPaErNJpy05VaKY3xAisSWHxC/rUzkU/+yGvKc1XZlrXpffXvvQbUL4SuajNn9+li7hVM/D2VqLO1XauuRxJal586mHV/zapRvb2LszaXxE2C3itf/bL1b8+qXLOG19P/LSU2/5OWqppq3iqWJLqfd46fetJrgXjx266WvVc532VETg5Vt+nmo/dwihUa+zSdSaKnI3RAhVDn/wZwk/8VepzIvXZhQRQvjggw8hhA8+hNBjczTxJam1iozJOOMzYrjSBjZ9o/VS150lhY1XJKn8hITmbZOzaW9rM6fOeC+vtcSueV0WDuS4TQj9G8/Y/PlZKkz2CKE6K+/G71VHMthSSyXl5YcfWPFrn33gvpu+VvHaU2p5pJoVXLpBykqbt8ReCXbo/agqvXaLOKlnLVeq5ZamrjbTd/26ys645fvU8RQrldoh9MavTYuLtuv9U8tzl/489SymJwuh2nxmPUKoloyq60MtG52dGpfBrmZtJjD+8h5NAFeUww//IslBh2VqfAghhA8++BBC+OBDCD074YU7NGlasBh9Wg6Xi25uRAbGGrVdT9WmNrn1QZJYdlyuFOzQnls8mvjimhvcZNetLT7zC/Pyi8h/dYsQ9s322Pz5SYwMd1gI1YYrjgihmqW68fte2vKHZb9OLU1cKiN5Gal23yOWSqXKSscoxF4Jcej9ULuOLv0ZkxPjK3692g106devdYagqtKCvFu+T+3kulwt3YRGRT1XaW8t3VxGRe36utFCaOuS0c7GinUL4UqlZC/s2Oerfv+Rj7dIfUmmXb8bQggffAghDQIffAihW7In+hHJrgmQydl+n1pSuv4YRW+YkPGpbukbqZNWqzzWdKZJcXOkdnRGXbdtg+pj1Xs2XAYfTbrPrs+P2gTGU4UwLT7mVqHJy7b7HrH1w3du3dk0Kd6pM6b2CqE6SN4RWVu6NFXNfqrnLG2RW5XKkiK7378v3nrF7nZwhRBOjQ3ZJISja2zust5jJywWs1w5/uWaHLXFaQghfPAhhDQIfPAhhN6Tw/HPSXHTVZnWDSKEa2XBYtO1OaIfkh8E/8OGCmFoyyWfEUK/U0dvEZGinCy77xHqGI2lr6MOZXenEM5MT2kbwtz49af271rz56iNe278ntU22VHPWy5lUpvZ2FvHdm275XWSYyI3XAgHu1v///bu/CuqM8/j+H8xZ36eM6enZ/r03tPdSc/0dJJOptNJd1ajxtbYLp2YzWhMjHa0zeaCgogL7vsSd0AQURABEQXEBQQUVED2VWqjKKr4Ds/NwUEKquoWF6i69f6e8z1nptsqX9ZT8NxPP/c+j9/3XDv/Ze1Wz9EMhKrUraTrF77h+/nCBa9Je1Mt8y8+fARCBgQfPgJheIbDgjuJYrU3sXI4ZPcE/P0cy0Pqnzj6PXH02E0TCAdvPqP6fGqy7t8RR/bs8HoftXnMeAZCVeuWL3vsz7/+9JN+dxpdMnfOY6/Jy84c9s+qzXO8brnN0H/L7f6tm7zeR91qPNaBUB3/4O89962e6/d9jAiE2ipvwg6/ntN71zD/4sNHIGRA8OEjEIZ3r02eJtm3DkpL5/2IfOZwpIFQPc/34zFaJdx4M0r3z08oB8L4NSuCPtpiYA3eKEb1ueSEcQ+EapXwzeefCngX0Jr79+TZn37/0Z+NWvqZz/eP+fJz75XRb/fr/vyO79/t9T7qjMKxDoSF50/4fc/spF1jFgjVZjP+POp5QnWLKfMvPnwEQgYEHz4CoSlabbZyqnCd1DTfMP1upX5bR0UV/WPUw+CTx74nVpf+be9DORAe2L7ZK4jEfLlE978x+dhhr/cpuXZ13AOhFpyqq2TKH5/+/2cCf/JvQx7f0Vhf+9jmOOosR3W4va/aHhftZdoY9Y3uz+/Ewb1e71NZXjbmgTB1f4z/Q+n7QtpYBUKP2y2x81/xa2qpu8/8iw9fJAZCPkB8+MzlIxAO3VvOvq/dWtpmqZZet5NAONxKUF9Q++3xH4xqIDx4Z2dQ3/dQDoRqFWpwEHl74ssjDjTP/ezfxdnlCIlAqMpmtWhBd+BrP3xrkhaIlX3NssXyx1/9SPvPX/ntL7XnH4fbhGRgqVXQwSb1vnpr8JmJz//yR37D6GgEwh1fzR7x7aJGBkJVm5dM8/vvrKm46fd9LBYL8y8+fCbzEQjx4SMQRmBP0I6zKHuQrW1MY/qAKL26vldnqhNHLQxOSH1W3AFudBNOgbC9tcXrDEG1gmbR+XO/J/7xv2/B7GnD/tnxCIQOu10+e3emTHjmN9otscsXLZB333xN/vLCMzL1xWe1jWNUKFTPT/o67H5wNdTVepme+/l/aH+fnhp8ZuLi9//mf+XT4EDY1vTA7/uVXw1sB1ojA2H851P9r1pW3fb5HircM//iw0cgZEDw4SMQmjIgHs37Wm5VX5BOW4P5nj/s9ej+bs3PmWV4GFTPJ97uuBX09z2UA6EqtaI1ONToPZx+1ZKFAb9+rAOhOrx+zuRX5MUnfiLV9+4a/vvsb2+85OVSx3noqa8+/Uj34fZGB8LclH0+32v/mnkBrZoaGQh7up0SM+8l3//Ovv++y271+T5ut5v5Fx8+AiEDgg8fgTAyAuLeCwu1W0wb229Ld7cl4gJhZ3eHPJPwU0MD4fZbcSP6vod6IBzqLEIVoIINRS/91y+ky+EIiUDY7XTKe1Ne1/7szg1rZTRqqLMI506frOs9pr/8h0evffV3v/a7E6rRgVAFr80+VuLWffyqNNUGHqaNCoRVZUV+/40H1y7w+z4ul4v5Fx8+AiEDgg8fgTAyO+bUVDldtEHKH+RIu6VGelw2051FOLiutxQatuvorIzXxRNEMB1Yp08eDToQqnAQTCDctXFdwIHQ43HLzFdf8Ao1V3ICuz2wtaVZu820/3UHd2zWFaACDoTXi3QHwoG3Yvo71y/Y6ukLG+rW08G2a/mBnUeoNrMZ+Dq142ggZWQgzDtzyOf7qICnp25eSvP5fntXfRDQ+yTvjjLkNlan08n8iw8fgZABwYePQEgPPObiVGGslFSdl5aH96Tb2RmaZyH2Br+V/NHKfSMOg0+d/JG0OVtH/H1X5/ENvOB/4dc/Dvi1L/33Lx57rdoAJZAavPvlW39+zuefVzuC/v4n33/sNdP+9GxAz9Oplbf+18x45Y9+V7cGn1mobuUMKGRcLfAKXc0N9T5CQNejjWJUq+cHVaCuKLulvU49J6lWEHs9nhGPceGli17PYs587QUtLPqrzdErH73mnUmvaLc3BlJqIxUjNltRu4aqFcDhbscszNQfpK/npPi9/TSgwOvndtETm5epBwT9vldXVxfzLz58BEIGBB8+AiHt73bT3ZkLJKt4v9ypy9N2Nf3ultPusDiLcKiKu7FiRAfQl7UXG/J9H3jB399q18tAVp4GnomneteG2ID+zrVfLX3sdSoY+Qs+h3Zs8XJ+uWCutoI4XJUV35D//cUPtD/759/8XKruVui2qfZ1i2l/Zaeneb2uuKhw2D+vnhcc/OeHa7Ur6otP/FQmPP2kFoTnTH5VFr83WzatXq4dTO/rM3i0Kts3NoPfd+Xnn/p87k751d/dv7tpXU11wN+ryuIrfgNhZfFl36uTNRXDbtqyfuEbUl6UE9R3/nLatz5d276Y6fP16hiJzX42k1Gh0umwBeSx2WzMv/jwEQgZEHz4CIR0sEFxW/qHcuZavFy/lya1LcXaDqff3XraHVJHTwxVKwr/rjsMvnDqCblvqTTku66C38TnfusVFI7t2+X3terPDH6dOifPbvN9EdzR1up1q2mgG51sWRvl9bqF78zQbmscXJlpKfKnJ3/23XNv//MrKS/xvxql7GqlbvDf4W/lU4XZT96e7vW61f9YPOxr1Eqb2kE00FDoq1VIVM8w+jT2Bb+4FV94vfbzD9+RlqZGrz+rNo5Rq8Xa6mVfEPV37uDgKsg47jcQph/ZOPQ4WDrkYvLeYVcGT275Qh62Ngb9vU/evcqvreLGJa/XdXfZJT/9mHbYvK/XpuxZLd1OR8Ce4Y6cYP7Fh49AyIDgw0cgpEcYFuPT3pXE/Gi5VHZUbtfmSkP7bbHam8TVbTVm11OdR08MVdHXvgg4DM7N/qvYXNYR/50J3+7Xbtsc6tmy/qMd1M6SalUu62zqo9ddzDin/WdL5s7xugWxv1XAjF+zQrsVtbW5SXtdQ+0D7XB49Z8P3oimv9Utod98Nl+OH9gj1XeHD7zqWTu12jfwtWqlct6Mv0jMl5/LisWfPPbvUkckDA48XgGhz7Z3ywYtWA33eSibup1UfQb9K6TqdeqZRHUsxHBh7dO3/yrf7tyqreQNLnUsxFC7gAbTz//nD6X05nX/YajPrG6DHbwCqY7iUGchqiMv3nz+qUf/3dKP3pW2lmZd3y91m+fGRZP9hi7VB2I+lvPHt0p20i45++16bROWtfNf9vpz6gD4xB3LtVs1R1LlRdlDvv/gVn8mcfs3knNqj2Se2CrH45dK3ILXff9boufJ/dJCXR6Px8P8iw8fgZABwYePQEiPV0clTpSd5z+WpMK1crH0sPbcYnXTde3ZRXVURpezXVttHDY89noM+c7tK98qPzz4z8MGwR8c+CfZWhJr2HdcrbSpcBZID9xERAXJrbGrA+7a6irtdeq5uA2rvg64fd1qqaqzo0P2bl6vrUgOFY7UTqIq2BRfuxrQ5xHoZ6G6f7VQPd+n53Vqs5ohV0zb2zSvOndQmVWwVbt6qlVNdWagnlCongsMpNTfqW4hHW6FUm2ko47qULfcBlKd7U19oWmbpB/ZJEc2LJa1/o5iCLC3LHlLW81Tm8Y4rMH9rm9tqJaMo5slZU+U7PrmHUNcj0Lqx69ogTY7abd2e2sw5WuHUeZffPgIhAwIPnwEQjrEVhzjUmbI3qxFcuLKKkm7vkUq6gsM+97lNlyQXx391yHDYMK9w0IN8/Pa0a6tjBVcypEbhfnac26Bnkc33qWeTXx/6hvayuRwz22qTXDUBjPNjQ19Afu+3LtzW9vR9NKFDG0VVj0HOHDFL5DnJB8Lh22t2vupz09tjKNWc/V+fiqsqdA2ki65ki5lhRek8mae1N0rFVtnuyGfsaW9WW7kphrQZzSnWmGsKr8mbU0PxON2j9jna4dR5l98+AiEDAg+fARCOsR7X9ZiQ797aqOYXx75l8cCYdyNlaQ+E5a65XTB397SbkctLxnZBkHqltjXn35SC4R5Wef5cMOoHA4H8y8+fARCBgQfPgIhHb7nKP7F8NWogUdSqN1EnW4nV80mLPWsY/9OqUaUev5Pvd/1gst8uGFUVquV+RcfPgIhA4IPH4GQDuduenjf0O+fy9P9aJVwfs4srphNWKdPHn10i2fG6VOGvOey+e9rm+tYLZ18wGFS6n9MYv7Fh49AyIDgw0cgpMO8r95NNfw7OCPjVW4XNWmp5wH7j8NQrY7HGGnVP6jRzlv88pO5fMBhVP42lGH+xYePQMiA4MNHIKTDoJMKYg3/Di69PE8LhLtKN3LVbLJSu40O3NFTHTIfyMH3w5XaMVTtLqrODFQbwlDhU11dXcy/+PARCBkQfPgIhHS496Yz7xj+HVx7/WstEO4o3cBVs8kq6chBr2Me1DETV3KydD+Pql7z5h9+p53h2H8+IhU+ZbPZmH/x4SMQMiD48BEIaTO0xdFq6HdwS8laLRBuuBnFVbPZQoDV8tjB7wNbhbt13yyTMwnHtTMU1TET6lB4tQrY3FAvFeWlknXujGyLXaOFyP4D6bPT0/hgw6xU+O/s7GT+xYePQMiA4MNHIKTN0KW1uYZ+B3eXbdIC4fLCxUKZr5rq67SD6PUcOj9Uz3r9Re1cQir8yu12M//iw0cgZEDw4SMQ0mbptOtbDf0OHri9XQuEn116lytns64QeTzabqNTX3xWdxCc+uLv5dTRQ1qooMKz/B1Iz/yLD58JAiEfID585vIRCGlfHZ82x9Dv9LWWApl27s/yUc4MrpzNHgx7e6W4qFC2xq6WeTOmyGtPPSHP/Ph7j8KfOrh+wjO/kY9nTZXtcdHanzX67EsqdIv5Fx++8PURCPHhIxDSEdatllrDv9vu3h6uiCN09dBus4nDbif8mfR/BGD+xYePQMiA4MNHIKRN1gWVyVzpUhRFIMSHDx+BEB8+AiEdiX049yuudCmKYv7Fhw8fgRAfPgIhHYm9OnGyuNxOrmApimL+xYcPH4EQHz4CIR2JXdlwlStYiqKGLb3PhDL/4sNHIGRA8OEjENJh1KeLNnHFS1EUgRAfPnwEQnz4CIR0JHZs8lvi8XA2HEVRzL/48BEIGRB8+AiEdGTeNtrIbaMURXlXMEeIMP/iw0cgZEDw4SMQ0mHWyYXrufKlKIpAiA8fgZABwYePQEhHYq9NniZuj4urX4qimH/x4SMQMiD48BEI6UjsioYCrmQpinpUwawOMv/iw0cgZEDw4SMQ0mHaCfkxXAFTFEUgxIePQMiA4MNHIKQj85D6SeLotnAVTFFU0GGQ+RcfPgIhA4IPXwj54s/MIejQuvpKRRJXwhRFEQjx4SMQMiD48JnBty9rESGH1tXb0udyJUxRFPMvPnwEQgYEHz4z+I5c+pqQQ+vuB62lXNFSVATXSFYHmX/x4SMQMiD48IWQL6EghoBD6+5ThXFcEVMUgZD5Fx8+AiEDgg9fuPuyS78l4NC6e03SZOnqtnJVTFGEQeZffPgIhAwIPnzh7CurvUTAoYPqS7ePc2VMUQRC5l98+CItEPIB4sNnLt/9ujLCDR1Ur0+dJW6Pi6tjioqwstlszL/48EWwj0CID5/JfB0dHRKbPJ2AQwfVN6oyuDqmqAiqnp4e5l98+AiEDAg+fGbzHc9bTbihg+rt6R/1fbN6haKoyCi73c78iw8fgZABwYfPbL7C22cJN3TQfbexiKtkioqAcrvdzL/48OEjEOLDZ0Zfc2u9rEmaRLihg+qDOcu4UqaoCCiHw8H8iw8fPgIhPnxm9Z3I4zxCmoPqKYoa/dVB5l98+AiEDAg+fCHou1NzjWBDB90HcpZyxUxRrA4y/+LDRyBkQPDhC2ffjowFhBs66K5qvslVM0WZsNS5g8y/+PDhIxDiwxcBvpt3LxJs6KB7X9ZirpwpyqTF/IsPHz4CIT58EeLbe/7vhBuaHUcpinq0Osj8iw8fPgIhPnwR5ONZQnokvTvzU+FcQopihZD5Fx8+AiEDgg9fGPsSL8cSbuigu6Qmi6tniiIQMv/iw0cgZEDw4QtXX3Nbo2xImU24oYPqDamzxeV2cgVNUQRC5l98+AiEDAg+fOHqY4MZeiSdVXqQK2iKCuPqf3aQ+RcfPnwEQnz4ItiXUhBPuKGD6jVJk+WhvZmraooyQRhk/sWHDx+BEB++CPW1t7fJrvMLCTh0UJ2QH82VNUURCJl/8eEjEDIg+PCFs6++qVrWn55FwKGD6uqWYq6uKSrMwyDzLz58+AiE+PBFuE8dRbE6YTIBh9bdW859ID1uF1fZFBXmxfyLDx8+AiE+fBHuK76XK6sTJxJyaN194dYBrqYpKoxXB5l/8eHDRyDEhw+f1oV3zsmqBAIOra+jEiZK08P7XG1TVJiGQeZffPjwPRYI+QDx4Yts342qDEIhrbt3Zy7su+D0cNVNUSFaDoeD+RcfPnwBFYEQHz58UvrgokSd5PZRWl/nV5ziqpuiQrBcLhfzGz58+AiE+PDh01cVDQUSxUYztI6OTpoibdY6rr4pKoRK3SpqsViY3/Dhw0cgxIcPn/4qq8qXmORphB064N6V+al4PG6uwikqRMputzO/4cOHj0CIDx++4H3VDXck/sx7hB068F1HS/ZzFU5RIVDd3d3Mb/jw4SMQ4sOHb+S+5tZ62Ze1lLBDB9SrEiZwYD1FjXO53W7p7OxkfsOHDx+BEB8+fMb4Ojra5WzRLllxYgKhh/bbG8+8LV0uG1flFDUOpZ4btFqtzG/48OEjEOLDh894nzrAfl3KdEIP7bdPXlnDlTlFjUN1dXUxv+HDh49AiA8fvtHz1TVVyd7zfyf00BxFQVEhVoEcMcH8hg8fPgIhPnz4Ruzr6OiQnJJjEpU4ieBD+3ie8A2pbinhKp2ixqD0PjfI/IYPHz4CIT58+Ebsq66/LXsyFxF+6GE77vRMsThauVqnqFEsj8ej+7lB5jd8+PARCPHhw2eIT60WZpccleikNwlA9JC998IicXt6uGqnqFGqQM8bZH7Dhw8fgRAfPnyj5qtrui9Hc1cSgOgh+8y1zVy1U9QolNPpZH7Dhw8fgRAfPnyh4yu5d0k2p3GYPe3dBZUpXL1TlIEV7CYyzG/48OEjEOLDh29UfW3trZJdfFRikqcRhOjHDq2/U5/PVTxFGVA9PT1BbyLD/IYPHz4CIT58+MbE19xaL2eubpM1SexGSn/X0UlTpL69gqt5ihpBqR1FLRYL8xs+fPgIhPjw4QsPX23TPUkujJOVCRMIRbSsPz1THtqbuaqnqCCqt7d3RDuKMr/hw4ePQIgPH75x87Vb6wmGtNbb0z8Sp8vG1T1F6QyDzG/48OEjEOLDhy/sfe22Bkkp3CBRJycSjiK492UtFpfbyVU+RekIg8xv+PDhIxDiw4fPND512+C5mzsl5tQUAlKE9qGLy6TH7eJqn6KYP/DhwxcKgZAPEB8+fOPhU5vPZN44JOuSZxKSIrCP5i0Xj8fNVT5FDVNdXV3MH/jw4RsTH4EQHz584+prb2+T/PJU2Xl+IUEpwjohP1p6ez1c+VPUoBrq4HnmD3z48BEI8eHDZ3rf3dpiSbocJ9FJbxKYIqSTr2547DkpimJlsIv5Ax8+fARCvjD48EW2r7mtUXJvnZTt5+YTmiKgkwpixdPL7aMUNVwYZP7Ahw8fgRAfPnwR67tXd0tSC7fKutMzCE8m7uOXo8Tt6SERUIRB5g98+PARCPnC4MOHz7s7OtqlsvGqnMyPkehEdig1Yx/O/Vp63N0kAyqiSt0y7XA4mD/w4cNHIGRA8OHDF6hPnWNXWpsrJy5HyZqkSYQpE/WB7KXS3eMgJVCEQeYPfPjwEQj5wuDDh8+/T4WHWw9y5PjlVawcmqR3Zy4Uu9P47yNFhVoYtNvtzB/48OEjEDIg+PDhM8qnbjesaCiQ1KJNsj6F8w3DuePT3pVWSy2pgTJleTwesVqtzB/48OEjEDIg+PDhGz1fr9S13ZasWwdlV+ansuLEBIJWmPXa5LekuqWE9ECZqtxut1gsFuYPfPjwEQgZEHz48I2lz+7s1G4tVeferT89m8AVJr06cZKU1GSRIihTlMvlks7OTn4/48OHj0DIgODDh2+8fc2d1ZJTfEwO53wjscnTCV8h3jllh7VVX4oK1+ru7ub3Mz58+AiEDAg+fPhC09ehnXd4seSEHLm4QuKSOfMwFPtY3kpxuuwkCyqsSm0e4++MQX4/48OHj0DIgODDhy/EfA8aK6XgdpqkFMTLzoxPZFXiG4SyEOgt5z6QFksNKYMKi1Kbx9hsNn4/48OHj0DIgODDhy/cfa1tLVJWVSA5JcfkRF60bE77UFYmsFHNeHR00hQpq80lbVAhXT09PUFtHsPvZ3z48BEI+cLgw4cvTHxt7S1yu6ZIcm8lSOKVONmbuagvrEwltI1RZxTvFk+vm+RBhVyp20T5/YwPHz4CIQOCDx++iPT1SqejRSobr8rlO4narqa7MhdKzKkphLhR6D0XPpN2WwMJhAqZIMjvZ3z48BEIGRB8+PDhG7JsXR3yoLVUblRlyIWS/XLiymrZnj5PohMJiyO9hVR9phQVKmGQ33/48OEjEDIg+PDhw6erHN0WaeiolPK6PMmvOCXnbu6UQ9lfybazH8m6lOmy4gTPK/rrk1fW9H2OVpIJNa5BkN9/+PDhIxAyIPjw4cNnuK+9vU3qmu7LnZprcr3ygvbc4rlreyTpcpwcvrhc9mQu0ja6UUdmRJ2caLIVwKkSf2aOduvtkUtfS1JhrKT3Bea8OyeluOaC3G++oe082uWy+bxAp6ixCoP8/sOHD19YBUI+QHz48OEzn0+d19dha5TGh/ekpuWWVDQUSH55al+QPCmZNw5JWtFO7UiNxMuxcjxvtRzJWSGHsr+UfRc+l10Zn8n2c/Nla9oHfUHsPdmU1td9gWxD6tsSd3q2rD89S2JTZvT933+V9Skz+/7/2bKp779ToS3+7Huy9dwHsjV9rnY7rHrGb3/WEjmc+5V2jmBifoz2XGXqtc3apjAXy45IfuUp7ZbPq3fSpfjeRSmvvir360ulvrla2tpbg/rsHA4HwZAa1SDo72xBfv/hw4cvXHwEQnz48OHDZ1ofoZAyulwuV0DHSfDziw8fPgIhA4IPHz58+ELERzCkRlrqkHm18szPLz58+AiEDAg+fPjw4QtDnwqFBEMqmOru7tZ9yDw/v/jw4SMQMiD48OHDhy8EfYRCKtDq6ekRq9XKzy8+fPgIhAwIPnz48OEzm49gSA1Xem8P5ecXHz58BEIGBB8+fPjwhamPYEgNDIJq99DOzk5+PvDhw0cgZEDw4cOHD18k+QiGkVv9x0gYEQT5+cWHDx+BkAHBhw8fPnxh7CMYRlYQ7B9vfj7w4cNHIGRA8OHDhw8fPq+gQJk7CPLzgQ8fPgIhA4IPHz58+PD5DA+UeYMgPx/48OEjEDIg+PDhw4cPn99SRxBQ4RsE+fnAhw8fPgIhPnz48OHDNyKfzWbTDiln1dB8xc8HPnz4CIQMCD58+PDhwxeQT+1GqXaldLvdJKkQXA0MJrDz84EPHz4CIQOCDx8+fPjw6faxahi+IZCfD3z48OEjEOLDhw8fPnyG+NSqocPhEJfLRTgMkxDIzwc+fPjwEQjx4cOHDx8+w32Ew9ErtbmPul2X7x8+fPjwEQjx4cOHDx++kPepcGi327XbSj0eD4lOZ6nPTH12KmBbLBa+f/jw4cNHIMSHDx8+fPjC12e1WrUVLqNveTTjKqB6PpPvHz58+PARCPHhw4cPHz5T+/qDYSQGRPVv7g+AaiVVrajy/cOHDx++MQyEfID48OHDhw9f6Pj6VxDVbZLqWAszhcT+VVEj/k18//Dhw4fPmCYQ4sOHDx8+fCHuUyFRPUOngqLaqCbUg6KyKaNa+XM6nZqd8cWHDx8+AiEDgg8fPnz48BnoU5usqOfsVOAauPpm5Eqcr7CnwqlayVRBVRmUZeDGL4wvPnz48BEIGRB8+PDhw4cvDH0q3PW3WqFUQS/Q5/v4/PDhw4ePQMiA4MOHDx8+fPjw4cOHDx+BkAHBhw8fPnz48OHDhw8fPgIhA4IPHz58+PDhw4cPHz58BEIGBB8+fPjw4cOHDx8+fPgIhAwIPnz48OHDhw8fPnz48BEIGRB8+PDhw4cPHz58+PDhIxDyhcGHDx8+fPjw4cOHDx8+AiE+fPjw4cOHDx8+fPjw4SMQ4sOHDx8+fPjw4cOHDx8+AiE+fPjw4cOHDx8+fPjw4SMQ4sOHDx8+fPjw4cOHDx8+AiE+fPjw4cOHDx8+fPjw4SMQ4sOHDx8+fPjw4cOHDx8+AiE+fPjw4cOHDx8+fPjw4SMQ4sOHDx8+fPjw4cOHDx8+AiE+fPjw4cOHDx8+fPjwRXQg5APEhw8fPnz48OHDhw8fvsj0EQjx4cOHDx8+fPjw4cOHj0DIgODDhw8fPnz48OHDhw8fgZABwYcPHz58+PDhw4cPHz4CIQOCDx8+fPjw4cOHDx8+fARCBgQfPnz48OHDhw8fPnz4CIQMCD58+PDhw4cPHz58+PARCBkQfPjw4cOHDx8+fPjw4SMQMiD48OHDhw8fPnz48OHDRyBkQPDhw4cPHz58+PDhw4ePQMiA4MOHDx8+fPjw4cOHDx+BkAHBhw8fPnz48OHDhw8fPgIhA4IPHz58+PDhw4cPHz58BEIGBB8+fPjw4cOHDx8+fPgIhAwIPnz48OHDhw8fPnz48BEI+cLgw4cPHz58+PDhw4cPH4EQHz58+PDhw4cPHz58+PARCPHhw4cPHz58+PDhw4cPH4EQHz58+PDhw4cPHz58+PARCPHhw4cPHz58+PDhw4cPn/5AyAeIDx8+fPjw4cOHDx8+fJHpIxDiw4cPHz58+PDhw4cPH4GQAcGHDx8+fPjw4cOHDx8+AiEDgg8fPnz48OHDhw8fPnym9/0fML3SEXFsTbwAAAAASUVORK5CYII=" vertex="1" parent="1">
          <mxGeometry x="670" y="500" width="133.33" height="80" as="geometry" />
        </mxCell>
        <mxCell id="EOrUfLX56-fCI15zJVo0-16" value="Videos" style="text;html=1;strokeColor=none;fillColor=none;align=center;verticalAlign=middle;whiteSpace=wrap;rounded=0;" vertex="1" parent="1">
          <mxGeometry x="620" y="600" width="60" height="30" as="geometry" />
        </mxCell>
        <mxCell id="EOrUfLX56-fCI15zJVo0-17" value="User data" style="text;html=1;strokeColor=none;fillColor=none;align=center;verticalAlign=middle;whiteSpace=wrap;rounded=0;" vertex="1" parent="1">
          <mxGeometry x="718" y="788" width="60" height="30" as="geometry" />
        </mxCell>
        <mxCell id="EOrUfLX56-fCI15zJVo0-19" value="Meta data" style="text;html=1;strokeColor=none;fillColor=none;align=center;verticalAlign=middle;whiteSpace=wrap;rounded=0;" vertex="1" parent="1">
          <mxGeometry x="727" y="600" width="60" height="30" as="geometry" />
        </mxCell>
        <mxCell id="EOrUfLX56-fCI15zJVo0-22" value="" style="sketch=0;aspect=fixed;pointerEvents=1;shadow=0;dashed=0;html=1;strokeColor=none;labelPosition=center;verticalLabelPosition=bottom;verticalAlign=top;align=center;fillColor=#00188D;shape=mxgraph.azure.queue_generic" vertex="1" parent="1">
          <mxGeometry x="358" y="490" width="133.33" height="40" as="geometry" />
        </mxCell>
        <mxCell id="EOrUfLX56-fCI15zJVo0-23" value="" style="shape=image;verticalLabelPosition=bottom;verticalAlign=top;imageAspect=0;image=data:image/png,iVBORw0KGgoAAAANSUhEUgAAA4QAAAJQCAYAAADWlqq2AABPyUlEQVR42u3dP2hl55038Owu6gQ2000T1KgbQ1A1hWFSTaMmTCXcjKuFVFIR9KpYsECYUSEcxHqFERgLrV3IChhkdTOQF2SF2DtIYRgLCzsRIzsrry17AmGSIsV9399NrleWdaX759x7nuecj+Bb7Mb2fOY8599X5znn+VGj4J8//elPhYaPj4+Pj4+Pj4+Pj49vML4fGRA+Pj4+Pj4+Pj4+Pj6F0IDw8fHx8fHx8fHx8fEphAaEj4+Pj4+Pj4+Pj49PITQgfHx8fHx8fHx8fHx8CqEB4ePj4+Pj4+Pj4+PjUwgNCB8fHx8fHx8fHx8fn0JoQPj4+Pj4+Pj4+Pj4+BRCA8LHx8fHx8fHx8fHx6cQGhA+Pj4+Pj4+Pj4+Pj6F0IDw8fHx8fHx8fHx8fEphAaEj4+Pj4+Pj4+Pj49PITQgfHx8fHx8fHx8fHx8CqEB4ePj4+Pj4+Pj4+PjUwjtMHx8fHx8fHx8fHx8fAqhHYaPj4+Pj4+Pj4+Pj08h5OPj4+Pj4+Pj4+Pj41MI+fj4+Pj4+Pj4+Pj4+BRCPj4+Pj4+Pj4+Pj4+PoWQj4+Pj4+Pj4+Pj4+Pr+tCaAPy8fHx8fHx8fHx8fHV06cQ8vHx8fHx8fHx8fHxKYQGhI+Pj4+Pj4+Pj4+PTyE0IHx8fHx8fHx8fHx8fAqhAeHj4+Pj4+Pj4+Pj41MIDQgfHx8fHx8fHx8fH59CaED4+Pj4+Pj4+Pj4+PgUQgPCx8fHx8fHx8fHx8enEBoQPj4+Pj4+Pj4+Pj4+hdCA8PHx8fHx8fHx8fHxKYQGhI+Pj4+Pj4+Pj4+PTyE0IHx8fHx8fHx8fHx8fAqhAeHj4+Pj4+Pj4+Pj41MIDQgfHx8fHx8fHx8fH59CaED4+Pj4+Pj4+Pj4+PgUQjsMHx8fHx8fHx8fHx+fQsjHx8fHx8fHx8fHx8enEPLx8fHx8fHx8fHx8fEphHx8fHx8fHx8fHx8fHwKIR8fHx8fHx8fHx8fH1/3hdAG5OPj4+Pj4+Pj4+Pjq6dPIeTL3vejH/1IRLqM8wsfHx8fHx+fQsiXrc8NvUj55dD5j4+Pj4+PTyE0IHxD9bl5F0mnHDr/8fHx8fHxKYQGhG8oPjfqIukVQ+c/Pj4+Pj4+hdCA8A3U58ZcJN1S6PzHx8fHx8enEBoQvoH53JCLpF0Mnf/4+Pj4+PgUQgPCV7jPDbhIHqXQ+Y+Pj4+Pj08hNCB8hfrceIvkUwqd//j4+Pj4+BRCA8JXmM8Nt0hepdD5j4+Pj4+PTyE0IHyF+Nxoi+RXCp3/+Pj4+Pj4FEIDwte3zw22SJ6l0PmPj4+Pj49PITQgfAqhSE3j/MfHx8fHx6cQGhC+vuKmWkQpdH7m4+Pj4+NTCA1IDX1upkUUQudnPj4+Pj4+hdCA1NDnRlpEKXR+5uPj4+PjUwgNiEIoIkqh8zMfHx8fH59CaEDq4nPzLKIQOj/z8fHx8fEphAZEIRQRpdD5mY+Pj4+PTyE0IHXxuWkWUQidn/n4+Pj4+BIqhDYg3zB9bppFqr1YvfMfHx8fHx9fZsvAGRA+hVBEUiiFzs98fHx8fHwKoR2mwj43yyIKofMzHx8fHx+fQmhAFEIRUQidn/n4+Pj4+BRCA6IQiohS6PzMx8fHx8enEBoQhVBEFELnZz4+Pj4+PoXQDlM9n5tkEYXQ+ZmPj4+Pj08hNCAKoYgohM7PfHx8fHx8CqEBUQhFRCF0fubj4+Pj41MIDYhCKCIKofMzHx8fHx+fQmiHUQhFRCF0fubj4+Pj41MI7TAKoYgohM7PfHx8fHx8CiGfQigiCqHzMx8fHx8fn0LIpxCKiELo/MzHx8fHx6cQ8imEIqIQOj/z8fHx8fEphHwKoYgohM7PfHx8fHx8CiGfQigiCqHzMx8fHx8fn0LIpxCKiELo/MzHx8fHx6cQ8imEIqIQOj/z8fHx8fEphHwKoYgohHx8fHx8fHxRCG1AvmH43CSL1CfOf3x8fHx8fPn4FEI+hVBEFEI+Pj4+Pj6F0IDwKYRuePkcH44PPj4+Pj4+hdCA8LnhLfRG1/7H5zgxvnx8fHx8fAqhAVEIa1wG7X98jhXjy8fHx8fHpxAaEIWwpmXQ/sfneDG+fHx8fHx8CqEBUQhrWgbtf3yOGePLx8fHx8enEBoQhVAhtP/xOWbsf3x8fHx8fAqhAVEI61QG7X98jhvjy8fHx8fHpxAaEIVQIbT/8TlujC8fHx8fH59CaEAUQoXQ/sfnuLH/8fHx8fHxKYQGRCFUCO1/fAqh/Y+Pj4+Pj08htMMohAqh/Y9PIbT/8fHx8fHxKYR2GIVQIbT/KYQKof2Pj4+Pj49PIeRTCBVC+59CqBDa//j4+Pj4+BRCPoVQIbT/KYQKof2Pj4+Pj49PIeRTCC1Mz2dheoXQ/sfHx8fHx6cQ8imECiGfQqgQ2v/4+Pj4+PgUQj6FMNVSaP/jc7wYXz4+Pj4+PoXQgCiENS2F9j8+x4r9j4+Pj4+PL6lCaAPyDcNXhZvcVowv3yB8jhH7Hx8fHx8fXxk+hZBPIRziTa/9j8+xYf/j4+Pj4+NTCA2IQigilY3zHx8fHx8fn0JoQPgUQhGF0PmPj4+Pj49PITQgfAqhiELo/MzHx8fHx6cQGhCFUEQUQudnPj4+Pj4+hdCAKIQiohA6P/Px8fHx8SmEBkQhFBGF0PmZj4+Pj49PITQgCqGIKITOz3x8fHx8fAqhHUYhFBGF0PmZj4+Pj49PIeRTCEVEIXR+5uPj4+PjUwj5FEIRUQidn/n4+Pj4+BRCPoVQRBRC52c+Pj4+Pj6FkE8hFBGF0PmZj4+Pj49PIeRTCEVEIXR+5uPj4+PjUwj5FEIRUQidn/n4+Pj4+BRCPoVQRBRC52c+Pj4+Pj6FkE8hFBGFkI+Pj4+Pj08h5FMIRUQh5OPj4+PjUwgNCJ9CKCIKIR8fHx8fX/0KoQ3INwyfm2SR+sT5j4+Pj4+PLx+fQsinEIqIQsjHx8fHx6cQGhA+hVBEFEI+Pj4+Pj6F0IDwKYQiohDy8fHx8fEphAaETyEUEYWQj4+Pj49PITQgfAqhiCiEfHx8fHx8CqEB4VMIRUQh5OPj4+PjUwgNCJ9CKCIKIR8fHx8fn0JoQPgUQhFx/uPj4+Pj41MIDQifQiiiEDr/8fHx8fHxKYQGhE8hFFEInZ/5+Pj4+PgUQgOiEIqIQuj8zMfHx8fHpxAaEIVQRBRC52c+Pj4+Pj6F0IAohCKiEDo/8/Hx8fHxKYQGRCEUEYXQ+ZmPj4+Pj08htMMohCKiEDo/8/Hx8fHxKYR8CqGIKITOz3x8fHx8fAohn0IoIgqh8zMfHx8fH59CyKcQiohC6PzMx8fHx8enEPIphCKiEDo/8/Hx8fHxdV8IbUC+YfjcJIvUJ85/fHx8fHx8+fgUQj6FUEQUQj4+Pj4+PoXQgPAphCKiEPLx8fHx8SmEBoRPIRzITa/9j8+xYf/j4+Pj4+NTCA2IQlizG137H5/jxPjy8fHx8fEphAZEIaxxGbT/8TlWjC8fHx8fH59CaEAUwpqWQfsfn+PF+PLx8fHx8SmEBkQhrGkZtP/xOWaMLx8fHx8fn0JoQBRChdD+x+eYsf/x8fHx8fEphAZEIaxTGbT/8TlujC8fHx8fH59CaEAUQoXQ/sfnuDG+fHx8fHx8CqEBUQgVQvsfn+PG/sfHx8fHx6cQGhCFUCG0//EphPY/Pj4+Pj4+hdAOoxAqhPY/PoXQ/sfHx8fHx6cQ2mEUQoXQ/qcQKoT2Pz4+Pj4+PoWQTyFUCO1/CqFCaP/j4+Pj4+NTCPkUQoXQ/qcQKoT2Pz4+Pj4+PoWQTyG0MD1fNX0Wprf/5ejb29trZnt7u7G5udnM4uJiM0tLS42ZmZnGv/7rv/aVubm55n+r9d9t/TnxZ7b+fOPLx8fHpxDyKYQKIZ9CqBDa/wbgi8L14MGDZglbXl5ulrJ+S94gMj093bSFMay7u7uNg4MD48vHx8enEPIphOWVQvsfn+PF+ObiOzk5aZa/VvGbn59Psvj1kvi7rK6ufvdU0f7Hx8dX60JoA/INw5f7DW7E+PINw1fnY8X+V67v6Oio+eQvilKVyl83JXF9fb25DWJb2P/4+Pjq4lMI+RTCIZZC+x+f48T+l4rvbAGM6ZV1K4BXZXZ2trltYhvF01L7Hx8fn0JoQPgUwr5Lof2PzzFi/yvTF9Mj4ylYlB2lr7cniJe9h2j/4+PjUwgNCF8Nbnb7uem1//FV/bhQCNPzxcdUPAUs/oM1sU1j29r/+Pj4FEIDwlfjG18RUQhT9CmB5ZdD9wd8fHwKoQHhUwhFFELnv6H5YiqjElh+OWxNK3V/wMfHpxAaED6FUEQhdP4bqO/Zs2fNj57EYu0KWVpZWFhojk2MkfsDPj4+hdCAKIRukkUUQufnwnyHh4eNtbU1xSuTxFgdHx+7P+Dj41MIDYhCKCIKofNz7754T83TwHyztLTUHEPHBx8fn0JoQBRCEVEInZ87nha6tbXVmJmZUaoqkij1MabdTCd1fPDx8SmEfAqhiCiENTo/n56eNjY2NhTBCifGttNi6Pjg4+NTCPkUQhFRCGtwfo4i6P1AxdDxwcfHpxDaYRRCEVEIa3R+VgTlsmLo/oWPj08h5FMIRUQhrOD52TuC0kkxdP/Cx8enEPIphCKiEFbs/Bzr1CmCclkxbH2V1P0LHx+fQsinEIqIQliR8/Pe3p7lI6SrRe5jn3H/wsfHpxDyKYRSSP7pn/6pmX/+53/+Xv7lX/7le/93659r5ey/azuKQth9jo6OGouLi0qO9JTl5eXmPuT+hY+PTyHkUwhFRCHM6Px8cnLS2NzcVGqk70xPTzf3JfcvfHx8CiGfQigiCmEG57+Y6jc7O6vMSKGZn5/vaxqp+xc+Pj6FkE8hFBGFcIC+eCq4urqqvMhAs76+3tzX3L/w8fH1XAhtQL5h+Nwki9Qnzn+Nxv7+vq+HytASHyg6PDx0/8LHx9fbgxsDwqcQiohCWIwv1o2zuLyUlY2NjQsXtXf/wsfHpxDyKYQiohAO+PwXT2gsJSEpPC08Pj52/8LHx6cQ8imEIqIQDuv8t7W1pYxIUol90v0LHx+fQsinEIqIQjjA89/p6WljaWlJAZEkE/tmuymk7l/4+PgUQj6FUEQUwj58PhwjOST20Ys+OOP+hY+PTyHkUwhFRCHs0WeKqOSWBw8euH/h4+NTCPkUQhFRCPvxxfS7lZUVBUOyTOy7rSmk7l/4+PgUQj6FUEQUwi4SX25cWFhQLCTrxD4c+7L7Fz4+PoWQTyEUEYWww+zt7XlfsIcsLi42s76+3pxmG4n32c4mPszT7uf8Pxvvbbb+O/HfbP33bevu3yuMfdr9Cx8fn0LIpxCKiEJ4ReLdKyWifWZnZxvLy8uNzc3Nxu7ubtuiMejxPTk5af7ZMV5hiaIYNmN0+XuF7l/4+PgUQj6FUEQUwjZZXV1VHM5kenr6u/IX5StKWOrj2yqKYQ57/B2M5f8mnrS6f+HjUwgNCJ9CKCIKoTLYtgBub283Dg4OKnN9i79L/J0UxL8n9nX3L3x8CqEB4VMIRUQh/McTpfn5+Vp/dGRjY6PvApjbO6Lxd67zR4Niim03T3zdX/HxKYQGhE8hFJHKFcK6lsEoQvE+2dkPvNT1+hbbILZFHcth7Pu9lkL3V3x8CqEB4VMIRSTrQli3Mjg3N/eDEuj69v2f2DbxRdPYVkqh+ys+PoXQgPAphCJS0UIY0yPrUAZjuYG1tbXmEg6ub935YpvFtqvD8iO9lEL3V3x8CqEB4VMIRSTLQhhlsOofFmk9DXz27JnrW5++2IaxLav+1LDbUuj+io9PITQgfAqhiGRXCKteBpeWlpqLubu+DcYX2za2sVLo/oqPTyE0IHwKoYhkVgjjRreqZbDTaaGub8X4WtNJ61wK3V/x8WVcCG1AvmH43CSL1Cc5nP9i2l8VvyIZ68kdHR25vpXki21fxfUr41i5arqx+ys+vnx9CiGfQigitSqEVSyDKysrhRVB17diimGMSZ1KofsrPj6F0IDwKYQiknwhrFoZjPfXWlNDXd/S88XYVOkdw8tKof2Pj08hNCB8CqGIJF8Iq/LUJr5wef5jMa5v6fp2d3cr81XSOIaMLx+fQmhA+BRCEcmuEFblox+xUPpFT2lc39L2xZjF2FXlo0XGl49PITQgfAqhiGRTCKtwIx5TD09PT13fMvfFGFZhGmmsxWh8+fgUQgPCpxCKSPKFMKbr5XzjPTMz09Fagq5vefliv4yxzXnfjL+D8eXjUwgNCJ9CKCLJFsLj4+Ps39e66nP/rm/5+mJsc36vNQptHGPGl49PITQgfAqhiCRXCONmO9cnMJ0+FXR9q4Yvpl/mvK/GsWZ8+fgUQgPCpxCKSDKF8OTkJNvlJa56V9D1rZq+GPNc99lwG18+PoXQgPAphCKSTCFcXV3N9guirh/19m1sbGS578YxZ3z5+BRCA8KnEIpI6ee/mH6X47S71gLzrh98MV04xymkcewZXz4+hdCA8CmEIgphaee/g4ODLKfbdfrhGNe3+vhynEI6PT3dPAaNLx+fQmhA+BRCEYVw6Oe/eG9wdnY2+wW+XT/4Wj/xi4LYR3Lap+MYjGPR+PLxKYQGhE8hFFEIh3r+W15eznYNN9cPvst+4t3Sur1PaP/j41MI7TAKoYgohJV8bzCm1RVdBl3fqu/L7d3Yft8ntP/x8SmEdhiFUEQUwo5ydHTULFm5vWPl+sHXrS/2nZz29Tg2jS8fn0JoQPgUQhGFcKDnl/n5+SxukMN59gbZ9YOvF19OpXBxcdH48vEphAaETyEUUQgHd37Z3NzMpgye/9CG6wdfr774xUIuvwiJY9T48vEphAaEz02yiEJY+PkllyUmLiqDrh98/fpin8qlFPayFIX9j49viIXQBuQbhs9Nskh9MqzzSw5rtF22xqDrB1+/vti3cjkOjC8fX7o+hZBPIRSpUUZHRxvXr1/vOCMjI0kWwhw+w3/VgvOuH3xF+HIphfHVUePLx6cQGhCFUESGkGvXrjXGxsYaExMTjdu3bzcmJyf7vpmbmppq/ndu3brV/O9eVhYHfX45PT1tzMzMZF0GXT/4ivTlUArjmI1j1/jy8SmEBkQhFJGCE+UsSloRxa+Xohgl8caNG82nj8MohEtLS9mXQdcPvqJ9sc/Nzc0lfWzEsWt8+fgUQgOiEIpIAdM+x8fHm0//Urvhi4K4urraXHh9EOeX/f39SpRB1w++QfiOj4+Tf3oex7Dx5eNTCA2IQigiXSamZ0YJvHPnThZfFWwtTB3lcG9vrxZPQOJGPG7IXT/4yvSlXgrjGPYEnY9PITQgCqGIdDEdNKZk5lIC22V2draxvb194fILnZ5fUv6QTLdl0PWDb5C+1J+kx7FsfPn4FEIDohCKyCXJ7WlgN4mnhrGwdjfnl/gYRRWmwbl+8A3LF9O2Uz5mrvrAjPHl41MI7TAKoUhti2C8h1fFInhVMbzsZ2VlpTKf03f94BuWb21tLdnjJmzGl49PITQgCqGI1LAItiuG7X4ODw+zval1/eAr25fyV3nj2Da+fHwKoQFRCEVq/45gVaeGdpuNjY0LPzaR6g1tN18Udf3gK8uX8seYLluGwvjy8SmEdhiFUKTyXw2twsdiBvFxlnj3qfWT6scxul1k2/WDr0xffPAot6eExpePTyG0wyiEIpXN2NhY4+7duwrgFU8OonCl+mSjl4/IuH7wlemLd11TXYbC+PLxKYQGRCEUqc1TwRQXk5fup7a6fvDl6Ev140xnZwUYXz4+hdAOoxCKVPZdQU8F80+8N+j6wZerL9X3CS96Smh8+fgUQjuMQihSmUxMTChTFXm/sdvF510/+FLzpfrV3vNPCY0vH59CaIdRCEUqMUV0cnJSmapIel1v0PWDLzVfTHtO/Smh8eXjUwjtMAqhSNa5du2a5SQqlMXFRdcPvkr55ufnk/5Yk/Hl41MI7TAKoUjWZdD7gtXJ9PR04+joyPWDr1K+vb29pNclNL58fAqhHUYhFPHxGEki29vbrh98lfStr68nuy6h8eXjG2IhtAH5huFTFKQOGR8fV6Aq/FVR1w++qvlS/Oro6uqq8eXjG7JPIeRTCEWUQbniaYXrB19VffHeXmrHnSnafHwKoR1GIRTJbpqo8lS9rK2tuX7w1cIX7+6ldOzFVFbjy8enENphFEIRH5CRUtccjOl0rh98dfCdnp4m9yEn48vHpxDaYRRCEWVQSsvW1pbrB1+tfKmtTXh+oXrjy8enEPIphCLJLTpvncFq5vwC2a4ffHXwxRPxeDKe4hIUxpePTyHkUwhFksvk5KTyVNG0ezLh+sFXdV88GU/pWIyprMaXj08htMMohCLJZWJiQnGq2dNB1w++OvhSe0oY01iNLx+fQmiHUQhFksrY2JjiVOHEJ/hdP/jq7Isn5Dn8gsb48vEphHwKoUgp7w36iEw9FqF3/eCrsy+lxeov+yWN8eXjUwj5FEIR7w3K0L5q6PrBVxffgwcPkl0P1Pjy8SmEfAqhSCm5ceOG0lTTdwddP/jq5kvpXcJwGF8+PoWQTyEUMVVUSl/zzPWDr06+lL44WsS0UePLx6cQ8imEIj3n9u3blS1Cs7OzjcXFxe8yPT3t6aDrBx9f8ylhlaaNGl8+PoWQTyEU6SnXr1+vROmJRZ43NzebT8L29vY6Om7jn4t3idbX1xvz8/O1fjro+sFXR18UsapMGzW+fHwKIZ9CKNJTpqamsiw5cQMVN3Nnp1r1ez45OTlpFsTl5eXaPR10/eCro+/4+Lgy00aNLx+fQsinEIp0nfHx8SyfBLZ74lXkuSXKYbxjlNLn6XtJ/B1cP/j42v/EOaUK00aNLx+fQsinEIpU+ulg3LQdHh6Wcn6JAppjMYynqPGelOsHH1/7n1QWqu93kXrjy8enEPIphCKVfDoYN0lXFcFhnF+iWMXTtlQ+VV/000HXD746+1I5rmMKq/Hl41MI+RRCEU8HEy40p6enyUwxK/LpoOsHX519qXxcJt5hNr58fAMohDYg3zB8CoZ4OljsUhEHBwdJn1+2t7eT3obxxVXnZz6+zhLnmxSO21gax/jy8RXvUwj5FEKRjJ4Oxg1RfNAlh/NL3ESmuK5hmHrZhq4ffHX2xS+iUjh+jS8fn0LIpxCK1HbdwdXV1ezOL1G8osRWYTu6fvDV2RfrkaZw/Ha6jqrx5eNTCPkUQpGecuvWrUqWwbLPL6ncTEaOjo6cn/n4uvzzU5k22st0b+PLx6cQ8imEIh1lZGSksmUwhfNLfL6+7Cmk/WxL1w++uvtSmDba63uExpePTyHkUwhFrsyNGzcqWwZTOb/E07n5+fnsng66fvDxpfOk3/jy8SmEfAqhyEBy586d5D4gU8XzS7xXGEXXO5iuH3x5+VKZNtrLe4TGl49PIeRTCEUuzejoaHILzvf6NdFczi+xplguTwddP/j4/p4Uvhwcy9oYXz4+hZBPIRSp9HTRw8PDWpxf4onDMN5LWl5edn7m4yvAF8dSjlPpjS8fn0LIpxCKXJrbt28nUwY3NjZqdX6JJ6GDvsns9VP1rh98fOU+2b8o8R6y8eXjUwj5FEKRQpPSVNFnz57V8vyytbWV9LuYrh98fH//MFSOH5Yxvnx8CiGfQiiSxWL0sTRDnc8vMVV2ZmYmuaeDrh98fGktP9HtcW18+fgUQj6FUKRtJiYmkiiDS0tLzi///+f09LSxsLCQ3JdaXT/4+P6eMr4S3O+HZYwvH59CyKcQirTN5ORkEoVwf3/f+eXMT7xLmcrTQdcPPr7/TZSxss+XsSai8eXjUwj5FEKRyrw/GO8OOr/88Cem0PY6hbSXD0+4fvDx5bEeYbdP/40vH59CyKcQilyYa9euJVEI48t9zi8X/xwfH/c0hTS2qe3HxzcYX9nnzFgP0fjy8SmEfAqhSN8ZGxtLohC2vizq/HLxT2yftbW1rp642n58fIPzxRO6nL40anz5+BRCPoVQJNkPyqysrDi/dOjrdA20mGpq+/HxDc4X7/Dl9KVR48vHpxDyKYQiyS5Iv7Oz4/zShS+mkF72XmHrfUzbj49vcL4UPizTzS9+jC8fn0LIpxCKJPuF0a+//tr5pUtfTCGNZTouW8vR9uPjG5wvns6Vfe7c3Nw0vnx8RRRCG5BvGD7FQ1LN3bt3S72h+cUvftF4+vSp80uPvrghbPehCduPj29wvvilTNmFcGtry/jy8RXwoxDyKYRiyYkS8x//8R/OL3364olgFMHzTwxsPz6+wfp6XRKmqMQsAePLx6cQ8imEIj1nZGSk9EL4n//5n54QFuA7OjpqfvXw5OTE9uPjG5Kv3bRthdD+x6cQGhA+hVCyyPXr10svhB988IFCyMfHl6Wvm6VgBpF4Qml8+fgUQj6FUEQhdP7j4+MrwRfv8JV9DjW+fHwKIZ9CKJJ1Ifz8888VQj4+vix9na4LqhDy8SmEBoRP+RCFsE2++OILhZCPjy9L3+HhYenn0FiX1Pjy8SmEfAqhSNZPCJ1f+Pj4FMLeEgbjy8enEPIphCKmjDr/8fHxDdl3enqqENr/+BRCA8KnEIpCqBDy8fHV1acQ2v/4FEIDwqcQikKoEPLx8SmEpSQ+bGN8+fgUQj6FUCTbQvhf//VfCiEfH59C2GNi6Qvjy8enEPIphCLZFsKdnR2FkI+PL1vfwsKCQmj/41MIDQifQih5ZnR0tPRCuLm5qRDy8fFl61taWlII7X98CqEB4VMIJd+UXQj//d//XSHk4+NTCBVCPj6F0IAohCJ1LIT/9m//phDy8fEphAohH59CaEAUQpEyMjk5WXop/O///m/nFz4+PoVQIeTjUwgNiEIoMuzcvn279EL4wQcfOL/w8fEphAohH59CaEAUQpFhZ2JiovRC+MYbbzi/8PHxKYQKIR+fQmhAFEKRYWd8fLz0Qjg9Pe38wsfHl6Vvbm5OIbT/8eVeCG1AvmH4FA9JNdeuXSu9EEb29/edX/j4+LLzpbB0j/Hl4+svCiGfQii+NJpAIVxbW3N+4ePjUwi7zIMHD4wvH59CyKcQiuT/pdGYduX8wsfHpxB2l729PePLx6cQ8imEIv3l5s2bSTwlPD4+dn7h4+PLxnd0dFT6eXN2drb5lPDk5MT48vEphHwKoUhvGRsbS6IQbmxsOL/w8fFl44uncymcO1sf54r3CdsVQ+PLx6cQ8imEIkkvPXHRtFHnFz4+PoWwmGJofPn4FEI+hVDkBxkdHU3i/cGzOT09dX7h4+NTCAuaSmp8+fgUQj6FUOTC3Lhxo3H37t3kbmLiBsb5hY+PLwff7u5usoWwlfn5+WZxNb58fAohn0Io0szIyEhyTwXPZmFhwfmFj48vC19MzUy9ELaysrLyvRkYxpePTyHkUwilph+PSfGpYLtpo84vfHx8CmFxmZmZ+d4sDOPLx6cQ8imE4sMxSaZ1w+L8wsfHpxAWn6Wlpb6fFtr/+BRCA8KnEIopogOd2uT8wsfHl7pvfX09y0JYxNNC+x+fQmhA+BRCySDXrl1rTE1NZXmz8uzZM+cXPj6+pH2Li4vZFsKzTwvjfGt8+RRCA8KnEIr3BZNKfL3P+YWPj08hHM7Twv39fePLpxAaED6FUKqS8fHx7G9QYtqo8wsfH59COLxsbGwYXz6F0IDwKYSSe27evFmZ31g7v/Dx8SmEaU4htf/xKYQGhE8hlARz69atSt2YFD1t1PmPj4+vSF/VymArc3NzjePjY/sfn0JoQPgUQlEGy83q6qrzCx8fn0KY4HuF9j8+hdCA8CmEogwOPNPT084vfHx8CmHJMzXsf3wKoQHhUwhFGSwtBwcHzi98fHwKYYnZ2tqy//FVuxDagHzD8Ckuogz29sW7XtbHcv7j4+MbtO/w8LA2hfCiKfz2P74q+RRCPoVQlMHEEl/uiyeDzi98fHwKYZql0P7HpxAaED6FUCwtUXhmZ2cbDx48cH7h4+NTCBMvhfY/PoXQgPAphGLR+UKzubnZODk5cX7h4+NTCDMohfY/PoXQgPAphFJCxsbGKjk99OjoyPmFj48vO198gTMWcq9jKVxbW7P/8SmEBoRPIZRh5tq1a427d+9WanroVQvPO7/w8fHl4Ds9PW2sr683l8qpUymMD3/Z//gUQgPCpxDKEDIyMtKYmpqqzNqCF00PdX7h4+PL3RfntXgPen5+vjalsN06hfY/PoXQgPAphFJgJicnK3HjsLy83HZ6qPMLHx9flXx7e3vNd+3qUAr39/ftf3wKoQHhUwhlUJmYmKjE9NC4OXJ+4ePjq5svnhrGrIg4D1a1EM7MzDSOj4/tf3wKoQHhUwil6Fy/fr0S00OdX/j4+Pj+1JxeGR/SqmopfPbsmf2PTyE0IHwKoRT53mDOH5GJqVLdTA91fuHj46uLL86NVfwIzcLCgvHlUwgNCJ9CKHV/bzA+ptDL9FDnFz4+vjr6qvYRml6/PGr/41MIDYhCKHImN27cyHK60Pb2tvMLHx8fXw+p0kdoevnIjP2PTyE0IAqhyD8yOjqa3VTRWJg51uFyfuHj4+PrLzGdNPdiGL8gjGuC8eVTCA0In0IoNZgqGtOdnF/4+Pj4ivVFoVpbW6vN+4T2Pz6F0IAohCKZTRWNi/35z4w7v/Dx8fEV6zs8PGzOwsixFG5tbRlfPoXQgPAphFLFr4rGb60v+ry48wsfX7V8j5581fj5rz5uvPj6w45y7/6njSdffmP7DcAXS1bEVMzcSmGn6xM6fvkUQgOiEErtc+vWreymiDq/8PFV1xdl8LlXdho/+j//t6u88NqHtt+AfPGLuJWVlUpOHTW+fAqhAVEIxQL0GXwkIH5D7fzCx1cP39z2J12XwVa2H31hfAfoy+1pYSdTR40vn0JoQBRC8SGZxMtgJ9N+nF/4+KrjiymgvRbCmDpqfAfri4/OxNO3XErhVV8dNb58pRZCG5BvGD6lR9plfHw86Yv49PR04+DgwPmFj69mvufnP+i5EL787ifGd0i+XJaoWFxcNL58yfoUQj6FUErN1NRUJcqg8wsfX3V8T//yt57LYOSnb/zO+A7RF+9251AKY6qr8eVTCA2IQiiSydPBbsug8wsfX3V8v/79074KYcT4Dte3t7fXPG+nXAhnZ2cbJycnxpdPITQgCqFI6stM9FIGnV/4+Krje+X+Ud+FcOfwxPgO2Rfn7dRL4ebmpvHlUwgNiEIokvIi9L2WQecXPr40fFHEWh+EmXxzv+NidvbnZ+uP+y6E73z0pOttFP9OLFsRy1289Paj79Y0NL7VKYVhu+gpofHlUwgNiEIo3h1MaJ1Bxy8fX56+KH8XrR0YS0h04/vJ8sO+C2Enf2YrUfyivF60pqGF7qtXCi96Smh8+RRCA6IQincHE57K4/zCx5e+r10ZPFuuLnta+L1rVp9lMBJPKTt9KniVO0qh/a9apfDo6Mjxy6cQGhCFUDwdTCnLy8uOXz6+TH1XlcFOnty1for4oEwkPL08FWxXCuPLp/a/6pTCWC7D8cunEBoQhVBqmevXr2f15TfHLx9f2r5uyuBlTwtbP289PCmkEEbOvgPYzVPBixLTWIsshXXZ/+Lrozm8S+j8wqcQGhCFUGqT27dvJ3dh7vUjMs4vfHzl+nopg2dz7/6nP/DNvP9ZYYVw+9EXPT8VHHQprNP+l+o6hWdfU3B+4VMIDYhCKLXI6Oho5d4bdH7h4yvH128ZPPuu36MnX333341F5YsqhGenp/byVHCQpbBu+9/a2lrSTwmdX/gUQgOiEEotcvPmzaQuxvPz845fPr4Mfft//HMh5ers+36x9uAvdz4v7L8Z+fGrv2kWwX6eCg6qFNZx/1tYWEj2y9bOL3wKoQFRCMXHZDKeKur8wsc3XF8Ry0Lkniiv9r/ufKenp42ZmZnk3mF3fuFTCA2IQii1yNjYWFIX4a2tLccvH1+mvrqXwcjL735i/+vBt7+/n9xTwvjwjfMLn0JoQBRCqXxu3bqVzMU3fkP87Nkzxy8fX6a+It/z84SwfvvfyspKcktQOL/wKYQGRCGUSmdkZCSpi+/u7q7jl48vY1+8Q1jnMjh277feIezDF78QTG3qaJicX/gUQgOiEEplMz4+nsxFd25uzvHLx1cBX3zBs66F8Ne/f2r/69MXvxhM8ReVzi98CqEBUQjF2oMDzuHhoeOXj68ivlhgvm5lML6Gav8rxre0tJTMtSm+gOr8wqcQGhCFUCqbu3fvJnHBjYu/45ePrzq+WIuwTmUwvq5q/yvOd3x8nNRTwvgKqvHlUwgNiEIovi46xCk5jl8+vvx9dZo6Gu9O2v+K9aW0YH2sSWh8+UophDYg3zB8ipHF6FNZ68nxy8dXPV8d1iWM4mv/K953dHSUTCGcn583vnyl+BRCPoVQarEYffzm1fHLx1dNX9W/OhqF1/43OF8s+5BKKYyCanz5FEI7jEIolcno6GgSF9jp6enGycmJ45ePr8K++NhKlaeK2v8G50vpKeFFv7w0vnwKIZ9CKJabKGDRX8cvH1/1fVVcsL71VVHjO1hfKk8Jl5eXjS+fQmiHUQilOrl161YSF9i9vT3HLx9fDXxH3/618fz8BwMpZs+9stOYfHO/+S7f2cT/L/63QX9V1PgO1ndwcJDMjBbjy6cQ2mEUQqlM7ty5k+THZBy/fHzV9RU9dfTF1x823vnoyZWe+Gfiny3yz46Ca3yH54uPuqRQCqOcGl8+hdAOoxBK9hkZGUniwrq+vu745eOrke+XO58XUsZ+/OpvGtuPvujaFcWwqCeGZ5eZML6D98X7eylct7a3t40vn0Joh1EIJf9cv349+d+0On75+PL2Pf3L3xq//v3T5lPBl9/9pLDlJ1547cPGky+/6dkW/25Rlngvcub9zxorO3/oqaDa/zr3xcfHYspmFd4jNL58CiGfQiilZ2JiIvl3MRy/fHz5+HYOT5pP3+K9vZiaOXbvtwN5b6/fMthKlNVBrY8Yxtb7jFESHz35yv5XkC+Fj8sU8R6h8eVTCPkUQvFBmUu+Lur45eNL3xdF56W3HxX+Xt5V00SLKIOt7TfIj9xc9NGb2FY//9XHHf0d7H8XZ3d3txLrERpfPoWQTyGU0jM5OZn8ek6OXz6+NH1RBstY4mEQUzKLeqex6Kec9r/2SWHaaBRT5xc+hdAOoxBK1snhN6yOXz6+NH0xHXLYJSqerg1q+w1qeutliXcO7X+9+eIdvrKvX5ubm84vfAqhHUYhlHwzOjqa9HITjl8+vrR9w5wm2konS0v0uv3KeEoY7xfa/3rzpfC10cXFRecXPoXQDqMQii+MDvorbY5fPj6FsJVBbr94l1AhzGf/i9klOfxS0/jyKYR8CqEkmxs3bmQx3cbxy8enELaWdhj09hv2tFGFsD9fFLKyr2POL3wKoR1GIRRLTvSRvb09xy8fn0LYUWKdv0FvvyidCmE+x0cKy090ch0zvnwKIZ9CKJac6OOT3Y5fPj6FMBIL2yuE9r/vfel2ezvrL40aXz6FkE8hlNovOeH45eNTCBVC+1+vvng6l/OXRo0vn0LIpxBKrQvh/Py845ePTyHsOD9bf6wQ2v9+EIXQ+U8hNCB8CqH0mKmpqSw+1+345eNTCCM/WX448O33/PwHCmFmx0fZC9T3s/SE8eXrqhDagHzD8ClJFqUfZtbW1hy/fHwZ+4b9NC0SS0MMavvtHJ4M/e8T02Dtf/35lpaWSr2WxZ/v/MI3DJ9CyKcQSuUK4dbWluOXj08hLLRA9bP9Xnr7kUKY4fERv1ws81q2sLDg/MKnENphFEJRCBVCPr76+aLMDLtAxZTOp3/5W+Hb79GTr4b+d4ns//HP9r8+fXEtKft65vzCpxDaYRRCUQgVQj6+2vmimJXxlDDWIyx6+02+uT/0v8cvdz63/ymExpdPIeRTCEUhdPzy8eXti/f63nv8dfOJYXwJdOzebwdepuLPK2r7rez8YSgfxHn53U+a2+jXv3/a8VNO+9/VP4eHhwqh859CaED4FELJsRDGRdzxy8dXXV8Un3v3P238/FcfF/5F0pg6etV0y05+ii6D4YqnplH83np40rfR/qcQOr/wKYR8CqEohI5fPr7K+OJLnu989KTxwmsfFlK+onT1+hNTNosogTHddPvRF40nX35j/1MIjS+fQsinEIpCqBDy8fFd5YtSWOSC9d0sRxFP7Yp899H4KoTGl08htMMohKIQeoeQj4+vC98gFrWPYhhPDC96Py8KY/xvg/gITkyLNb4KofHlUwj5FEJRCBVCPj6+DnxRoIbxFc8of/Exl0H/Oc+9stOcCmt8FULjy6cQ8imEohAqhHw18MXNf+tDKd0mSkq7tJ5wVXn7xXp/UaDKWPNvkIl3Ih0fCqHx5VMI+RRCUQgVQr6K+6IIDrpcxLINnX6dMrftN4ipoqlkbvsTx69CaHz5FEI+hVAUwk6zsrLi+OXLyjeMMnj2C5qdrFWX0/Yb1lTRMlPEUhiOX4XQ+PIphHwKoQwlU1NTpV5Al5aWHL982fhiquOwy0UsZF6V7RfTbKteBlsL0Dt+h+vb3d1VCF0/FEIDwqcQSi+ZnJws9QI6Nzfn+OXLxlfG0614SliV7VfEuoO5JBald/wOzxevHyiErh8KoQHhUwglw0LY6UXU8cuXgu+ltx+VUi6umjaaw/aLd+vqUgaLnjrq+E2/EM7MzBhfPoXQDqMQSp65detW6YXw+PjY8cvnCdcl+fXvn2a9/eoyVXRQU0cdv1f/xOsHObz+YHz5FEI+hVCSy8TEROmFcH9/3/HLl4Uv1emHqW+/Ok0VHcTUUcfv1T8LCwsKoeuHQmhA+BRC6SU3btzIYukJxy9f2b4yn3LF2oS5br8oRHUtg50+4XX89u8r+zq2trZmfPkUQjuMQih55vr166VfSDv5zarjl69s38rOH5Kdepjy9ouP4tS9EM68/5njd4C+eO0glzV1jS9f34XQBuQbhk9JqldGR0dLv5BGHL98qfvipr7MUpHr9nvulZ3aF8JYu9LxOzhfCktObG9vG1++ofgUQj6FUCq5OH3k4ODA8cuXtO+nb/yu1FKx/eiLLLffIL7MGiXzx6/+ZiBPYoc9do7f/n2bm5ulX8P29vaML59CaIdRCMXSE4P87arjl69sX9lTH2PKao7b78mX3xRatOJ9yvhvRoosha33NGOpiCK9l42b47cY3+LiYvK/1DS+fAohn0Iolp64InFBd/zypeo7+vavSU87TH37xTqK/ZasKOTvPf76e77JN/cL275vPTz53jYo4mM4RZRBx+/VyeG1B+PLpxDyKYRi6YkOcnJy4vjlS9IXX4ksuxC++PrDrMe3n1IYT+/i3z/vK3Kx+4sWke/naWFRZdDxe3liqmbZ1675+Xnjy6cQ2mEUQvGl0SISHwZw/PK1+4mndFHMzhaDYflSWTqhjPGN5TaKegcuxi7KXS9PBS/yvfPRk8K27WU/3Y5/kWXQ+eXyrK+vl37tWl5eNr58CqEdRiGUvDMyMpJEIVxdXXX88l14M37+/b34wMtla7sV7eumxAwyj558NZTxjffzYorq+S+ExhTNKIj9ju/L737S9VPBi8Y3tscwlvVoPS0cu/fbjqaeOn6H55udnS392hUftTG+fAqhHUYhlOxz586dpKeNOn7r5+tkimEsBXFRaSja10kRGEbiidigxzeK9mUfa4mS2O0TsIt+2pXCdk8F241vEctahKWTn9jXLlt+pPUeouN3OL6jo6Mkrlv9fGHU+PIphHwKofiwzLk8ePDA8cvX1ftmUdbOPy0sfCHgRNazi3fmBjW+V5WdfqZFtvs5XwoveyrYbnzj3cp+t+svdz7vujSf/yXB2Y/SOL8Mxxdfp079/Xfjy6cQ8imEkk3Gx8eTuLC2+9qo47c+vl4/PhJlZhC+eH8ulUIYUzYHMb4XFZwiS+FlP/E0MKYFX/RRl072v5ja2u92vWz68WUFOkpglMnzdueX4fhSmC4aBuPLpxDaYRRCqURGR0eTKISRmAbk+K2nr9/lCeLfjZvzIm337n+aTCGMqZxFjm+3TwV7LYWD3P/iz+93u3byVNLxm5Yv1v1L/d1348unEPIphJJdpqamkr3AOn6r7ytirbqrplb2kiKeQA36S6PDfCrYSykc5P7X7xPcKNmO3/x8cZ1I+TUH48unEPIphJJlbt68mcQFdnp6+gfvZDh+q+0rsgy28sJrH/b0RczzKeIdtSJz0RIQw34q2G0pHPT+1+/6jo7fvHxxfYjrRKozWowvn0LIpxBKthkbG0tm2uj5z3g7fqvriyUOii6DRT4tTKkMRmIKa6/j289C6/2UwkHvf1H++9k/HL95+VL5mEwR7w8aXz6FkE8hlORy9+7dJJ8SOn6r6Ysy2M/N/KCfFha1zl2ReentRz2Nb7eLqxdZCge9/8U26WcpD8dvXr4UPiYTWV9fN758CqEdRiGU6uX27dtJPiV0/FbPN6wy2M/TwigLqRXCmOLYzfgO+qlgJ6Vw0PtfPx+WidLv+M3HF+/spXKN2t3dNb58CqEdRiEUy08M6ymh47davjLKYC9PC6NAplYIL/qwTNlPBa8qhcPY/7p9ShgL2reMjt98fKk8HYzrk/HlUwgNiEIolczIyEgyhfDsF0cdv9XxlVkGu31amNoHZVo5X2hTeCp4WSkc1v4XT/viozudxPGbny+lp4PLy8vGl08hNCAKoZg2OqzEelOO32r4UimDnT4tjCUJUiyEMZW13fiW+VSwXSl0fPD164vZIqk8HSxquQnjy6cQ8imE4mujHWZxcdHxWwFfamXwqqeFKX5Qpt2HZVJ6KnhR3np44vjg68sX75Sn+DqD8eUbeiG0AfmG4VOIJKWvjbYSnxl3/ObrG8Q6g0UnfFGqcvG2SlZYU33XsZvF6x2/fO18p6enSV2P1tbWjC9faT6FkE8hlNotUn/2N7JFLADs/FKO7+V30y8srTw//wHrABIfcYmnro4Pvm59S0tLSV2P9vf3jS+fQmhAFEKpfkZHR5O6ALemjjp+8/MdffvXbEqLDDY//9XHjg++rnyxtENK16F4j9H48imEBkQhlNpkcnIyuVJY1NRR55fh+d57/LUyJG3XUHT88rXzxVTRmZmZpK5B8S6j8eVTCA2IQig+LpPAV0cdv/n4UvvqpSiEjt88fKlNFY3EqwvGl08hNCAKodQqU1NTyV2QY8pOv194c37xhFAUQsdvur6tra3krj2ttQeNL59CaEAUQqlVxsfHk3xK2O/7hM4vw/PFVzCVIWm3vIfjl+98Dg8Pk7zu7O3tGV8+hdCAKIRSv4yMjCS3BEUrq6urjt9MfDPvf6YQ1TzxldFYi9LxwXdZYkpmau8NRubn540vn0JoQBRCqW8mJiaSLIT9fGTG+cU6hDLcvPPRE8cH36WJVwGieKV4rXnw4IHx5VMIDYhCKJ4SploKz16onV/S9cWi74pRPTP55r7jg+/KxKsAKV5j4r1148unEBoQhVA8JUz4KWEvpdD5pRyfL47WL8/Pf1DYVFHHb3V98QpALtcX48unEBoQhVA8JaxAKXR+Kc9n6mi9El+ZdXzw5VoGzz8dNL58CqEBUQjFF0cTLoTdlELnl/J8po7WJy+/+4njgy/bMtjummJ8+RRCA6IQinUJK1AKnV/K9Zk6Wv2M3ftt82NCjg++XMvg2S+LGl8+hdCAKIQi/8j169eTL4SR9fV155fEfaaOVju//v1Txwdf26+Jpl4Gz647aHz5FEIDohCKnMvt27ezKIXLy8vNGw/nlzR9po5WN7HupOODL7elJc4mvnhqfPkUQgOiEIq0yejoaPIfmDk75efg4MD5JVHfL3c+V6AqPFXU8cF3NnEujo+05HDtODo6Mr58CqEBUQhFcl6G4mymp6d9Njxh30/f+J0iVdGpoo4PvlbiHBzn4hyuGZubm8aXTyE0IAqhSCe5c+dONqUwEu+stKaQOr+k4zv69q+N517ZUaYqOFXU8cGXy/uCZ5eZaPeqgfHlUwgNiEIoci7Xrl3LqhC2LvbxoQDnl7R89+5/qlBVcKqo46PevpgimsP7gp18SMb48iVTCG1AvmH4FB2p6tTRdk8LnV/S8Jk6mnd2Dk8cH3zf/WxtbWV3XdjY2DC+fMn7FEI+hVBMHS343cLt7W3nl0R8MXX0+fkPlKsMM7f9ieODr/lzeHjYmJuby+56EOZnz54ZXz6F0IDwKYRS9a+OtptGuru76/ySgK8KXx2NJ53xLt0r94+aH1i5KCs7f2iWqMk39xs/fvU3Wf99X3jtQ8cHX+P09LSxtLSU7XUgiqzx5VMIDQifQih9ZHx8PNsbgbPrTnXy/ojzy2B9uU0djXfnogBe9HXNTrffoydfNUtiFMQqTRV1fFTfF8szrK2tZX3u73SqqP2PTyE0IAqhyBW5detW9qWw9cTw/DIVzi/D88WHSXKYOvryu590VQI73X5RDuPpYQ5PDq+aKur4qK4vimBOXw9tl4WFBePLpxAaED6FULxP2P4dw1iP6rIFip1fBuN77/HXSRfBeN9xGNsvnhqmuiRHJ1NFHR/V88UsiuXl5Uqc42dmZppTXY0vn0JoQPgUQvE+YUfTSeOpYbsvkzq/FO/72frjpArQT5Yf9vxEsJ/t9+TLb5pP4nKcKur4qIYvfikWH+CK2RNVOq/v7+8bXz6F0IDwKYRifcLuE78dj5ujs08OnV+K96U0dTQ+EFP29osCFk/lcpoq6vjI19cqgbmtI9hpYlkM+x+fQmhA+BRC8ZGZQt43jPdo4iulx8fHzi8F+956eFJq8YnpmlHEUtl+8bTwpbcflbpN4t1G19/q+WL2Q5zH1tfXK1sCW4mP4Nj/+BRCA8KnEMoQcvPmzVqUwvOJT6/HDUf8BjqmJMXnzLt9T8X573+fEpb5jlx84CXF7VfmFNJunw66/qbnOzg4aL4LGO9Ix4yHqk0FveojMp2uN2j/41MIDYhCKOLLowO9KYni2C7xzmKRuejPyOH8F+/slVUG42lcyteP+OBMGdsmnlCmen2LclPU8dFPhnH8XpTWL6LO5uz/Hh9RqfN5N/7+/ZZB96d8CqEBUQhFlMLKJPXzX5TB+JBL2WUw5etHWaUw1XcIozw5tqVdGSxqWr/7Uz6F0IAohCJdZmRkpFLLUSiExZ//YhmHWGoiPt4SC9PHYu9lvTN4vgymfv0o853CF19/2Pj5rz5u3Lv/aWP70RelX99iCqRjWwZZBt2f8imEBkQhFFEKFcI+z39RHKJARJGIQpHDUgqpXz+iRKeyDeOjM5Nv7jefIr7z0ZPme5jD2n7xURTHtpxPvMft/o9PITQgfAqhKIUy5EIYRSAKQRSDKAhRFFJdbD4SJTXX60dKS3S0S5TWmfc/a345tt/1HC9bKsGxLWcT68e6/+NTCA0In0IoSqEMuBDGU794n6311C+mXqZcTi6a+pj79SOm3Oa0zSPxjujP1h83pwpHSYypw/1uP8e2nC2D7v/4FEIDwqcQSqKl0Idm8i2E+3/883dP/VJZKL3ftJaXyP36EeUq97GIJ51nnybG089utl/V19CTqzM9Pd2cPuz+j08hNCB8CqH4+qgUWAjjxjyld9WG+cXMXK4f8YStauMTBTGefna6/XxpVBmMdRbd//EphAaETyEUi9dLwYWwjCUgyvqqaM7Xj5ff/aRy4xQ5Wwov2xa+NKoMuv/jUwgNCJ9CKJllfHzczUzihTDe8apiyYh3Hqt2/ajiU8LWk0KFUNolpgrHR4Xc//FVvhDagHzD8CkoUkauXbvWuHv3rhubIaab80nqXwjtNUV8xCTF60e831nF8Yqv1l61/WKJAcd3vbK0tNR49uyZ+z++WvgUQj6FUCqd0dFRXyBNtBBWsVzE+5BVvX5EcarimLXe91QIpZW1tTX3f3wKoQHhUwjFF0hFIew+8QXLKl8/clv6o6hCeHx87PiuSeJLou7/+BRCA8KnEEqF3ys0hVQhTGG6aK7XjypOG+2kEMaP47vamZubaxZ/9398CqEB4VMIxRRSUQh7yti931b++nHv/qcKoVQuKysrl74v6P6PTyE0IHwKoVQwExMTboQUwkITSzNU/fqxc3iiEEplMjMz0/EUUfd/fAqhAeFTCKWiXyH1tFAhLCqxjEYdrh8KoVTlK6Knp6fu//j4FEI+hVDE00KFsJj8+vdPa3H9eOG1D2tZCONpkmO8Gk8FHzx44P6Pj08h5FMIRX74buHk5KQbJoVQIbzC9+LrD2tZCOOJkmM8/3cF+3kq6P6PTyE0IHwKodQgY2NjjampKTdPCmHXqcv1QyGU3DI7O9vY3993/8fHpxDyKYQinefGjRuWqFAIFcILEgVKIZQcMj093djc3HT/x8enEPIphCK9L2gf7xcqhgqhQqgQKoR5ZXV1tXFycuL+j49PIeRTCEUUQ4VQISzy+vHS2498ZVSSLoJHR0fu//j4FEI+hVBkcMXQO4bt8/Tp09oWwqNv/+odQoVQEiuC7v/4+BRCPoVQZCAZHx+3huEF+fbbb31lVCFUCGWo7wienRrq/o+PTyHkUwhFhr64/a1bt0wn/Ue++eab2hbC9x5/XYvrx3Ov7CiEUmrm5+ebawm6v+LjUwj5MvMpD1L16aTx1PD27du1vlH7n//5n9oWwlfuH1X++vHky28qN26dFMJnz54pYgk8DYxpoQcHB+6v+PgUQj6FUCT9Re5j2Yo6Tin94osvalsIf/rG7yp//Xjnoye1LISHh4dKWYnvBu7u7rq/4uNTCPkUQpH8nxzWYVppnb8y+vz8B5W/fvz8Vx8rhDLQzMzMNNbW1polsJN3A91f8fEphHwKoUh27xzG08OqFsQ6F8JuPyyT4/Xjhdc+rGUhjHKirA0uscbj1tZW4/j42P0VH18ZhdAG5BumTyEQ+WFBjCeIN2/ebExOTmZfErv6JVEFC2E8Qavq9SOW1ajimLXe/bxsW8SXLBW3YjI7O9tYXl5ubtO9vT33V3x8CfgUQj6FUCTBaabXr19vPkmMdQ/jaWKUxRzWP+zmJ6ZYVq1cxBc4q3r9iOJUxUL4y53Pr9x+8R6bMtd98VtcXGysr683tre3m+Wvmymg7q/4+BRCO4xCKCJXfLgmSmM8XYzSmEJiylc3Py+/+0klC8bKzh8qef0Yu/fbSo5XPPm8avvFEgfxRKubxPFQZLr984vwbWxsNKdzns/Kysr3/rnYPlH4IpctDu/+io9PITQgfEqhSEXTy0/ciFfxKWEs3F6168dbD08qWQZn3v/M/QEfH59CaED4FEIRKaMQtopGFUvh9qMvKnX9qOLTwXhC7f6Aj4+PTyHkK8nnBlpEGTz7pDBuzn/86m8qUzbia5xVuX5U7elgrBcZfyf3B3x8fHwKIZ9CKCIJFMLz55d4unbv/qfNL3bG9Mtci0f8HXK/fjz9y9+yfYIbTzV/tv64+TGc9x5//d27gu4P+Pj4+BRCvkR8bqRFlMFOzy87hyeNdz560lwzLkpiDk8T44ujj558lfX1IwpVLk/94ilzfDG0m7Ug3R/w8fHxKYR8JfvcUIsog72eX558+c13TxNfevtRkk8TL/vATOrn53iqltr2jF8ExDaNXwyEb/+Pf3b95ePj41MI+XL3ubEWUQiLPL/E08RY+iGmCsaTo7KnPLZbrD7l83Nsw7K3WxS/KPpR+KP4xy8AXH/5+Pj4FEI+hVBEEkhu5794Fy6mEpa19uFFaxOmuv2ieJUxJTf+zNhOUUZdf/n4+PgUQjtMzXxusEXyKoM5n//iPbMUSmGK2y/KYHwhtYwyeP4JoOsvHx8fn0Joh6mZz422SD5lMPfzX1nTIM+WwtS2X1llMBLvBLr+8vHx8SmEBoTPDbdIJmUw5/NffIikzHfjWuUnpe0X0zTL/HJrvCvo+svHx8enEBoQPqVQJJMymPP5Lz40U/bXMiff3G++15jC9ounlrFERtnbpNN3B11/+fj4+BRCvpr43ISLpFkEcz6/lPX+YLuF03tdM6+I7RdTRKOYprI9YrpqN+8Ruv7y8fHxKYR8NfC5IRdJswzmeH45+vavpS+lcFFi8fewDXP7xVIOKTwV7HSJDtdfPj4+PoWQr+Y+N+ci6RTBXM8vKUwVvSyxJEY/xbDT6aFlvivYSWLNQddfPj4+PoXQDsOnGIokWgRzPL+kNFX0qkRxfevhSdfvGF72wZh48pbiE8F+lqBw/eXj4+NTCPlq7HPzLlJeEczt/JLqVNFOp5NGme3kXcOzBTCeBMaXO1N/GtjP1FHXXz4+Pr6CCqENyJe7zw29SPep0/mlrLX1BpF4yvfi6w8vzE+WH1bm7xm5qgS7/vLx8fEVE4WQj4+Pj6+yvljzr0olqU6Jr7BeNm3W8cHHx8enEPLx8fHx8bX9iamTilXemXn/M8cHHx8fn0LIx8fHx8fX/U+VporWOe89/trxwcfHx6cQ8vHx8fHxdf7zyv0jZaoiiQ8CXTR11PHBx8fHpxDy8fHx8fH94Gf/j39WpCqW+Nqq44OPj49PIeTj4+Pj47vyp2pf25SLp446Pvj4+PgUQj4+Pj4+vu/9mCpan6mjjg8+Pj4+hZCPj4+Pj++7n1i3TnGqz9RRxwcfHx+fQsjHx8fHx9f8iSdHsW6d0lSfqaOODz4+Pj6FkI+Pj4+Pr/kT69UpS/WaOur44OPj41MI+fj4+Pj4TBWt6dRRxwcfHx+fQsjHx8fHV3OfqaL1zb37nzo++Pj4+BRCPj4+Pr46+0wVrW+ee2Wn8ejJV44PPj4+PoWQj4+Pj6+OPlNF5cXXHzo++Pj4+BRCPj4+Pr46+kwVlcjKzh8cH3x8fHwKIR8fHx9fnXyeDkork2/uOz74+Pj4FEI+Pj4+vjr5frnzuTIkhU4bdfzy8fEphAaEj4+Pj08hFIXQ8cvHx6cQGhA+Pj4+vpR9+3/8szIkpozy8fHxFVEIbUA+Pj4+vhx9P371NwqRNN8ndXzw8fHx9f6jEPLx8fHxZenbOTxprkWXemF56e1Hje1HXzTmtj9J3hvTL9/56Enzy505fMX15Xc/cXzw8fHxKYR8fHx8fHX1pVwKX3jtw6bvrDeKVqrlKp64nrU+/cvfGjPvf1aLMuj45ePjUwgNCB8fHx9fpr4US2E8DWz7rkaiBeve/U8vHN+Ykpna08J46ur44OPj41MI+fj4+Pj4kiqF8ZQtpodeZo1pmSkWwvPusz8pPS2MMuj44OPj41MI+fj4+Pj4kiqFP//Vx40nX35zpTP+uRQLYSfjW/bTwlYZdHzw8fHxKYR8fHx8fHxJlMJOngqeTUzNTP39wcvGt6ynhWfLoOODj4+PTyHk4+Pj4+MrvRR2+lTwbKI85rCW31U/w3xaeL4MOj74+Pj4FEI+Pj4+Pr5LS+Hz8x8k81Qw9Q/LXPQRnE5+hvG08KIy6Pjg4+PjUwj5+Pj4+Pguzf4f/zyQUtjLU8HziSUpUiqEsfZgP+M7qKeF7cqg44OPj49PIeTj4+Pj47vSV2Qp7Pep4NnEFM2UCuGjJ1/1Pb5FPy28rAw6Pvj4+PgUQj4+Pj4+vo58RZTCKDr9PhU8m5iimUoZjPctixzfeFrY7/a+qgw6Pvj4+PgUQj4+Pj4+vo59vZbCmAYZBadoX0oflol1EYse33ha+LP1xwMrg44PPj4+PoWQj4+Pj4+vK1+3pTCeCkaxGYQvpmimUgjjnchBje97j7/uapt3WgYdH3x8fHwKIR8fHx8fX9e+Tkph/O+tp4KD9A3yK6jdZGXnDwMd306fFnZTBh0ffHx8fAohHx8fHx9fT74ohe2+iBnF5exTwUH6fvrG75IohO0+lFP0T3zJtN36kO2eUjo++Pj4+BRCOwwfHx8f30B8MZ3xlftH3yWK4jB9g16/r9MMc3zjwzzxRDI+qhO5d//TC79w6vjg4+PjUwjtMHx8fHx8lfa99fCk9DIY6yEaXz4+Pj6F0IDw8fHx8fEN2RdPJMsuhLEeovHl4+PjUwgNCB8fHx8fXwm+sgthTNs0vnx8fHw1L4Q2IB8fHx8fXzm+mLJZZiG86GuqxpePj4+vXj6FkI+Pj4+PryRfLLVQZiFs90VV48vHx8enEBoQPj4+Pj6+AftiymZZZTDWQTS+fHx8fHwKIR8fHx8fX0m+WAOwrEIY6yAaXz4+Pj4+hZCPj4+Pj68kX6zLV1YhjLUXjS8fHx8fn0LIx8fHx8dXou/Hr/6mlEIY6yAaXz4+Pj4+hZCPj4+Pj69E34uvPyylEMY6iMaXj4+Pj08h5OPj4+PjK9FX1odljC8fHx8fn0LIx8fHx8dXsu+dj54MvQz+bP2x8eXj4+PjUwj5+Pj4+PhS8A17gfrLFqQ3vnx8fHwKoQHh4+Pj4+Mbou/Rk6+G9nGZqz4mY3z5+Pj4FEIDwsfHx8fHN2RfLEHx0tuPGs+9sjOQIviT5YcdPRk0vnx8fHwKoQHh4+Pj4+Pj4+Pj4+NTCA0IHx8fHx8fHx8fHx+fQmhA+Pj4+Pj4+Pj4+Pj4FEIDwsfHx8fHx8fHx8fHpxAaED4+Pj4+Pj4+Pj4+PoXQgPDx8fHx8fHx8fHx8SmEBoSPj4+Pj4+Pj4+Pj08hNCB8fHx8fHx8fHx8fHyJFkIbkI+Pj4+Pj4+Pj4+Pr54+hZCPj4+Pj4+Pj4+Pj08hNCB8fHx8fHx8fHx8fHwKoQHh4+Pj4+Pj4+Pj4+NTCA0IHx8fHx8fHx8fHx+fQmhA+Pj4+Pj4+Pj4+Pj4FEIDwsfHx8fHx8fHx8fHpxAaED4+Pj4+Pj4+Pj4+PoXQgPDx8fHx8fHx8fHx8SmEBoSPj4+Pj4+Pj4+Pj08hNCB8fHx8fHx8fHx8fHwKoQHh4+Pj4+Pj4+Pj4+NTCA0IHx8fHx8fHx8fHx+fQmhA+Pj4+Pj4+Pj4+Pj4FEIDwsfHx8fHx8fHx8fHpxDaYfj4+Pj4+Pj4+Pj4+BRCPj4+Pj4+Pj4+Pj4+PoWQj4+Pj4+Pj4+Pj4+PTyHk4+Pj4+Pj4+Pj4+PjUwj5+Pj4+Pj4+Pj4+Pj4ui+ENiAfHx8fHx8fHx8fH189fQohHx8fHx8fHx8fHx+fQmhA+Pj4+Pj4+Pj4+Pj4FEIDwsfHx8fHx8fHx8fHpxAaED4+Pj4+Pj4+Pj4+PoXQgPDx8fHx8fHx8fHx8SmEBoSPj4+Pj4+Pj4+Pj08hNCB8fHx8fHx8fHx8fHwKoQHh4+Pj4+Pj4+Pj4+NTCA0IHx8fHx8fHx8fHx+fQmhA+Pj4+Pj4+Pj4+Pj4FEIDwsfHx8fHx8fHx8fHl4zv/wEpRepwqQVGSQAAAABJRU5ErkJggg==" vertex="1" parent="1">
          <mxGeometry x="164.49" y="380" width="76.02" height="50" as="geometry" />
        </mxCell>
        <mxCell id="EOrUfLX56-fCI15zJVo0-24" value="" style="endArrow=classic;html=1;rounded=0;entryX=0;entryY=0.5;entryDx=0;entryDy=0;" edge="1" parent="1" source="EOrUfLX56-fCI15zJVo0-11" target="EOrUfLX56-fCI15zJVo0-23">
          <mxGeometry width="50" height="50" relative="1" as="geometry">
            <mxPoint x="330" y="400" as="sourcePoint" />
            <mxPoint x="380" y="350" as="targetPoint" />
          </mxGeometry>
        </mxCell>
        <mxCell id="EOrUfLX56-fCI15zJVo0-25" value="Upload service" style="text;html=1;strokeColor=none;fillColor=none;align=center;verticalAlign=middle;whiteSpace=wrap;rounded=0;" vertex="1" parent="1">
          <mxGeometry x="159" y="420" width="87" height="30" as="geometry" />
        </mxCell>
        <mxCell id="EOrUfLX56-fCI15zJVo0-26" value="" style="endArrow=classic;html=1;rounded=0;exitX=1;exitY=0.75;exitDx=0;exitDy=0;entryX=-0.023;entryY=0.617;entryDx=0;entryDy=0;entryPerimeter=0;" edge="1" parent="1" source="EOrUfLX56-fCI15zJVo0-23" target="EOrUfLX56-fCI15zJVo0-22">
          <mxGeometry width="50" height="50" relative="1" as="geometry">
            <mxPoint x="330" y="390" as="sourcePoint" />
            <mxPoint x="380" y="340" as="targetPoint" />
          </mxGeometry>
        </mxCell>
        <mxCell id="EOrUfLX56-fCI15zJVo0-27" value="Queue request" style="text;html=1;strokeColor=none;fillColor=none;align=center;verticalAlign=middle;whiteSpace=wrap;rounded=0;" vertex="1" parent="1">
          <mxGeometry x="377.16" y="524" width="95" height="30" as="geometry" />
        </mxCell>
        <mxCell id="EOrUfLX56-fCI15zJVo0-29" value="" style="shape=image;verticalLabelPosition=bottom;verticalAlign=top;imageAspect=0;image=data:image/png,iVBORw0KGgoAAAANSUhEUgAAA4QAAAJQCAYAAADWlqq2AABPyUlEQVR42u3dP2hl55038Owu6gQ2000T1KgbQ1A1hWFSTaMmTCXcjKuFVFIR9KpYsECYUSEcxHqFERgLrV3IChhkdTOQF2SF2DtIYRgLCzsRIzsrry17AmGSIsV9399NrleWdaX759x7nuecj+Bb7Mb2fOY8599X5znn+VGj4J8//elPhYaPj4+Pj4+Pj4+Pj49vML4fGRA+Pj4+Pj4+Pj4+Pj6F0IDw8fHx8fHx8fHx8fEphAaEj4+Pj4+Pj4+Pj49PITQgfHx8fHx8fHx8fHx8CqEB4ePj4+Pj4+Pj4+PjUwgNCB8fHx8fHx8fHx8fn0JoQPj4+Pj4+Pj4+Pj4+BRCA8LHx8fHx8fHx8fHx6cQGhA+Pj4+Pj4+Pj4+Pj6F0IDw8fHx8fHx8fHx8fEphAaEj4+Pj4+Pj4+Pj49PITQgfHx8fHx8fHx8fHx8CqEB4ePj4+Pj4+Pj4+PjUwjtMHx8fHx8fHx8fHx8fAqhHYaPj4+Pj4+Pj4+Pj08h5OPj4+Pj4+Pj4+Pj41MI+fj4+Pj4+Pj4+Pj4+BRCPj4+Pj4+Pj4+Pj4+PoWQj4+Pj4+Pj4+Pj4+Pr+tCaAPy8fHx8fHx8fHx8fHV06cQ8vHx8fHx8fHx8fHxKYQGhI+Pj4+Pj4+Pj4+PTyE0IHx8fHx8fHx8fHx8fAqhAeHj4+Pj4+Pj4+Pj41MIDQgfHx8fHx8fHx8fH59CaED4+Pj4+Pj4+Pj4+PgUQgPCx8fHx8fHx8fHx8enEBoQPj4+Pj4+Pj4+Pj4+hdCA8PHx8fHx8fHx8fHxKYQGhI+Pj4+Pj4+Pj4+PTyE0IHx8fHx8fHx8fHx8fAqhAeHj4+Pj4+Pj4+Pj41MIDQgfHx8fHx8fHx8fH59CaED4+Pj4+Pj4+Pj4+PgUQjsMHx8fHx8fHx8fHx+fQsjHx8fHx8fHx8fHx8enEPLx8fHx8fHx8fHx8fEphHx8fHx8fHx8fHx8fHwKIR8fHx8fHx8fHx8fH1/3hdAG5OPj4+Pj4+Pj4+Pjq6dPIeTL3vejH/1IRLqM8wsfHx8fHx+fQsiXrc8NvUj55dD5j4+Pj4+PTyE0IHxD9bl5F0mnHDr/8fHx8fHxKYQGhG8oPjfqIukVQ+c/Pj4+Pj4+hdCA8A3U58ZcJN1S6PzHx8fHx8enEBoQvoH53JCLpF0Mnf/4+Pj4+PgUQgPCV7jPDbhIHqXQ+Y+Pj4+Pj08hNCB8hfrceIvkUwqd//j4+Pj4+BRCA8JXmM8Nt0hepdD5j4+Pj4+PTyE0IHyF+Nxoi+RXCp3/+Pj4+Pj4FEIDwte3zw22SJ6l0PmPj4+Pj49PITQgfAqhSE3j/MfHx8fHx6cQGhC+vuKmWkQpdH7m4+Pj4+NTCA1IDX1upkUUQudnPj4+Pj4+hdCA1NDnRlpEKXR+5uPj4+PjUwgNiEIoIkqh8zMfHx8fH59CaEDq4nPzLKIQOj/z8fHx8fEphAZEIRQRpdD5mY+Pj4+PTyE0IHXxuWkWUQidn/n4+Pj4+BIqhDYg3zB9bppFqr1YvfMfHx8fHx9fZsvAGRA+hVBEUiiFzs98fHx8fHwKoR2mwj43yyIKofMzHx8fHx+fQmhAFEIRUQidn/n4+Pj4+BRCA6IQiohS6PzMx8fHx8enEBoQhVBEFELnZz4+Pj4+PoXQDlM9n5tkEYXQ+ZmPj4+Pj08hNCAKoYgohM7PfHx8fHx8CqEBUQhFRCF0fubj4+Pj41MIDYhCKCIKofMzHx8fHx+fQmiHUQhFRCF0fubj4+Pj41MI7TAKoYgohM7PfHx8fHx8CiGfQigiCqHzMx8fHx8fn0LIpxCKiELo/MzHx8fHx6cQ8imEIqIQOj/z8fHx8fEphHwKoYgohM7PfHx8fHx8CiGfQigiCqHzMx8fHx8fn0LIpxCKiELo/MzHx8fHx6cQ8imEIqIQOj/z8fHx8fEphHwKoYgohHx8fHx8fHxRCG1AvmH43CSL1CfOf3x8fHx8fPn4FEI+hVBEFEI+Pj4+Pj6F0IDwKYRuePkcH44PPj4+Pj4+hdCA8LnhLfRG1/7H5zgxvnx8fHx8fAqhAVEIa1wG7X98jhXjy8fHx8fHpxAaEIWwpmXQ/sfneDG+fHx8fHx8CqEBUQhrWgbtf3yOGePLx8fHx8enEBoQhVAhtP/xOWbsf3x8fHx8fAqhAVEI61QG7X98jhvjy8fHx8fHpxAaEIVQIbT/8TlujC8fHx8fH59CaEAUQoXQ/sfnuLH/8fHx8fHxKYQGRCFUCO1/fAqh/Y+Pj4+Pj08htMMohAqh/Y9PIbT/8fHx8fHxKYR2GIVQIbT/KYQKof2Pj4+Pj49PIeRTCBVC+59CqBDa//j4+Pj4+BRCPoVQIbT/KYQKof2Pj4+Pj49PIeRTCC1Mz2dheoXQ/sfHx8fHx6cQ8imECiGfQqgQ2v/4+Pj4+PgUQj6FMNVSaP/jc7wYXz4+Pj4+PoXQgCiENS2F9j8+x4r9j4+Pj4+PL6lCaAPyDcNXhZvcVowv3yB8jhH7Hx8fHx8fXxk+hZBPIRziTa/9j8+xYf/j4+Pj4+NTCA2IQigilY3zHx8fHx8fn0JoQPgUQhGF0PmPj4+Pj49PITQgfAqhiELo/MzHx8fHx6cQGhCFUEQUQudnPj4+Pj4+hdCAKIQiohA6P/Px8fHx8SmEBkQhFBGF0PmZj4+Pj49PITQgCqGIKITOz3x8fHx8fAqhHUYhFBGF0PmZj4+Pj49PIeRTCEVEIXR+5uPj4+PjUwj5FEIRUQidn/n4+Pj4+BRCPoVQRBRC52c+Pj4+Pj6FkE8hFBGF0PmZj4+Pj49PIeRTCEVEIXR+5uPj4+PjUwj5FEIRUQidn/n4+Pj4+BRCPoVQRBRC52c+Pj4+Pj6FkE8hFBGFkI+Pj4+Pj08h5FMIRUQh5OPj4+PjUwgNCJ9CKCIKIR8fHx8fX/0KoQ3INwyfm2SR+sT5j4+Pj4+PLx+fQsinEIqIQsjHx8fHx6cQGhA+hVBEFEI+Pj4+Pj6F0IDwKYQiohDy8fHx8fEphAaETyEUEYWQj4+Pj49PITQgfAqhiCiEfHx8fHx8CqEB4VMIRUQh5OPj4+PjUwgNCJ9CKCIKIR8fHx8fn0JoQPgUQhFx/uPj4+Pj41MIDQifQiiiEDr/8fHx8fHxKYQGhE8hFFEInZ/5+Pj4+PgUQgOiEIqIQuj8zMfHx8fHpxAaEIVQRBRC52c+Pj4+Pj6F0IAohCKiEDo/8/Hx8fHxKYQGRCEUEYXQ+ZmPj4+Pj08htMMohCKiEDo/8/Hx8fHxKYR8CqGIKITOz3x8fHx8fAohn0IoIgqh8zMfHx8fH59CyKcQiohC6PzMx8fHx8enEPIphCKiEDo/8/Hx8fHxdV8IbUC+YfjcJIvUJ85/fHx8fHx8+fgUQj6FUEQUQj4+Pj4+PoXQgPAphCKiEPLx8fHx8SmEBoRPIRzITa/9j8+xYf/j4+Pj4+NTCA2IQlizG137H5/jxPjy8fHx8fEphAZEIaxxGbT/8TlWjC8fHx8fH59CaEAUwpqWQfsfn+PF+PLx8fHx8SmEBkQhrGkZtP/xOWaMLx8fHx8fn0JoQBRChdD+x+eYsf/x8fHx8fEphAZEIaxTGbT/8TlujC8fHx8fH59CaEAUQoXQ/sfnuDG+fHx8fHx8CqEBUQgVQvsfn+PG/sfHx8fHx6cQGhCFUCG0//EphPY/Pj4+Pj4+hdAOoxAqhPY/PoXQ/sfHx8fHx6cQ2mEUQoXQ/qcQKoT2Pz4+Pj4+PoWQTyFUCO1/CqFCaP/j4+Pj4+NTCPkUQoXQ/qcQKoT2Pz4+Pj4+PoWQTyG0MD1fNX0Wprf/5ejb29trZnt7u7G5udnM4uJiM0tLS42ZmZnGv/7rv/aVubm55n+r9d9t/TnxZ7b+fOPLx8fHpxDyKYQKIZ9CqBDa/wbgi8L14MGDZglbXl5ulrJ+S94gMj093bSFMay7u7uNg4MD48vHx8enEPIphOWVQvsfn+PF+ObiOzk5aZa/VvGbn59Psvj1kvi7rK6ufvdU0f7Hx8dX60JoA/INw5f7DW7E+PINw1fnY8X+V67v6Oio+eQvilKVyl83JXF9fb25DWJb2P/4+Pjq4lMI+RTCIZZC+x+f48T+l4rvbAGM6ZV1K4BXZXZ2trltYhvF01L7Hx8fn0JoQPgUwr5Lof2PzzFi/yvTF9Mj4ylYlB2lr7cniJe9h2j/4+PjUwgNCF8Nbnb7uem1//FV/bhQCNPzxcdUPAUs/oM1sU1j29r/+Pj4FEIDwlfjG18RUQhT9CmB5ZdD9wd8fHwKoQHhUwhFFELnv6H5YiqjElh+OWxNK3V/wMfHpxAaED6FUEQhdP4bqO/Zs2fNj57EYu0KWVpZWFhojk2MkfsDPj4+hdCAKIRukkUUQufnwnyHh4eNtbU1xSuTxFgdHx+7P+Dj41MIDYhCKCIKofNz7754T83TwHyztLTUHEPHBx8fn0JoQBRCEVEInZ87nha6tbXVmJmZUaoqkij1MabdTCd1fPDx8SmEfAqhiCiENTo/n56eNjY2NhTBCifGttNi6Pjg4+NTCPkUQhFRCGtwfo4i6P1AxdDxwcfHpxDaYRRCEVEIa3R+VgTlsmLo/oWPj08h5FMIRUQhrOD52TuC0kkxdP/Cx8enEPIphCKiEFbs/Bzr1CmCclkxbH2V1P0LHx+fQsinEIqIQliR8/Pe3p7lI6SrRe5jn3H/wsfHpxDyKYRSSP7pn/6pmX/+53/+Xv7lX/7le/93659r5ey/azuKQth9jo6OGouLi0qO9JTl5eXmPuT+hY+PTyHkUwhFRCHM6Px8cnLS2NzcVGqk70xPTzf3JfcvfHx8CiGfQigiCmEG57+Y6jc7O6vMSKGZn5/vaxqp+xc+Pj6FkE8hFBGFcIC+eCq4urqqvMhAs76+3tzX3L/w8fH1XAhtQL5h+Nwki9Qnzn+Nxv7+vq+HytASHyg6PDx0/8LHx9fbgxsDwqcQiohCWIwv1o2zuLyUlY2NjQsXtXf/wsfHpxDyKYQiohAO+PwXT2gsJSEpPC08Pj52/8LHx6cQ8imEIqIQDuv8t7W1pYxIUol90v0LHx+fQsinEIqIQjjA89/p6WljaWlJAZEkE/tmuymk7l/4+PgUQj6FUEQUwj58PhwjOST20Ys+OOP+hY+PTyHkUwhFRCHs0WeKqOSWBw8euH/h4+NTCPkUQhFRCPvxxfS7lZUVBUOyTOy7rSmk7l/4+PgUQj6FUEQUwi4SX25cWFhQLCTrxD4c+7L7Fz4+PoWQTyEUEYWww+zt7XlfsIcsLi42s76+3pxmG4n32c4mPszT7uf8Pxvvbbb+O/HfbP33bevu3yuMfdr9Cx8fn0LIpxCKiEJ4ReLdKyWifWZnZxvLy8uNzc3Nxu7ubtuiMejxPTk5af7ZMV5hiaIYNmN0+XuF7l/4+PgUQj6FUEQUwjZZXV1VHM5kenr6u/IX5StKWOrj2yqKYQ57/B2M5f8mnrS6f+HjUwgNCJ9CKCIKoTLYtgBub283Dg4OKnN9i79L/J0UxL8n9nX3L3x8CqEB4VMIRUQh/McTpfn5+Vp/dGRjY6PvApjbO6Lxd67zR4Niim03T3zdX/HxKYQGhE8hFJHKFcK6lsEoQvE+2dkPvNT1+hbbILZFHcth7Pu9lkL3V3x8CqEB4VMIRSTrQli3Mjg3N/eDEuj69v2f2DbxRdPYVkqh+ys+PoXQgPAphCJS0UIY0yPrUAZjuYG1tbXmEg6ub935YpvFtqvD8iO9lEL3V3x8CqEB4VMIRSTLQhhlsOofFmk9DXz27JnrW5++2IaxLav+1LDbUuj+io9PITQgfAqhiGRXCKteBpeWlpqLubu+DcYX2za2sVLo/oqPTyE0IHwKoYhkVgjjRreqZbDTaaGub8X4WtNJ61wK3V/x8WVcCG1AvmH43CSL1Cc5nP9i2l8VvyIZ68kdHR25vpXki21fxfUr41i5arqx+ys+vnx9CiGfQigitSqEVSyDKysrhRVB17diimGMSZ1KofsrPj6F0IDwKYQiknwhrFoZjPfXWlNDXd/S88XYVOkdw8tKof2Pj08hNCB8CqGIJF8Iq/LUJr5wef5jMa5v6fp2d3cr81XSOIaMLx+fQmhA+BRCEcmuEFblox+xUPpFT2lc39L2xZjF2FXlo0XGl49PITQgfAqhiGRTCKtwIx5TD09PT13fMvfFGFZhGmmsxWh8+fgUQgPCpxCKSPKFMKbr5XzjPTMz09Fagq5vefliv4yxzXnfjL+D8eXjUwgNCJ9CKCLJFsLj4+Ps39e66nP/rm/5+mJsc36vNQptHGPGl49PITQgfAqhiCRXCONmO9cnMJ0+FXR9q4Yvpl/mvK/GsWZ8+fgUQgPCpxCKSDKF8OTkJNvlJa56V9D1rZq+GPNc99lwG18+PoXQgPAphCKSTCFcXV3N9guirh/19m1sbGS578YxZ3z5+BRCA8KnEIpI6ee/mH6X47S71gLzrh98MV04xymkcewZXz4+hdCA8CmEIgphaee/g4ODLKfbdfrhGNe3+vhynEI6PT3dPAaNLx+fQmhA+BRCEYVw6Oe/eG9wdnY2+wW+XT/4Wj/xi4LYR3Lap+MYjGPR+PLxKYQGhE8hFFEIh3r+W15eznYNN9cPvst+4t3Sur1PaP/j41MI7TAKoYgohJV8bzCm1RVdBl3fqu/L7d3Yft8ntP/x8SmEdhiFUEQUwo5ydHTULFm5vWPl+sHXrS/2nZz29Tg2jS8fn0JoQPgUQhGFcKDnl/n5+SxukMN59gbZ9YOvF19OpXBxcdH48vEphAaETyEUUQgHd37Z3NzMpgye/9CG6wdfr774xUIuvwiJY9T48vEphAaEz02yiEJY+PkllyUmLiqDrh98/fpin8qlFPayFIX9j49viIXQBuQbhs9Nskh9MqzzSw5rtF22xqDrB1+/vti3cjkOjC8fX7o+hZBPIRSpUUZHRxvXr1/vOCMjI0kWwhw+w3/VgvOuH3xF+HIphfHVUePLx6cQGhCFUESGkGvXrjXGxsYaExMTjdu3bzcmJyf7vpmbmppq/ndu3brV/O9eVhYHfX45PT1tzMzMZF0GXT/4ivTlUArjmI1j1/jy8SmEBkQhFJGCE+UsSloRxa+Xohgl8caNG82nj8MohEtLS9mXQdcPvqJ9sc/Nzc0lfWzEsWt8+fgUQgOiEIpIAdM+x8fHm0//Urvhi4K4urraXHh9EOeX/f39SpRB1w++QfiOj4+Tf3oex7Dx5eNTCA2IQigiXSamZ0YJvHPnThZfFWwtTB3lcG9vrxZPQOJGPG7IXT/4yvSlXgrjGPYEnY9PITQgCqGIdDEdNKZk5lIC22V2draxvb194fILnZ5fUv6QTLdl0PWDb5C+1J+kx7FsfPn4FEIDohCKyCXJ7WlgN4mnhrGwdjfnl/gYRRWmwbl+8A3LF9O2Uz5mrvrAjPHl41MI7TAKoUhti2C8h1fFInhVMbzsZ2VlpTKf03f94BuWb21tLdnjJmzGl49PITQgCqGI1LAItiuG7X4ODw+zval1/eAr25fyV3nj2Da+fHwKoQFRCEVq/45gVaeGdpuNjY0LPzaR6g1tN18Udf3gK8uX8seYLluGwvjy8SmEdhiFUKTyXw2twsdiBvFxlnj3qfWT6scxul1k2/WDr0xffPAot6eExpePTyG0wyiEIpXN2NhY4+7duwrgFU8OonCl+mSjl4/IuH7wlemLd11TXYbC+PLxKYQGRCEUqc1TwRQXk5fup7a6fvDl6Ev140xnZwUYXz4+hdAOoxCKVPZdQU8F80+8N+j6wZerL9X3CS96Smh8+fgUQjuMQihSmUxMTChTFXm/sdvF510/+FLzpfrV3vNPCY0vH59CaIdRCEUqMUV0cnJSmapIel1v0PWDLzVfTHtO/Smh8eXjUwjtMAqhSNa5du2a5SQqlMXFRdcPvkr55ufnk/5Yk/Hl41MI7TAKoUjWZdD7gtXJ9PR04+joyPWDr1K+vb29pNclNL58fAqhHUYhFPHxGEki29vbrh98lfStr68nuy6h8eXjG2IhtAH5huFTFKQOGR8fV6Aq/FVR1w++qvlS/Oro6uqq8eXjG7JPIeRTCEWUQbniaYXrB19VffHeXmrHnSnafHwKoR1GIRTJbpqo8lS9rK2tuX7w1cIX7+6ldOzFVFbjy8enENphFEIRH5CRUtccjOl0rh98dfCdnp4m9yEn48vHpxDaYRRCEWVQSsvW1pbrB1+tfKmtTXh+oXrjy8enEPIphCLJLTpvncFq5vwC2a4ffHXwxRPxeDKe4hIUxpePTyHkUwhFksvk5KTyVNG0ezLh+sFXdV88GU/pWIyprMaXj08htMMohCLJZWJiQnGq2dNB1w++OvhSe0oY01iNLx+fQmiHUQhFksrY2JjiVOHEJ/hdP/jq7Isn5Dn8gsb48vEphHwKoUgp7w36iEw9FqF3/eCrsy+lxeov+yWN8eXjUwj5FEIR7w3K0L5q6PrBVxffgwcPkl0P1Pjy8SmEfAqhSCm5ceOG0lTTdwddP/jq5kvpXcJwGF8+PoWQTyEUMVVUSl/zzPWDr06+lL44WsS0UePLx6cQ8imEIj3n9u3blS1Cs7OzjcXFxe8yPT3t6aDrBx9f8ylhlaaNGl8+PoWQTyEU6SnXr1+vROmJRZ43NzebT8L29vY6Om7jn4t3idbX1xvz8/O1fjro+sFXR18UsapMGzW+fHwKIZ9CKNJTpqamsiw5cQMVN3Nnp1r1ez45OTlpFsTl5eXaPR10/eCro+/4+Lgy00aNLx+fQsinEIp0nfHx8SyfBLZ74lXkuSXKYbxjlNLn6XtJ/B1cP/j42v/EOaUK00aNLx+fQsinEIpU+ulg3LQdHh6Wcn6JAppjMYynqPGelOsHH1/7n1QWqu93kXrjy8enEPIphCKVfDoYN0lXFcFhnF+iWMXTtlQ+VV/000HXD746+1I5rmMKq/Hl41MI+RRCEU8HEy40p6enyUwxK/LpoOsHX519qXxcJt5hNr58fAMohDYg3zB8CoZ4OljsUhEHBwdJn1+2t7eT3obxxVXnZz6+zhLnmxSO21gax/jy8RXvUwj5FEKRjJ4Oxg1RfNAlh/NL3ESmuK5hmHrZhq4ffHX2xS+iUjh+jS8fn0LIpxCK1HbdwdXV1ezOL1G8osRWYTu6fvDV2RfrkaZw/Ha6jqrx5eNTCPkUQpGecuvWrUqWwbLPL6ncTEaOjo6cn/n4uvzzU5k22st0b+PLx6cQ8imEIh1lZGSksmUwhfNLfL6+7Cmk/WxL1w++uvtSmDba63uExpePTyHkUwhFrsyNGzcqWwZTOb/E07n5+fnsng66fvDxpfOk3/jy8SmEfAqhyEBy586d5D4gU8XzS7xXGEXXO5iuH3x5+VKZNtrLe4TGl49PIeRTCEUuzejoaHILzvf6NdFczi+xplguTwddP/j4/p4Uvhwcy9oYXz4+hZBPIRSp9HTRw8PDWpxf4onDMN5LWl5edn7m4yvAF8dSjlPpjS8fn0LIpxCKXJrbt28nUwY3NjZqdX6JJ6GDvsns9VP1rh98fOU+2b8o8R6y8eXjUwj5FEKRQpPSVNFnz57V8vyytbWV9LuYrh98fH//MFSOH5Yxvnx8CiGfQiiSxWL0sTRDnc8vMVV2ZmYmuaeDrh98fGktP9HtcW18+fgUQj6FUKRtJiYmkiiDS0tLzi///+f09LSxsLCQ3JdaXT/4+P6eMr4S3O+HZYwvH59CyKcQirTN5ORkEoVwf3/f+eXMT7xLmcrTQdcPPr7/TZSxss+XsSai8eXjUwj5FEKRyrw/GO8OOr/88Cem0PY6hbSXD0+4fvDx5bEeYbdP/40vH59CyKcQilyYa9euJVEI48t9zi8X/xwfH/c0hTS2qe3HxzcYX9nnzFgP0fjy8SmEfAqhSN8ZGxtLohC2vizq/HLxT2yftbW1rp642n58fIPzxRO6nL40anz5+BRCPoVQJNkPyqysrDi/dOjrdA20mGpq+/HxDc4X7/Dl9KVR48vHpxDyKYQiyS5Iv7Oz4/zShS+mkF72XmHrfUzbj49vcL4UPizTzS9+jC8fn0LIpxCKJPuF0a+//tr5pUtfTCGNZTouW8vR9uPjG5wvns6Vfe7c3Nw0vnx8RRRCG5BvGD7FQ1LN3bt3S72h+cUvftF4+vSp80uPvrghbPehCduPj29wvvilTNmFcGtry/jy8RXwoxDyKYRiyYkS8x//8R/OL3364olgFMHzTwxsPz6+wfp6XRKmqMQsAePLx6cQ8imEIj1nZGSk9EL4n//5n54QFuA7OjpqfvXw5OTE9uPjG5Kv3bRthdD+x6cQGhA+hVCyyPXr10svhB988IFCyMfHl6Wvm6VgBpF4Qml8+fgUQj6FUEQhdP7j4+MrwRfv8JV9DjW+fHwKIZ9CKJJ1Ifz8888VQj4+vix9na4LqhDy8SmEBoRP+RCFsE2++OILhZCPjy9L3+HhYenn0FiX1Pjy8SmEfAqhSNZPCJ1f+Pj4FMLeEgbjy8enEPIphCKmjDr/8fHxDdl3enqqENr/+BRCA8KnEIpCqBDy8fHV1acQ2v/4FEIDwqcQikKoEPLx8SmEpSQ+bGN8+fgUQj6FUCTbQvhf//VfCiEfH59C2GNi6Qvjy8enEPIphCLZFsKdnR2FkI+PL1vfwsKCQmj/41MIDQifQih5ZnR0tPRCuLm5qRDy8fFl61taWlII7X98CqEB4VMIJd+UXQj//d//XSHk4+NTCBVCPj6F0IAohCJ1LIT/9m//phDy8fEphAohH59CaEAUQpEyMjk5WXop/O///m/nFz4+PoVQIeTjUwgNiEIoMuzcvn279EL4wQcfOL/w8fEphAohH59CaEAUQpFhZ2JiovRC+MYbbzi/8PHxKYQKIR+fQmhAFEKRYWd8fLz0Qjg9Pe38wsfHl6Vvbm5OIbT/8eVeCG1AvmH4FA9JNdeuXSu9EEb29/edX/j4+LLzpbB0j/Hl4+svCiGfQii+NJpAIVxbW3N+4ePjUwi7zIMHD4wvH59CyKcQiuT/pdGYduX8wsfHpxB2l729PePLx6cQ8imEIv3l5s2bSTwlPD4+dn7h4+PLxnd0dFT6eXN2drb5lPDk5MT48vEphHwKoUhvGRsbS6IQbmxsOL/w8fFl44uncymcO1sf54r3CdsVQ+PLx6cQ8imEIkkvPXHRtFHnFz4+PoWwmGJofPn4FEI+hVDkBxkdHU3i/cGzOT09dX7h4+NTCAuaSmp8+fgUQj6FUOTC3Lhxo3H37t3kbmLiBsb5hY+PLwff7u5usoWwlfn5+WZxNb58fAohn0Io0szIyEhyTwXPZmFhwfmFj48vC19MzUy9ELaysrLyvRkYxpePTyHkUwilph+PSfGpYLtpo84vfHx8CmFxmZmZ+d4sDOPLx6cQ8imE4sMxSaZ1w+L8wsfHpxAWn6Wlpb6fFtr/+BRCA8KnEIopogOd2uT8wsfHl7pvfX09y0JYxNNC+x+fQmhA+BRCySDXrl1rTE1NZXmz8uzZM+cXPj6+pH2Li4vZFsKzTwvjfGt8+RRCA8KnEIr3BZNKfL3P+YWPj08hHM7Twv39fePLpxAaED6FUKqS8fHx7G9QYtqo8wsfH59COLxsbGwYXz6F0IDwKYSSe27evFmZ31g7v/Dx8SmEaU4htf/xKYQGhE8hlARz69atSt2YFD1t1PmPj4+vSF/VymArc3NzjePjY/sfn0JoQPgUQlEGy83q6qrzCx8fn0KY4HuF9j8+hdCA8CmEogwOPNPT084vfHx8CmHJMzXsf3wKoQHhUwhFGSwtBwcHzi98fHwKYYnZ2tqy//FVuxDagHzD8Ckuogz29sW7XtbHcv7j4+MbtO/w8LA2hfCiKfz2P74q+RRCPoVQlMHEEl/uiyeDzi98fHwKYZql0P7HpxAaED6FUCwtUXhmZ2cbDx48cH7h4+NTCBMvhfY/PoXQgPAphGLR+UKzubnZODk5cX7h4+NTCDMohfY/PoXQgPAphFJCxsbGKjk99OjoyPmFj48vO198gTMWcq9jKVxbW7P/8SmEBoRPIZRh5tq1a427d+9WanroVQvPO7/w8fHl4Ds9PW2sr683l8qpUymMD3/Z//gUQgPCpxDKEDIyMtKYmpqqzNqCF00PdX7h4+PL3RfntXgPen5+vjalsN06hfY/PoXQgPAphFJgJicnK3HjsLy83HZ6qPMLHx9flXx7e3vNd+3qUAr39/ftf3wKoQHhUwhlUJmYmKjE9NC4OXJ+4ePjq5svnhrGrIg4D1a1EM7MzDSOj4/tf3wKoQHhUwil6Fy/fr0S00OdX/j4+Pj+1JxeGR/SqmopfPbsmf2PTyE0IHwKoRT53mDOH5GJqVLdTA91fuHj46uLL86NVfwIzcLCgvHlUwgNCJ9CKHV/bzA+ptDL9FDnFz4+vjr6qvYRml6/PGr/41MIDYhCKHImN27cyHK60Pb2tvMLHx8fXw+p0kdoevnIjP2PTyE0IAqhyD8yOjqa3VTRWJg51uFyfuHj4+PrLzGdNPdiGL8gjGuC8eVTCA0In0IoNZgqGtOdnF/4+Pj4ivVFoVpbW6vN+4T2Pz6F0IAohCKZTRWNi/35z4w7v/Dx8fEV6zs8PGzOwsixFG5tbRlfPoXQgPAphFLFr4rGb60v+ry48wsfX7V8j5581fj5rz5uvPj6w45y7/6njSdffmP7DcAXS1bEVMzcSmGn6xM6fvkUQgOiEErtc+vWreymiDq/8PFV1xdl8LlXdho/+j//t6u88NqHtt+AfPGLuJWVlUpOHTW+fAqhAVEIxQL0GXwkIH5D7fzCx1cP39z2J12XwVa2H31hfAfoy+1pYSdTR40vn0JoQBRC8SGZxMtgJ9N+nF/4+KrjiymgvRbCmDpqfAfri4/OxNO3XErhVV8dNb58pRZCG5BvGD6lR9plfHw86Yv49PR04+DgwPmFj69mvufnP+i5EL787ifGd0i+XJaoWFxcNL58yfoUQj6FUErN1NRUJcqg8wsfX3V8T//yt57LYOSnb/zO+A7RF+9251AKY6qr8eVTCA2IQiiSydPBbsug8wsfX3V8v/79074KYcT4Dte3t7fXPG+nXAhnZ2cbJycnxpdPITQgCqFI6stM9FIGnV/4+Krje+X+Ud+FcOfwxPgO2Rfn7dRL4ebmpvHlUwgNiEIokvIi9L2WQecXPr40fFHEWh+EmXxzv+NidvbnZ+uP+y6E73z0pOttFP9OLFsRy1289Paj79Y0NL7VKYVhu+gpofHlUwgNiEIo3h1MaJ1Bxy8fX56+KH8XrR0YS0h04/vJ8sO+C2Enf2YrUfyivF60pqGF7qtXCi96Smh8+RRCA6IQincHE57K4/zCx5e+r10ZPFuuLnta+L1rVp9lMBJPKTt9KniVO0qh/a9apfDo6Mjxy6cQGhCFUDwdTCnLy8uOXz6+TH1XlcFOnty1for4oEwkPL08FWxXCuPLp/a/6pTCWC7D8cunEBoQhVBqmevXr2f15TfHLx9f2r5uyuBlTwtbP289PCmkEEbOvgPYzVPBixLTWIsshXXZ/+Lrozm8S+j8wqcQGhCFUGqT27dvJ3dh7vUjMs4vfHzl+nopg2dz7/6nP/DNvP9ZYYVw+9EXPT8VHHQprNP+l+o6hWdfU3B+4VMIDYhCKLXI6Oho5d4bdH7h4yvH128ZPPuu36MnX333341F5YsqhGenp/byVHCQpbBu+9/a2lrSTwmdX/gUQgOiEEotcvPmzaQuxvPz845fPr4Mfft//HMh5ers+36x9uAvdz4v7L8Z+fGrv2kWwX6eCg6qFNZx/1tYWEj2y9bOL3wKoQFRCMXHZDKeKur8wsc3XF8Ry0Lkniiv9r/ufKenp42ZmZnk3mF3fuFTCA2IQii1yNjYWFIX4a2tLccvH1+mvrqXwcjL735i/+vBt7+/n9xTwvjwjfMLn0JoQBRCqXxu3bqVzMU3fkP87Nkzxy8fX6a+It/z84SwfvvfyspKcktQOL/wKYQGRCGUSmdkZCSpi+/u7q7jl48vY1+8Q1jnMjh277feIezDF78QTG3qaJicX/gUQgOiEEplMz4+nsxFd25uzvHLx1cBX3zBs66F8Ne/f2r/69MXvxhM8ReVzi98CqEBUQjF2oMDzuHhoeOXj68ivlhgvm5lML6Gav8rxre0tJTMtSm+gOr8wqcQGhCFUCqbu3fvJnHBjYu/45ePrzq+WIuwTmUwvq5q/yvOd3x8nNRTwvgKqvHlUwgNiEIovi46xCk5jl8+vvx9dZo6Gu9O2v+K9aW0YH2sSWh8+UophDYg3zB8ipHF6FNZ68nxy8dXPV8d1iWM4mv/K953dHSUTCGcn583vnyl+BRCPoVQarEYffzm1fHLx1dNX9W/OhqF1/43OF8s+5BKKYyCanz5FEI7jEIolcno6GgSF9jp6enGycmJ45ePr8K++NhKlaeK2v8G50vpKeFFv7w0vnwKIZ9CKJabKGDRX8cvH1/1fVVcsL71VVHjO1hfKk8Jl5eXjS+fQmiHUQilOrl161YSF9i9vT3HLx9fDXxH3/618fz8BwMpZs+9stOYfHO/+S7f2cT/L/63QX9V1PgO1ndwcJDMjBbjy6cQ2mEUQqlM7ty5k+THZBy/fHzV9RU9dfTF1x823vnoyZWe+Gfiny3yz46Ca3yH54uPuqRQCqOcGl8+hdAOoxBK9hkZGUniwrq+vu745eOrke+XO58XUsZ+/OpvGtuPvujaFcWwqCeGZ5eZML6D98X7eylct7a3t40vn0Joh1EIJf9cv349+d+0On75+PL2Pf3L3xq//v3T5lPBl9/9pLDlJ1547cPGky+/6dkW/25Rlngvcub9zxorO3/oqaDa/zr3xcfHYspmFd4jNL58CiGfQiilZ2JiIvl3MRy/fHz5+HYOT5pP3+K9vZiaOXbvtwN5b6/fMthKlNVBrY8Yxtb7jFESHz35yv5XkC+Fj8sU8R6h8eVTCPkUQvFBmUu+Lur45eNL3xdF56W3HxX+Xt5V00SLKIOt7TfIj9xc9NGb2FY//9XHHf0d7H8XZ3d3txLrERpfPoWQTyGU0jM5OZn8ek6OXz6+NH1RBstY4mEQUzKLeqex6Kec9r/2SWHaaBRT5xc+hdAOoxBK1snhN6yOXz6+NH0xHXLYJSqerg1q+w1qeutliXcO7X+9+eIdvrKvX5ubm84vfAqhHUYhlHwzOjqa9HITjl8+vrR9w5wm2konS0v0uv3KeEoY7xfa/3rzpfC10cXFRecXPoXQDqMQii+MDvorbY5fPj6FsJVBbr94l1AhzGf/i9klOfxS0/jyKYR8CqEkmxs3bmQx3cbxy8enELaWdhj09hv2tFGFsD9fFLKyr2POL3wKoR1GIRRLTvSRvb09xy8fn0LYUWKdv0FvvyidCmE+x0cKy090ch0zvnwKIZ9CKJac6OOT3Y5fPj6FMBIL2yuE9r/vfel2ezvrL40aXz6FkE8hlNovOeH45eNTCBVC+1+vvng6l/OXRo0vn0LIpxBKrQvh/Py845ePTyHsOD9bf6wQ2v9+EIXQ+U8hNCB8CqH0mKmpqSw+1+345eNTCCM/WX448O33/PwHCmFmx0fZC9T3s/SE8eXrqhDagHzD8ClJFqUfZtbW1hy/fHwZ+4b9NC0SS0MMavvtHJ4M/e8T02Dtf/35lpaWSr2WxZ/v/MI3DJ9CyKcQSuUK4dbWluOXj08hLLRA9bP9Xnr7kUKY4fERv1ws81q2sLDg/MKnENphFEJRCBVCPr76+aLMDLtAxZTOp3/5W+Hb79GTr4b+d4ns//HP9r8+fXEtKft65vzCpxDaYRRCUQgVQj6+2vmimJXxlDDWIyx6+02+uT/0v8cvdz63/ymExpdPIeRTCEUhdPzy8eXti/f63nv8dfOJYXwJdOzebwdepuLPK2r7rez8YSgfxHn53U+a2+jXv3/a8VNO+9/VP4eHhwqh859CaED4FELJsRDGRdzxy8dXXV8Un3v3P238/FcfF/5F0pg6etV0y05+ii6D4YqnplH83np40rfR/qcQOr/wKYR8CqEohI5fPr7K+OJLnu989KTxwmsfFlK+onT1+hNTNosogTHddPvRF40nX35j/1MIjS+fQsinEIpCqBDy8fFd5YtSWOSC9d0sRxFP7Yp899H4KoTGl08htMMohKIQeoeQj4+vC98gFrWPYhhPDC96Py8KY/xvg/gITkyLNb4KofHlUwj5FEJRCBVCPj6+DnxRoIbxFc8of/Exl0H/Oc+9stOcCmt8FULjy6cQ8imEohAqhHw18MXNf+tDKd0mSkq7tJ5wVXn7xXp/UaDKWPNvkIl3Ih0fCqHx5VMI+RRCUQgVQr6K+6IIDrpcxLINnX6dMrftN4ipoqlkbvsTx69CaHz5FEI+hVAUwk6zsrLi+OXLyjeMMnj2C5qdrFWX0/Yb1lTRMlPEUhiOX4XQ+PIphHwKoQwlU1NTpV5Al5aWHL982fhiquOwy0UsZF6V7RfTbKteBlsL0Dt+h+vb3d1VCF0/FEIDwqcQSi+ZnJws9QI6Nzfn+OXLxlfG0614SliV7VfEuoO5JBald/wOzxevHyiErh8KoQHhUwglw0LY6UXU8cuXgu+ltx+VUi6umjaaw/aLd+vqUgaLnjrq+E2/EM7MzBhfPoXQDqMQSp65detW6YXw+PjY8cvnCdcl+fXvn2a9/eoyVXRQU0cdv1f/xOsHObz+YHz5FEI+hVCSy8TEROmFcH9/3/HLl4Uv1emHqW+/Ok0VHcTUUcfv1T8LCwsKoeuHQmhA+BRC6SU3btzIYukJxy9f2b4yn3LF2oS5br8oRHUtg50+4XX89u8r+zq2trZmfPkUQjuMQih55vr166VfSDv5zarjl69s38rOH5Kdepjy9ouP4tS9EM68/5njd4C+eO0glzV1jS9f34XQBuQbhk9JqldGR0dLv5BGHL98qfvipr7MUpHr9nvulZ3aF8JYu9LxOzhfCktObG9vG1++ofgUQj6FUCq5OH3k4ODA8cuXtO+nb/yu1FKx/eiLLLffIL7MGiXzx6/+ZiBPYoc9do7f/n2bm5ulX8P29vaML59CaIdRCMXSE4P87arjl69sX9lTH2PKao7b78mX3xRatOJ9yvhvRoosha33NGOpiCK9l42b47cY3+LiYvK/1DS+fAohn0Iolp64InFBd/zypeo7+vavSU87TH37xTqK/ZasKOTvPf76e77JN/cL275vPTz53jYo4mM4RZRBx+/VyeG1B+PLpxDyKYRi6YkOcnJy4vjlS9IXX4ksuxC++PrDrMe3n1IYT+/i3z/vK3Kx+4sWke/naWFRZdDxe3liqmbZ1675+Xnjy6cQ2mEUQvGl0SISHwZw/PK1+4mndFHMzhaDYflSWTqhjPGN5TaKegcuxi7KXS9PBS/yvfPRk8K27WU/3Y5/kWXQ+eXyrK+vl37tWl5eNr58CqEdRiGUvDMyMpJEIVxdXXX88l14M37+/b34wMtla7sV7eumxAwyj558NZTxjffzYorq+S+ExhTNKIj9ju/L737S9VPBi8Y3tscwlvVoPS0cu/fbjqaeOn6H55udnS392hUftTG+fAqhHUYhlOxz586dpKeNOn7r5+tkimEsBXFRaSja10kRGEbiidigxzeK9mUfa4mS2O0TsIt+2pXCdk8F241vEctahKWTn9jXLlt+pPUeouN3OL6jo6Mkrlv9fGHU+PIphHwKofiwzLk8ePDA8cvX1ftmUdbOPy0sfCHgRNazi3fmBjW+V5WdfqZFtvs5XwoveyrYbnzj3cp+t+svdz7vujSf/yXB2Y/SOL8Mxxdfp079/Xfjy6cQ8imEkk3Gx8eTuLC2+9qo47c+vl4/PhJlZhC+eH8ulUIYUzYHMb4XFZwiS+FlP/E0MKYFX/RRl072v5ja2u92vWz68WUFOkpglMnzdueX4fhSmC4aBuPLpxDaYRRCqURGR0eTKISRmAbk+K2nr9/lCeLfjZvzIm337n+aTCGMqZxFjm+3TwV7LYWD3P/iz+93u3byVNLxm5Yv1v1L/d1348unEPIphJJdpqamkr3AOn6r7ytirbqrplb2kiKeQA36S6PDfCrYSykc5P7X7xPcKNmO3/x8cZ1I+TUH48unEPIphJJlbt68mcQFdnp6+gfvZDh+q+0rsgy28sJrH/b0RczzKeIdtSJz0RIQw34q2G0pHPT+1+/6jo7fvHxxfYjrRKozWowvn0LIpxBKthkbG0tm2uj5z3g7fqvriyUOii6DRT4tTKkMRmIKa6/j289C6/2UwkHvf1H++9k/HL95+VL5mEwR7w8aXz6FkE8hlORy9+7dJJ8SOn6r6Ysy2M/N/KCfFha1zl2ReentRz2Nb7eLqxdZCge9/8U26WcpD8dvXr4UPiYTWV9fN758CqEdRiGU6uX27dtJPiV0/FbPN6wy2M/TwigLqRXCmOLYzfgO+qlgJ6Vw0PtfPx+WidLv+M3HF+/spXKN2t3dNb58CqEdRiEUy08M6ymh47davjLKYC9PC6NAplYIL/qwTNlPBa8qhcPY/7p9ShgL2reMjt98fKk8HYzrk/HlUwgNiEIolczIyEgyhfDsF0cdv9XxlVkGu31amNoHZVo5X2hTeCp4WSkc1v4XT/viozudxPGbny+lp4PLy8vGl08hNCAKoZg2OqzEelOO32r4UimDnT4tjCUJUiyEMZW13fiW+VSwXSl0fPD164vZIqk8HSxquQnjy6cQ8imE4mujHWZxcdHxWwFfamXwqqeFKX5Qpt2HZVJ6KnhR3np44vjg68sX75Sn+DqD8eUbeiG0AfmG4VOIJKWvjbYSnxl3/ObrG8Q6g0UnfFGqcvG2SlZYU33XsZvF6x2/fO18p6enSV2P1tbWjC9faT6FkE8hlNotUn/2N7JFLADs/FKO7+V30y8srTw//wHrABIfcYmnro4Pvm59S0tLSV2P9vf3jS+fQmhAFEKpfkZHR5O6ALemjjp+8/MdffvXbEqLDDY//9XHjg++rnyxtENK16F4j9H48imEBkQhlNpkcnIyuVJY1NRR55fh+d57/LUyJG3XUHT88rXzxVTRmZmZpK5B8S6j8eVTCA2IQig+LpPAV0cdv/n4UvvqpSiEjt88fKlNFY3EqwvGl08hNCAKodQqU1NTyV2QY8pOv194c37xhFAUQsdvur6tra3krj2ttQeNL59CaEAUQqlVxsfHk3xK2O/7hM4vw/PFVzCVIWm3vIfjl+98Dg8Pk7zu7O3tGV8+hdCAKIRSv4yMjCS3BEUrq6urjt9MfDPvf6YQ1TzxldFYi9LxwXdZYkpmau8NRubn540vn0JoQBRCqW8mJiaSLIT9fGTG+cU6hDLcvPPRE8cH36WJVwGieKV4rXnw4IHx5VMIDYhCKJ4SploKz16onV/S9cWi74pRPTP55r7jg+/KxKsAKV5j4r1148unEBoQhVA8JUz4KWEvpdD5pRyfL47WL8/Pf1DYVFHHb3V98QpALtcX48unEBoQhVA8JaxAKXR+Kc9n6mi9El+ZdXzw5VoGzz8dNL58CqEBUQjFF0cTLoTdlELnl/J8po7WJy+/+4njgy/bMtjummJ8+RRCA6IQinUJK1AKnV/K9Zk6Wv2M3ftt82NCjg++XMvg2S+LGl8+hdCAKIQi/8j169eTL4SR9fV155fEfaaOVju//v1Txwdf26+Jpl4Gz647aHz5FEIDohCKnMvt27ezKIXLy8vNGw/nlzR9po5WN7HupOODL7elJc4mvnhqfPkUQgOiEIq0yejoaPIfmDk75efg4MD5JVHfL3c+V6AqPFXU8cF3NnEujo+05HDtODo6Mr58CqEBUQhFcl6G4mymp6d9Njxh30/f+J0iVdGpoo4PvlbiHBzn4hyuGZubm8aXTyE0IAqhSCe5c+dONqUwEu+stKaQOr+k4zv69q+N517ZUaYqOFXU8cGXy/uCZ5eZaPeqgfHlUwgNiEIoci7Xrl3LqhC2LvbxoQDnl7R89+5/qlBVcKqo46PevpgimsP7gp18SMb48iVTCG1AvmH4FB2p6tTRdk8LnV/S8Jk6mnd2Dk8cH3zf/WxtbWV3XdjY2DC+fMn7FEI+hVBMHS343cLt7W3nl0R8MXX0+fkPlKsMM7f9ieODr/lzeHjYmJuby+56EOZnz54ZXz6F0IDwKYRS9a+OtptGuru76/ySgK8KXx2NJ53xLt0r94+aH1i5KCs7f2iWqMk39xs/fvU3Wf99X3jtQ8cHX+P09LSxtLSU7XUgiqzx5VMIDQifQih9ZHx8PNsbgbPrTnXy/ojzy2B9uU0djXfnogBe9HXNTrffoydfNUtiFMQqTRV1fFTfF8szrK2tZX3u73SqqP2PTyE0IAqhyBW5detW9qWw9cTw/DIVzi/D88WHSXKYOvryu590VQI73X5RDuPpYQ5PDq+aKur4qK4vimBOXw9tl4WFBePLpxAaED6FULxP2P4dw1iP6rIFip1fBuN77/HXSRfBeN9xGNsvnhqmuiRHJ1NFHR/V88UsiuXl5Uqc42dmZppTXY0vn0JoQPgUQvE+YUfTSeOpYbsvkzq/FO/72frjpArQT5Yf9vxEsJ/t9+TLb5pP4nKcKur4qIYvfikWH+CK2RNVOq/v7+8bXz6F0IDwKYRifcLuE78dj5ujs08OnV+K96U0dTQ+EFP29osCFk/lcpoq6vjI19cqgbmtI9hpYlkM+x+fQmhA+BRC8ZGZQt43jPdo4iulx8fHzi8F+956eFJq8YnpmlHEUtl+8bTwpbcflbpN4t1G19/q+WL2Q5zH1tfXK1sCW4mP4Nj/+BRCA8KnEMoQcvPmzVqUwvOJT6/HDUf8BjqmJMXnzLt9T8X573+fEpb5jlx84CXF7VfmFNJunw66/qbnOzg4aL4LGO9Ix4yHqk0FveojMp2uN2j/41MIDYhCKOLLowO9KYni2C7xzmKRuejPyOH8F+/slVUG42lcyteP+OBMGdsmnlCmen2LclPU8dFPhnH8XpTWL6LO5uz/Hh9RqfN5N/7+/ZZB96d8CqEBUQhFlMLKJPXzX5TB+JBL2WUw5etHWaUw1XcIozw5tqVdGSxqWr/7Uz6F0IAohCJdZmRkpFLLUSiExZ//YhmHWGoiPt4SC9PHYu9lvTN4vgymfv0o853CF19/2Pj5rz5u3Lv/aWP70RelX99iCqRjWwZZBt2f8imEBkQhFFEKFcI+z39RHKJARJGIQpHDUgqpXz+iRKeyDeOjM5Nv7jefIr7z0ZPme5jD2n7xURTHtpxPvMft/o9PITQgfAqhKIUy5EIYRSAKQRSDKAhRFFJdbD4SJTXX60dKS3S0S5TWmfc/a345tt/1HC9bKsGxLWcT68e6/+NTCA0In0IoSqEMuBDGU794n6311C+mXqZcTi6a+pj79SOm3Oa0zSPxjujP1h83pwpHSYypw/1uP8e2nC2D7v/4FEIDwqcQSqKl0Idm8i2E+3/883dP/VJZKL3ftJaXyP36EeUq97GIJ51nnybG089utl/V19CTqzM9Pd2cPuz+j08hNCB8CqH4+qgUWAjjxjyld9WG+cXMXK4f8YStauMTBTGefna6/XxpVBmMdRbd//EphAaETyEUi9dLwYWwjCUgyvqqaM7Xj5ff/aRy4xQ5Wwov2xa+NKoMuv/jUwgNCJ9CKJllfHzczUzihTDe8apiyYh3Hqt2/ajiU8LWk0KFUNolpgrHR4Xc//FVvhDagHzD8CkoUkauXbvWuHv3rhubIaab80nqXwjtNUV8xCTF60e831nF8Yqv1l61/WKJAcd3vbK0tNR49uyZ+z++WvgUQj6FUCqd0dFRXyBNtBBWsVzE+5BVvX5EcarimLXe91QIpZW1tTX3f3wKoQHhUwjFF0hFIew+8QXLKl8/clv6o6hCeHx87PiuSeJLou7/+BRCA8KnEEqF3ys0hVQhTGG6aK7XjypOG+2kEMaP47vamZubaxZ/9398CqEB4VMIxRRSUQh7yti931b++nHv/qcKoVQuKysrl74v6P6PTyE0IHwKoVQwExMTboQUwkITSzNU/fqxc3iiEEplMjMz0/EUUfd/fAqhAeFTCKWiXyH1tFAhLCqxjEYdrh8KoVTlK6Knp6fu//j4FEI+hVDE00KFsJj8+vdPa3H9eOG1D2tZCONpkmO8Gk8FHzx44P6Pj08h5FMIRX74buHk5KQbJoVQIbzC9+LrD2tZCOOJkmM8/3cF+3kq6P6PTyE0IHwKodQgY2NjjampKTdPCmHXqcv1QyGU3DI7O9vY3993/8fHpxDyKYQinefGjRuWqFAIFcILEgVKIZQcMj093djc3HT/x8enEPIphCK9L2gf7xcqhgqhQqgQKoR5ZXV1tXFycuL+j49PIeRTCEUUQ4VQISzy+vHS2498ZVSSLoJHR0fu//j4FEI+hVBkcMXQO4bt8/Tp09oWwqNv/+odQoVQEiuC7v/4+BRCPoVQZCAZHx+3huEF+fbbb31lVCFUCGWo7wienRrq/o+PTyHkUwhFhr64/a1bt0wn/Ue++eab2hbC9x5/XYvrx3Ov7CiEUmrm5+ebawm6v+LjUwj5MvMpD1L16aTx1PD27du1vlH7n//5n9oWwlfuH1X++vHky28qN26dFMJnz54pYgk8DYxpoQcHB+6v+PgUQj6FUCT9Re5j2Yo6Tin94osvalsIf/rG7yp//Xjnoye1LISHh4dKWYnvBu7u7rq/4uNTCPkUQpH8nxzWYVppnb8y+vz8B5W/fvz8Vx8rhDLQzMzMNNbW1polsJN3A91f8fEphHwKoUh27xzG08OqFsQ6F8JuPyyT4/Xjhdc+rGUhjHKirA0uscbj1tZW4/j42P0VH18ZhdAG5BumTyEQ+WFBjCeIN2/ebExOTmZfErv6JVEFC2E8Qavq9SOW1ajimLXe/bxsW8SXLBW3YjI7O9tYXl5ubtO9vT33V3x8CfgUQj6FUCTBaabXr19vPkmMdQ/jaWKUxRzWP+zmJ6ZYVq1cxBc4q3r9iOJUxUL4y53Pr9x+8R6bMtd98VtcXGysr683tre3m+Wvmymg7q/4+BRCO4xCKCJXfLgmSmM8XYzSmEJiylc3Py+/+0klC8bKzh8qef0Yu/fbSo5XPPm8avvFEgfxRKubxPFQZLr984vwbWxsNKdzns/Kysr3/rnYPlH4IpctDu/+io9PITQgfEqhSEXTy0/ciFfxKWEs3F6168dbD08qWQZn3v/M/QEfH59CaED4FEIRKaMQtopGFUvh9qMvKnX9qOLTwXhC7f6Aj4+PTyHkK8nnBlpEGTz7pDBuzn/86m8qUzbia5xVuX5U7elgrBcZfyf3B3x8fHwKIZ9CKCIJFMLz55d4unbv/qfNL3bG9Mtci0f8HXK/fjz9y9+yfYIbTzV/tv64+TGc9x5//d27gu4P+Pj4+BRCvkR8bqRFlMFOzy87hyeNdz560lwzLkpiDk8T44ujj558lfX1IwpVLk/94ilzfDG0m7Ug3R/w8fHxKYR8JfvcUIsog72eX558+c13TxNfevtRkk8TL/vATOrn53iqltr2jF8ExDaNXwyEb/+Pf3b95ePj41MI+XL3ubEWUQiLPL/E08RY+iGmCsaTo7KnPLZbrD7l83Nsw7K3WxS/KPpR+KP4xy8AXH/5+Pj4FEI+hVBEEkhu5794Fy6mEpa19uFFaxOmuv2ieJUxJTf+zNhOUUZdf/n4+PgUQjtMzXxusEXyKoM5n//iPbMUSmGK2y/KYHwhtYwyeP4JoOsvHx8fn0Joh6mZz422SD5lMPfzX1nTIM+WwtS2X1llMBLvBLr+8vHx8SmEBoTPDbdIJmUw5/NffIikzHfjWuUnpe0X0zTL/HJrvCvo+svHx8enEBoQPqVQJJMymPP5Lz40U/bXMiff3G++15jC9ounlrFERtnbpNN3B11/+fj4+BRCvpr43ISLpFkEcz6/lPX+YLuF03tdM6+I7RdTRKOYprI9YrpqN+8Ruv7y8fHxKYR8NfC5IRdJswzmeH45+vavpS+lcFFi8fewDXP7xVIOKTwV7HSJDtdfPj4+PoWQr+Y+N+ci6RTBXM8vKUwVvSyxJEY/xbDT6aFlvivYSWLNQddfPj4+PoXQDsOnGIokWgRzPL+kNFX0qkRxfevhSdfvGF72wZh48pbiE8F+lqBw/eXj4+NTCPlq7HPzLlJeEczt/JLqVNFOp5NGme3kXcOzBTCeBMaXO1N/GtjP1FHXXz4+Pr6CCqENyJe7zw29SPep0/mlrLX1BpF4yvfi6w8vzE+WH1bm7xm5qgS7/vLx8fEVE4WQj4+Pj6+yvljzr0olqU6Jr7BeNm3W8cHHx8enEPLx8fHx8bX9iamTilXemXn/M8cHHx8fn0LIx8fHx8fX/U+VporWOe89/trxwcfHx6cQ8vHx8fHxdf7zyv0jZaoiiQ8CXTR11PHBx8fHpxDy8fHx8fH94Gf/j39WpCqW+Nqq44OPj49PIeTj4+Pj47vyp2pf25SLp446Pvj4+PgUQj4+Pj4+vu/9mCpan6mjjg8+Pj4+hZCPj4+Pj++7n1i3TnGqz9RRxwcfHx+fQsjHx8fHx9f8iSdHsW6d0lSfqaOODz4+Pj6FkI+Pj4+Pr/kT69UpS/WaOur44OPj41MI+fj4+Pj4TBWt6dRRxwcfHx+fQsjHx8fHV3OfqaL1zb37nzo++Pj4+BRCPj4+Pr46+0wVrW+ee2Wn8ejJV44PPj4+PoWQj4+Pj6+OPlNF5cXXHzo++Pj4+BRCPj4+Pr46+kwVlcjKzh8cH3x8fHwKIR8fHx9fnXyeDkork2/uOz74+Pj4FEI+Pj4+vjr5frnzuTIkhU4bdfzy8fEphAaEj4+Pj08hFIXQ8cvHx6cQGhA+Pj4+vpR9+3/8szIkpozy8fHxFVEIbUA+Pj4+vhx9P371NwqRNN8ndXzw8fHx9f6jEPLx8fHxZenbOTxprkWXemF56e1Hje1HXzTmtj9J3hvTL9/56Enzy505fMX15Xc/cXzw8fHxKYR8fHx8fHX1pVwKX3jtw6bvrDeKVqrlKp64nrU+/cvfGjPvf1aLMuj45ePjUwgNCB8fHx9fpr4US2E8DWz7rkaiBeve/U8vHN+Ykpna08J46ur44OPj41MI+fj4+Pj4kiqF8ZQtpodeZo1pmSkWwvPusz8pPS2MMuj44OPj41MI+fj4+Pj4kiqFP//Vx40nX35zpTP+uRQLYSfjW/bTwlYZdHzw8fHxKYR8fHx8fHxJlMJOngqeTUzNTP39wcvGt6ynhWfLoOODj4+PTyHk4+Pj4+MrvRR2+lTwbKI85rCW31U/w3xaeL4MOj74+Pj4FEI+Pj4+Pr5LS+Hz8x8k81Qw9Q/LXPQRnE5+hvG08KIy6Pjg4+PjUwj5+Pj4+Pguzf4f/zyQUtjLU8HziSUpUiqEsfZgP+M7qKeF7cqg44OPj49PIeTj4+Pj47vSV2Qp7Pep4NnEFM2UCuGjJ1/1Pb5FPy28rAw6Pvj4+PgUQj4+Pj4+vo58RZTCKDr9PhU8m5iimUoZjPctixzfeFrY7/a+qgw6Pvj4+PgUQj4+Pj4+vo59vZbCmAYZBadoX0oflol1EYse33ha+LP1xwMrg44PPj4+PoWQj4+Pj4+vK1+3pTCeCkaxGYQvpmimUgjjnchBje97j7/uapt3WgYdH3x8fHwKIR8fHx8fX9e+Tkph/O+tp4KD9A3yK6jdZGXnDwMd306fFnZTBh0ffHx8fAohHx8fHx9fT74ohe2+iBnF5exTwUH6fvrG75IohO0+lFP0T3zJtN36kO2eUjo++Pj4+BRCOwwfHx8f30B8MZ3xlftH3yWK4jB9g16/r9MMc3zjwzzxRDI+qhO5d//TC79w6vjg4+PjUwjtMHx8fHx8lfa99fCk9DIY6yEaXz4+Pj6F0IDw8fHx8fEN2RdPJMsuhLEeovHl4+PjUwgNCB8fHx8fXwm+sgthTNs0vnx8fHw1L4Q2IB8fHx8fXzm+mLJZZiG86GuqxpePj4+vXj6FkI+Pj4+PryRfLLVQZiFs90VV48vHx8enEBoQPj4+Pj6+AftiymZZZTDWQTS+fHx8fHwKIR8fHx8fX0m+WAOwrEIY6yAaXz4+Pj4+hZCPj4+Pj68kX6zLV1YhjLUXjS8fHx8fn0LIx8fHx8dXou/Hr/6mlEIY6yAaXz4+Pj4+hZCPj4+Pj69E34uvPyylEMY6iMaXj4+Pj08h5OPj4+PjK9FX1odljC8fHx8fn0LIx8fHx8dXsu+dj54MvQz+bP2x8eXj4+PjUwj5+Pj4+PhS8A17gfrLFqQ3vnx8fHwKoQHh4+Pj4+Mbou/Rk6+G9nGZqz4mY3z5+Pj4FEIDwsfHx8fHN2RfLEHx0tuPGs+9sjOQIviT5YcdPRk0vnx8fHwKoQHh4+Pj4+Pj4+Pj4+NTCA0IHx8fHx8fHx8fHx+fQmhA+Pj4+Pj4+Pj4+Pj4FEIDwsfHx8fHx8fHx8fHpxAaED4+Pj4+Pj4+Pj4+PoXQgPDx8fHx8fHx8fHx8SmEBoSPj4+Pj4+Pj4+Pj08hNCB8fHx8fHx8fHx8fHyJFkIbkI+Pj4+Pj4+Pj4+Pr54+hZCPj4+Pj4+Pj4+Pj08hNCB8fHx8fHx8fHx8fHwKoQHh4+Pj4+Pj4+Pj4+NTCA0IHx8fHx8fHx8fHx+fQmhA+Pj4+Pj4+Pj4+Pj4FEIDwsfHx8fHx8fHx8fHpxAaED4+Pj4+Pj4+Pj4+PoXQgPDx8fHx8fHx8fHx8SmEBoSPj4+Pj4+Pj4+Pj08hNCB8fHx8fHx8fHx8fHwKoQHh4+Pj4+Pj4+Pj4+NTCA0IHx8fHx8fHx8fHx+fQmhA+Pj4+Pj4+Pj4+Pj4FEIDwsfHx8fHx8fHx8fHpxDaYfj4+Pj4+Pj4+Pj4+BRCPj4+Pj4+Pj4+Pj4+PoWQj4+Pj4+Pj4+Pj4+PTyHk4+Pj4+Pj4+Pj4+PjUwj5+Pj4+Pj4+Pj4+Pj4ui+ENiAfHx8fHx8fHx8fH189fQohHx8fHx8fHx8fHx+fQmhA+Pj4+Pj4+Pj4+Pj4FEIDwsfHx8fHx8fHx8fHpxAaED4+Pj4+Pj4+Pj4+PoXQgPDx8fHx8fHx8fHx8SmEBoSPj4+Pj4+Pj4+Pj08hNCB8fHx8fHx8fHx8fHwKoQHh4+Pj4+Pj4+Pj4+NTCA0IHx8fHx8fHx8fHx+fQmhA+Pj4+Pj4+Pj4+Pj4FEIDwsfHx8fHx8fHx8fHl4zv/wEpRepwqQVGSQAAAABJRU5ErkJggg==" vertex="1" parent="1">
          <mxGeometry x="164.49" y="280" width="76.02" height="50" as="geometry" />
        </mxCell>
        <mxCell id="EOrUfLX56-fCI15zJVo0-30" value="View Service" style="text;html=1;strokeColor=none;fillColor=none;align=center;verticalAlign=middle;whiteSpace=wrap;rounded=0;" vertex="1" parent="1">
          <mxGeometry x="159" y="325" width="87" height="30" as="geometry" />
        </mxCell>
        <mxCell id="EOrUfLX56-fCI15zJVo0-31" value="" style="shape=image;html=1;verticalAlign=top;verticalLabelPosition=bottom;labelBackgroundColor=#ffffff;imageAspect=0;aspect=fixed;image=https://cdn2.iconfinder.com/data/icons/whcompare-servers-web-hosting/50/cdn-128.png" vertex="1" parent="1">
          <mxGeometry x="450" y="300" width="80" height="80" as="geometry" />
        </mxCell>
        <mxCell id="EOrUfLX56-fCI15zJVo0-32" value="" style="endArrow=classic;startArrow=classic;html=1;rounded=0;" edge="1" parent="1">
          <mxGeometry width="50" height="50" relative="1" as="geometry">
            <mxPoint x="670" y="498" as="sourcePoint" />
            <mxPoint x="530" y="348" as="targetPoint" />
          </mxGeometry>
        </mxCell>
        <mxCell id="EOrUfLX56-fCI15zJVo0-33" value="CDN" style="text;html=1;strokeColor=none;fillColor=none;align=center;verticalAlign=middle;whiteSpace=wrap;rounded=0;" vertex="1" parent="1">
          <mxGeometry x="460" y="380" width="60" height="30" as="geometry" />
        </mxCell>
        <mxCell id="EOrUfLX56-fCI15zJVo0-34" value="" style="endArrow=classic;html=1;rounded=0;exitX=1;exitY=0.51;exitDx=0;exitDy=0;exitPerimeter=0;" edge="1" parent="1" source="EOrUfLX56-fCI15zJVo0-22" target="EOrUfLX56-fCI15zJVo0-14">
          <mxGeometry width="50" height="50" relative="1" as="geometry">
            <mxPoint x="490" y="560" as="sourcePoint" />
            <mxPoint x="540" y="510" as="targetPoint" />
          </mxGeometry>
        </mxCell>
        <mxCell id="EOrUfLX56-fCI15zJVo0-36" value="" style="endArrow=classic;html=1;rounded=0;entryX=0;entryY=0.5;entryDx=0;entryDy=0;exitX=1;exitY=0.75;exitDx=0;exitDy=0;" edge="1" parent="1" source="EOrUfLX56-fCI15zJVo0-29" target="EOrUfLX56-fCI15zJVo0-31">
          <mxGeometry width="50" height="50" relative="1" as="geometry">
            <mxPoint x="240" y="320" as="sourcePoint" />
            <mxPoint x="290" y="270" as="targetPoint" />
          </mxGeometry>
        </mxCell>
        <mxCell id="EOrUfLX56-fCI15zJVo0-37" value="" style="endArrow=classic;html=1;rounded=0;exitX=1.03;exitY=0.516;exitDx=0;exitDy=0;exitPerimeter=0;entryX=0;entryY=0.5;entryDx=0;entryDy=0;" edge="1" parent="1" source="EOrUfLX56-fCI15zJVo0-11" target="EOrUfLX56-fCI15zJVo0-29">
          <mxGeometry width="50" height="50" relative="1" as="geometry">
            <mxPoint x="330" y="260" as="sourcePoint" />
            <mxPoint x="380" y="210" as="targetPoint" />
          </mxGeometry>
        </mxCell>
        <mxCell id="EOrUfLX56-fCI15zJVo0-14" value="Amazon S3" style="sketch=0;outlineConnect=0;fontColor=#232F3E;gradientColor=none;strokeColor=#ffffff;fillColor=#232F3E;dashed=0;verticalLabelPosition=middle;verticalAlign=bottom;align=center;html=1;whiteSpace=wrap;fontSize=10;fontStyle=1;spacing=3;shape=mxgraph.aws4.productIcon;prIcon=mxgraph.aws4.s3;" vertex="1" parent="1">
          <mxGeometry x="610" y="500" width="80" height="100" as="geometry" />
        </mxCell>
        <mxCell id="EOrUfLX56-fCI15zJVo0-38" value="" style="shape=image;verticalLabelPosition=bottom;verticalAlign=top;imageAspect=0;image=data:image/png,iVBORw0KGgoAAAANSUhEUgAAA4QAAAJQCAYAAADWlqq2AABPyUlEQVR42u3dP2hl55038Owu6gQ2000T1KgbQ1A1hWFSTaMmTCXcjKuFVFIR9KpYsECYUSEcxHqFERgLrV3IChhkdTOQF2SF2DtIYRgLCzsRIzsrry17AmGSIsV9399NrleWdaX759x7nuecj+Bb7Mb2fOY8599X5znn+VGj4J8//elPhYaPj4+Pj4+Pj4+Pj49vML4fGRA+Pj4+Pj4+Pj4+Pj6F0IDw8fHx8fHx8fHx8fEphAaEj4+Pj4+Pj4+Pj49PITQgfHx8fHx8fHx8fHx8CqEB4ePj4+Pj4+Pj4+PjUwgNCB8fHx8fHx8fHx8fn0JoQPj4+Pj4+Pj4+Pj4+BRCA8LHx8fHx8fHx8fHx6cQGhA+Pj4+Pj4+Pj4+Pj6F0IDw8fHx8fHx8fHx8fEphAaEj4+Pj4+Pj4+Pj49PITQgfHx8fHx8fHx8fHx8CqEB4ePj4+Pj4+Pj4+PjUwjtMHx8fHx8fHx8fHx8fAqhHYaPj4+Pj4+Pj4+Pj08h5OPj4+Pj4+Pj4+Pj41MI+fj4+Pj4+Pj4+Pj4+BRCPj4+Pj4+Pj4+Pj4+PoWQj4+Pj4+Pj4+Pj4+Pr+tCaAPy8fHx8fHx8fHx8fHV06cQ8vHx8fHx8fHx8fHxKYQGhI+Pj4+Pj4+Pj4+PTyE0IHx8fHx8fHx8fHx8fAqhAeHj4+Pj4+Pj4+Pj41MIDQgfHx8fHx8fHx8fH59CaED4+Pj4+Pj4+Pj4+PgUQgPCx8fHx8fHx8fHx8enEBoQPj4+Pj4+Pj4+Pj4+hdCA8PHx8fHx8fHx8fHxKYQGhI+Pj4+Pj4+Pj4+PTyE0IHx8fHx8fHx8fHx8fAqhAeHj4+Pj4+Pj4+Pj41MIDQgfHx8fHx8fHx8fH59CaED4+Pj4+Pj4+Pj4+PgUQjsMHx8fHx8fHx8fHx+fQsjHx8fHx8fHx8fHx8enEPLx8fHx8fHx8fHx8fEphHx8fHx8fHx8fHx8fHwKIR8fHx8fHx8fHx8fH1/3hdAG5OPj4+Pj4+Pj4+Pjq6dPIeTL3vejH/1IRLqM8wsfHx8fHx+fQsiXrc8NvUj55dD5j4+Pj4+PTyE0IHxD9bl5F0mnHDr/8fHx8fHxKYQGhG8oPjfqIukVQ+c/Pj4+Pj4+hdCA8A3U58ZcJN1S6PzHx8fHx8enEBoQvoH53JCLpF0Mnf/4+Pj4+PgUQgPCV7jPDbhIHqXQ+Y+Pj4+Pj08hNCB8hfrceIvkUwqd//j4+Pj4+BRCA8JXmM8Nt0hepdD5j4+Pj4+PTyE0IHyF+Nxoi+RXCp3/+Pj4+Pj4FEIDwte3zw22SJ6l0PmPj4+Pj49PITQgfAqhSE3j/MfHx8fHx6cQGhC+vuKmWkQpdH7m4+Pj4+NTCA1IDX1upkUUQudnPj4+Pj4+hdCA1NDnRlpEKXR+5uPj4+PjUwgNiEIoIkqh8zMfHx8fH59CaEDq4nPzLKIQOj/z8fHx8fEphAZEIRQRpdD5mY+Pj4+PTyE0IHXxuWkWUQidn/n4+Pj4+BIqhDYg3zB9bppFqr1YvfMfHx8fHx9fZsvAGRA+hVBEUiiFzs98fHx8fHwKoR2mwj43yyIKofMzHx8fHx+fQmhAFEIRUQidn/n4+Pj4+BRCA6IQiohS6PzMx8fHx8enEBoQhVBEFELnZz4+Pj4+PoXQDlM9n5tkEYXQ+ZmPj4+Pj08hNCAKoYgohM7PfHx8fHx8CqEBUQhFRCF0fubj4+Pj41MIDYhCKCIKofMzHx8fHx+fQmiHUQhFRCF0fubj4+Pj41MI7TAKoYgohM7PfHx8fHx8CiGfQigiCqHzMx8fHx8fn0LIpxCKiELo/MzHx8fHx6cQ8imEIqIQOj/z8fHx8fEphHwKoYgohM7PfHx8fHx8CiGfQigiCqHzMx8fHx8fn0LIpxCKiELo/MzHx8fHx6cQ8imEIqIQOj/z8fHx8fEphHwKoYgohHx8fHx8fHxRCG1AvmH43CSL1CfOf3x8fHx8fPn4FEI+hVBEFEI+Pj4+Pj6F0IDwKYRuePkcH44PPj4+Pj4+hdCA8LnhLfRG1/7H5zgxvnx8fHx8fAqhAVEIa1wG7X98jhXjy8fHx8fHpxAaEIWwpmXQ/sfneDG+fHx8fHx8CqEBUQhrWgbtf3yOGePLx8fHx8enEBoQhVAhtP/xOWbsf3x8fHx8fAqhAVEI61QG7X98jhvjy8fHx8fHpxAaEIVQIbT/8TlujC8fHx8fH59CaEAUQoXQ/sfnuLH/8fHx8fHxKYQGRCFUCO1/fAqh/Y+Pj4+Pj08htMMohAqh/Y9PIbT/8fHx8fHxKYR2GIVQIbT/KYQKof2Pj4+Pj49PIeRTCBVC+59CqBDa//j4+Pj4+BRCPoVQIbT/KYQKof2Pj4+Pj49PIeRTCC1Mz2dheoXQ/sfHx8fHx6cQ8imECiGfQqgQ2v/4+Pj4+PgUQj6FMNVSaP/jc7wYXz4+Pj4+PoXQgCiENS2F9j8+x4r9j4+Pj4+PL6lCaAPyDcNXhZvcVowv3yB8jhH7Hx8fHx8fXxk+hZBPIRziTa/9j8+xYf/j4+Pj4+NTCA2IQigilY3zHx8fHx8fn0JoQPgUQhGF0PmPj4+Pj49PITQgfAqhiELo/MzHx8fHx6cQGhCFUEQUQudnPj4+Pj4+hdCAKIQiohA6P/Px8fHx8SmEBkQhFBGF0PmZj4+Pj49PITQgCqGIKITOz3x8fHx8fAqhHUYhFBGF0PmZj4+Pj49PIeRTCEVEIXR+5uPj4+PjUwj5FEIRUQidn/n4+Pj4+BRCPoVQRBRC52c+Pj4+Pj6FkE8hFBGF0PmZj4+Pj49PIeRTCEVEIXR+5uPj4+PjUwj5FEIRUQidn/n4+Pj4+BRCPoVQRBRC52c+Pj4+Pj6FkE8hFBGFkI+Pj4+Pj08h5FMIRUQh5OPj4+PjUwgNCJ9CKCIKIR8fHx8fX/0KoQ3INwyfm2SR+sT5j4+Pj4+PLx+fQsinEIqIQsjHx8fHx6cQGhA+hVBEFEI+Pj4+Pj6F0IDwKYQiohDy8fHx8fEphAaETyEUEYWQj4+Pj49PITQgfAqhiCiEfHx8fHx8CqEB4VMIRUQh5OPj4+PjUwgNCJ9CKCIKIR8fHx8fn0JoQPgUQhFx/uPj4+Pj41MIDQifQiiiEDr/8fHx8fHxKYQGhE8hFFEInZ/5+Pj4+PgUQgOiEIqIQuj8zMfHx8fHpxAaEIVQRBRC52c+Pj4+Pj6F0IAohCKiEDo/8/Hx8fHxKYQGRCEUEYXQ+ZmPj4+Pj08htMMohCKiEDo/8/Hx8fHxKYR8CqGIKITOz3x8fHx8fAohn0IoIgqh8zMfHx8fH59CyKcQiohC6PzMx8fHx8enEPIphCKiEDo/8/Hx8fHxdV8IbUC+YfjcJIvUJ85/fHx8fHx8+fgUQj6FUEQUQj4+Pj4+PoXQgPAphCKiEPLx8fHx8SmEBoRPIRzITa/9j8+xYf/j4+Pj4+NTCA2IQlizG137H5/jxPjy8fHx8fEphAZEIaxxGbT/8TlWjC8fHx8fH59CaEAUwpqWQfsfn+PF+PLx8fHx8SmEBkQhrGkZtP/xOWaMLx8fHx8fn0JoQBRChdD+x+eYsf/x8fHx8fEphAZEIaxTGbT/8TlujC8fHx8fH59CaEAUQoXQ/sfnuDG+fHx8fHx8CqEBUQgVQvsfn+PG/sfHx8fHx6cQGhCFUCG0//EphPY/Pj4+Pj4+hdAOoxAqhPY/PoXQ/sfHx8fHx6cQ2mEUQoXQ/qcQKoT2Pz4+Pj4+PoWQTyFUCO1/CqFCaP/j4+Pj4+NTCPkUQoXQ/qcQKoT2Pz4+Pj4+PoWQTyG0MD1fNX0Wprf/5ejb29trZnt7u7G5udnM4uJiM0tLS42ZmZnGv/7rv/aVubm55n+r9d9t/TnxZ7b+fOPLx8fHpxDyKYQKIZ9CqBDa/wbgi8L14MGDZglbXl5ulrJ+S94gMj093bSFMay7u7uNg4MD48vHx8enEPIphOWVQvsfn+PF+ObiOzk5aZa/VvGbn59Psvj1kvi7rK6ufvdU0f7Hx8dX60JoA/INw5f7DW7E+PINw1fnY8X+V67v6Oio+eQvilKVyl83JXF9fb25DWJb2P/4+Pjq4lMI+RTCIZZC+x+f48T+l4rvbAGM6ZV1K4BXZXZ2trltYhvF01L7Hx8fn0JoQPgUwr5Lof2PzzFi/yvTF9Mj4ylYlB2lr7cniJe9h2j/4+PjUwgNCF8Nbnb7uem1//FV/bhQCNPzxcdUPAUs/oM1sU1j29r/+Pj4FEIDwlfjG18RUQhT9CmB5ZdD9wd8fHwKoQHhUwhFFELnv6H5YiqjElh+OWxNK3V/wMfHpxAaED6FUEQhdP4bqO/Zs2fNj57EYu0KWVpZWFhojk2MkfsDPj4+hdCAKIRukkUUQufnwnyHh4eNtbU1xSuTxFgdHx+7P+Dj41MIDYhCKCIKofNz7754T83TwHyztLTUHEPHBx8fn0JoQBRCEVEInZ87nha6tbXVmJmZUaoqkij1MabdTCd1fPDx8SmEfAqhiCiENTo/n56eNjY2NhTBCifGttNi6Pjg4+NTCPkUQhFRCGtwfo4i6P1AxdDxwcfHpxDaYRRCEVEIa3R+VgTlsmLo/oWPj08h5FMIRUQhrOD52TuC0kkxdP/Cx8enEPIphCKiEFbs/Bzr1CmCclkxbH2V1P0LHx+fQsinEIqIQliR8/Pe3p7lI6SrRe5jn3H/wsfHpxDyKYRSSP7pn/6pmX/+53/+Xv7lX/7le/93659r5ey/azuKQth9jo6OGouLi0qO9JTl5eXmPuT+hY+PTyHkUwhFRCHM6Px8cnLS2NzcVGqk70xPTzf3JfcvfHx8CiGfQigiCmEG57+Y6jc7O6vMSKGZn5/vaxqp+xc+Pj6FkE8hFBGFcIC+eCq4urqqvMhAs76+3tzX3L/w8fH1XAhtQL5h+Nwki9Qnzn+Nxv7+vq+HytASHyg6PDx0/8LHx9fbgxsDwqcQiohCWIwv1o2zuLyUlY2NjQsXtXf/wsfHpxDyKYQiohAO+PwXT2gsJSEpPC08Pj52/8LHx6cQ8imEIqIQDuv8t7W1pYxIUol90v0LHx+fQsinEIqIQjjA89/p6WljaWlJAZEkE/tmuymk7l/4+PgUQj6FUEQUwj58PhwjOST20Ys+OOP+hY+PTyHkUwhFRCHs0WeKqOSWBw8euH/h4+NTCPkUQhFRCPvxxfS7lZUVBUOyTOy7rSmk7l/4+PgUQj6FUEQUwi4SX25cWFhQLCTrxD4c+7L7Fz4+PoWQTyEUEYWww+zt7XlfsIcsLi42s76+3pxmG4n32c4mPszT7uf8Pxvvbbb+O/HfbP33bevu3yuMfdr9Cx8fn0LIpxCKiEJ4ReLdKyWifWZnZxvLy8uNzc3Nxu7ubtuiMejxPTk5af7ZMV5hiaIYNmN0+XuF7l/4+PgUQj6FUEQUwjZZXV1VHM5kenr6u/IX5StKWOrj2yqKYQ57/B2M5f8mnrS6f+HjUwgNCJ9CKCIKoTLYtgBub283Dg4OKnN9i79L/J0UxL8n9nX3L3x8CqEB4VMIRUQh/McTpfn5+Vp/dGRjY6PvApjbO6Lxd67zR4Niim03T3zdX/HxKYQGhE8hFJHKFcK6lsEoQvE+2dkPvNT1+hbbILZFHcth7Pu9lkL3V3x8CqEB4VMIRSTrQli3Mjg3N/eDEuj69v2f2DbxRdPYVkqh+ys+PoXQgPAphCJS0UIY0yPrUAZjuYG1tbXmEg6ub935YpvFtqvD8iO9lEL3V3x8CqEB4VMIRSTLQhhlsOofFmk9DXz27JnrW5++2IaxLav+1LDbUuj+io9PITQgfAqhiGRXCKteBpeWlpqLubu+DcYX2za2sVLo/oqPTyE0IHwKoYhkVgjjRreqZbDTaaGub8X4WtNJ61wK3V/x8WVcCG1AvmH43CSL1Cc5nP9i2l8VvyIZ68kdHR25vpXki21fxfUr41i5arqx+ys+vnx9CiGfQigitSqEVSyDKysrhRVB17diimGMSZ1KofsrPj6F0IDwKYQiknwhrFoZjPfXWlNDXd/S88XYVOkdw8tKof2Pj08hNCB8CqGIJF8Iq/LUJr5wef5jMa5v6fp2d3cr81XSOIaMLx+fQmhA+BRCEcmuEFblox+xUPpFT2lc39L2xZjF2FXlo0XGl49PITQgfAqhiGRTCKtwIx5TD09PT13fMvfFGFZhGmmsxWh8+fgUQgPCpxCKSPKFMKbr5XzjPTMz09Fagq5vefliv4yxzXnfjL+D8eXjUwgNCJ9CKCLJFsLj4+Ps39e66nP/rm/5+mJsc36vNQptHGPGl49PITQgfAqhiCRXCONmO9cnMJ0+FXR9q4Yvpl/mvK/GsWZ8+fgUQgPCpxCKSDKF8OTkJNvlJa56V9D1rZq+GPNc99lwG18+PoXQgPAphCKSTCFcXV3N9guirh/19m1sbGS578YxZ3z5+BRCA8KnEIpI6ee/mH6X47S71gLzrh98MV04xymkcewZXz4+hdCA8CmEIgphaee/g4ODLKfbdfrhGNe3+vhynEI6PT3dPAaNLx+fQmhA+BRCEYVw6Oe/eG9wdnY2+wW+XT/4Wj/xi4LYR3Lap+MYjGPR+PLxKYQGhE8hFFEIh3r+W15eznYNN9cPvst+4t3Sur1PaP/j41MI7TAKoYgohJV8bzCm1RVdBl3fqu/L7d3Yft8ntP/x8SmEdhiFUEQUwo5ydHTULFm5vWPl+sHXrS/2nZz29Tg2jS8fn0JoQPgUQhGFcKDnl/n5+SxukMN59gbZ9YOvF19OpXBxcdH48vEphAaETyEUUQgHd37Z3NzMpgye/9CG6wdfr774xUIuvwiJY9T48vEphAaEz02yiEJY+PkllyUmLiqDrh98/fpin8qlFPayFIX9j49viIXQBuQbhs9Nskh9MqzzSw5rtF22xqDrB1+/vti3cjkOjC8fX7o+hZBPIRSpUUZHRxvXr1/vOCMjI0kWwhw+w3/VgvOuH3xF+HIphfHVUePLx6cQGhCFUESGkGvXrjXGxsYaExMTjdu3bzcmJyf7vpmbmppq/ndu3brV/O9eVhYHfX45PT1tzMzMZF0GXT/4ivTlUArjmI1j1/jy8SmEBkQhFJGCE+UsSloRxa+Xohgl8caNG82nj8MohEtLS9mXQdcPvqJ9sc/Nzc0lfWzEsWt8+fgUQgOiEIpIAdM+x8fHm0//Urvhi4K4urraXHh9EOeX/f39SpRB1w++QfiOj4+Tf3oex7Dx5eNTCA2IQigiXSamZ0YJvHPnThZfFWwtTB3lcG9vrxZPQOJGPG7IXT/4yvSlXgrjGPYEnY9PITQgCqGIdDEdNKZk5lIC22V2draxvb194fILnZ5fUv6QTLdl0PWDb5C+1J+kx7FsfPn4FEIDohCKyCXJ7WlgN4mnhrGwdjfnl/gYRRWmwbl+8A3LF9O2Uz5mrvrAjPHl41MI7TAKoUhti2C8h1fFInhVMbzsZ2VlpTKf03f94BuWb21tLdnjJmzGl49PITQgCqGI1LAItiuG7X4ODw+zval1/eAr25fyV3nj2Da+fHwKoQFRCEVq/45gVaeGdpuNjY0LPzaR6g1tN18Udf3gK8uX8seYLluGwvjy8SmEdhiFUKTyXw2twsdiBvFxlnj3qfWT6scxul1k2/WDr0xffPAot6eExpePTyG0wyiEIpXN2NhY4+7duwrgFU8OonCl+mSjl4/IuH7wlemLd11TXYbC+PLxKYQGRCEUqc1TwRQXk5fup7a6fvDl6Ev140xnZwUYXz4+hdAOoxCKVPZdQU8F80+8N+j6wZerL9X3CS96Smh8+fgUQjuMQihSmUxMTChTFXm/sdvF510/+FLzpfrV3vNPCY0vH59CaIdRCEUqMUV0cnJSmapIel1v0PWDLzVfTHtO/Smh8eXjUwjtMAqhSNa5du2a5SQqlMXFRdcPvkr55ufnk/5Yk/Hl41MI7TAKoUjWZdD7gtXJ9PR04+joyPWDr1K+vb29pNclNL58fAqhHUYhFPHxGEki29vbrh98lfStr68nuy6h8eXjG2IhtAH5huFTFKQOGR8fV6Aq/FVR1w++qvlS/Oro6uqq8eXjG7JPIeRTCEWUQbniaYXrB19VffHeXmrHnSnafHwKoR1GIRTJbpqo8lS9rK2tuX7w1cIX7+6ldOzFVFbjy8enENphFEIRH5CRUtccjOl0rh98dfCdnp4m9yEn48vHpxDaYRRCEWVQSsvW1pbrB1+tfKmtTXh+oXrjy8enEPIphCLJLTpvncFq5vwC2a4ffHXwxRPxeDKe4hIUxpePTyHkUwhFksvk5KTyVNG0ezLh+sFXdV88GU/pWIyprMaXj08htMMohCLJZWJiQnGq2dNB1w++OvhSe0oY01iNLx+fQmiHUQhFksrY2JjiVOHEJ/hdP/jq7Isn5Dn8gsb48vEphHwKoUgp7w36iEw9FqF3/eCrsy+lxeov+yWN8eXjUwj5FEIR7w3K0L5q6PrBVxffgwcPkl0P1Pjy8SmEfAqhSCm5ceOG0lTTdwddP/jq5kvpXcJwGF8+PoWQTyEUMVVUSl/zzPWDr06+lL44WsS0UePLx6cQ8imEIj3n9u3blS1Cs7OzjcXFxe8yPT3t6aDrBx9f8ylhlaaNGl8+PoWQTyEU6SnXr1+vROmJRZ43NzebT8L29vY6Om7jn4t3idbX1xvz8/O1fjro+sFXR18UsapMGzW+fHwKIZ9CKNJTpqamsiw5cQMVN3Nnp1r1ez45OTlpFsTl5eXaPR10/eCro+/4+Lgy00aNLx+fQsinEIp0nfHx8SyfBLZ74lXkuSXKYbxjlNLn6XtJ/B1cP/j42v/EOaUK00aNLx+fQsinEIpU+ulg3LQdHh6Wcn6JAppjMYynqPGelOsHH1/7n1QWqu93kXrjy8enEPIphCKVfDoYN0lXFcFhnF+iWMXTtlQ+VV/000HXD746+1I5rmMKq/Hl41MI+RRCEU8HEy40p6enyUwxK/LpoOsHX519qXxcJt5hNr58fAMohDYg3zB8CoZ4OljsUhEHBwdJn1+2t7eT3obxxVXnZz6+zhLnmxSO21gax/jy8RXvUwj5FEKRjJ4Oxg1RfNAlh/NL3ESmuK5hmHrZhq4ffHX2xS+iUjh+jS8fn0LIpxCK1HbdwdXV1ezOL1G8osRWYTu6fvDV2RfrkaZw/Ha6jqrx5eNTCPkUQpGecuvWrUqWwbLPL6ncTEaOjo6cn/n4uvzzU5k22st0b+PLx6cQ8imEIh1lZGSksmUwhfNLfL6+7Cmk/WxL1w++uvtSmDba63uExpePTyHkUwhFrsyNGzcqWwZTOb/E07n5+fnsng66fvDxpfOk3/jy8SmEfAqhyEBy586d5D4gU8XzS7xXGEXXO5iuH3x5+VKZNtrLe4TGl49PIeRTCEUuzejoaHILzvf6NdFczi+xplguTwddP/j4/p4Uvhwcy9oYXz4+hZBPIRSp9HTRw8PDWpxf4onDMN5LWl5edn7m4yvAF8dSjlPpjS8fn0LIpxCKXJrbt28nUwY3NjZqdX6JJ6GDvsns9VP1rh98fOU+2b8o8R6y8eXjUwj5FEKRQpPSVNFnz57V8vyytbWV9LuYrh98fH//MFSOH5Yxvnx8CiGfQiiSxWL0sTRDnc8vMVV2ZmYmuaeDrh98fGktP9HtcW18+fgUQj6FUKRtJiYmkiiDS0tLzi///+f09LSxsLCQ3JdaXT/4+P6eMr4S3O+HZYwvH59CyKcQirTN5ORkEoVwf3/f+eXMT7xLmcrTQdcPPr7/TZSxss+XsSai8eXjUwj5FEKRyrw/GO8OOr/88Cem0PY6hbSXD0+4fvDx5bEeYbdP/40vH59CyKcQilyYa9euJVEI48t9zi8X/xwfH/c0hTS2qe3HxzcYX9nnzFgP0fjy8SmEfAqhSN8ZGxtLohC2vizq/HLxT2yftbW1rp642n58fIPzxRO6nL40anz5+BRCPoVQJNkPyqysrDi/dOjrdA20mGpq+/HxDc4X7/Dl9KVR48vHpxDyKYQiyS5Iv7Oz4/zShS+mkF72XmHrfUzbj49vcL4UPizTzS9+jC8fn0LIpxCKJPuF0a+//tr5pUtfTCGNZTouW8vR9uPjG5wvns6Vfe7c3Nw0vnx8RRRCG5BvGD7FQ1LN3bt3S72h+cUvftF4+vSp80uPvrghbPehCduPj29wvvilTNmFcGtry/jy8RXwoxDyKYRiyYkS8x//8R/OL3364olgFMHzTwxsPz6+wfp6XRKmqMQsAePLx6cQ8imEIj1nZGSk9EL4n//5n54QFuA7OjpqfvXw5OTE9uPjG5Kv3bRthdD+x6cQGhA+hVCyyPXr10svhB988IFCyMfHl6Wvm6VgBpF4Qml8+fgUQj6FUEQhdP7j4+MrwRfv8JV9DjW+fHwKIZ9CKJJ1Ifz8888VQj4+vix9na4LqhDy8SmEBoRP+RCFsE2++OILhZCPjy9L3+HhYenn0FiX1Pjy8SmEfAqhSNZPCJ1f+Pj4FMLeEgbjy8enEPIphCKmjDr/8fHxDdl3enqqENr/+BRCA8KnEIpCqBDy8fHV1acQ2v/4FEIDwqcQikKoEPLx8SmEpSQ+bGN8+fgUQj6FUCTbQvhf//VfCiEfH59C2GNi6Qvjy8enEPIphCLZFsKdnR2FkI+PL1vfwsKCQmj/41MIDQifQih5ZnR0tPRCuLm5qRDy8fFl61taWlII7X98CqEB4VMIJd+UXQj//d//XSHk4+NTCBVCPj6F0IAohCJ1LIT/9m//phDy8fEphAohH59CaEAUQpEyMjk5WXop/O///m/nFz4+PoVQIeTjUwgNiEIoMuzcvn279EL4wQcfOL/w8fEphAohH59CaEAUQpFhZ2JiovRC+MYbbzi/8PHxKYQKIR+fQmhAFEKRYWd8fLz0Qjg9Pe38wsfHl6Vvbm5OIbT/8eVeCG1AvmH4FA9JNdeuXSu9EEb29/edX/j4+LLzpbB0j/Hl4+svCiGfQii+NJpAIVxbW3N+4ePjUwi7zIMHD4wvH59CyKcQiuT/pdGYduX8wsfHpxB2l729PePLx6cQ8imEIv3l5s2bSTwlPD4+dn7h4+PLxnd0dFT6eXN2drb5lPDk5MT48vEphHwKoUhvGRsbS6IQbmxsOL/w8fFl44uncymcO1sf54r3CdsVQ+PLx6cQ8imEIkkvPXHRtFHnFz4+PoWwmGJofPn4FEI+hVDkBxkdHU3i/cGzOT09dX7h4+NTCAuaSmp8+fgUQj6FUOTC3Lhxo3H37t3kbmLiBsb5hY+PLwff7u5usoWwlfn5+WZxNb58fAohn0Io0szIyEhyTwXPZmFhwfmFj48vC19MzUy9ELaysrLyvRkYxpePTyHkUwilph+PSfGpYLtpo84vfHx8CmFxmZmZ+d4sDOPLx6cQ8imE4sMxSaZ1w+L8wsfHpxAWn6Wlpb6fFtr/+BRCA8KnEIopogOd2uT8wsfHl7pvfX09y0JYxNNC+x+fQmhA+BRCySDXrl1rTE1NZXmz8uzZM+cXPj6+pH2Li4vZFsKzTwvjfGt8+RRCA8KnEIr3BZNKfL3P+YWPj08hHM7Twv39fePLpxAaED6FUKqS8fHx7G9QYtqo8wsfH59COLxsbGwYXz6F0IDwKYSSe27evFmZ31g7v/Dx8SmEaU4htf/xKYQGhE8hlARz69atSt2YFD1t1PmPj4+vSF/VymArc3NzjePjY/sfn0JoQPgUQlEGy83q6qrzCx8fn0KY4HuF9j8+hdCA8CmEogwOPNPT084vfHx8CmHJMzXsf3wKoQHhUwhFGSwtBwcHzi98fHwKYYnZ2tqy//FVuxDagHzD8Ckuogz29sW7XtbHcv7j4+MbtO/w8LA2hfCiKfz2P74q+RRCPoVQlMHEEl/uiyeDzi98fHwKYZql0P7HpxAaED6FUCwtUXhmZ2cbDx48cH7h4+NTCBMvhfY/PoXQgPAphGLR+UKzubnZODk5cX7h4+NTCDMohfY/PoXQgPAphFJCxsbGKjk99OjoyPmFj48vO198gTMWcq9jKVxbW7P/8SmEBoRPIZRh5tq1a427d+9WanroVQvPO7/w8fHl4Ds9PW2sr683l8qpUymMD3/Z//gUQgPCpxDKEDIyMtKYmpqqzNqCF00PdX7h4+PL3RfntXgPen5+vjalsN06hfY/PoXQgPAphFJgJicnK3HjsLy83HZ6qPMLHx9flXx7e3vNd+3qUAr39/ftf3wKoQHhUwhlUJmYmKjE9NC4OXJ+4ePjq5svnhrGrIg4D1a1EM7MzDSOj4/tf3wKoQHhUwil6Fy/fr0S00OdX/j4+Pj+1JxeGR/SqmopfPbsmf2PTyE0IHwKoRT53mDOH5GJqVLdTA91fuHj46uLL86NVfwIzcLCgvHlUwgNCJ9CKHV/bzA+ptDL9FDnFz4+vjr6qvYRml6/PGr/41MIDYhCKHImN27cyHK60Pb2tvMLHx8fXw+p0kdoevnIjP2PTyE0IAqhyD8yOjqa3VTRWJg51uFyfuHj4+PrLzGdNPdiGL8gjGuC8eVTCA0In0IoNZgqGtOdnF/4+Pj4ivVFoVpbW6vN+4T2Pz6F0IAohCKZTRWNi/35z4w7v/Dx8fEV6zs8PGzOwsixFG5tbRlfPoXQgPAphFLFr4rGb60v+ry48wsfX7V8j5581fj5rz5uvPj6w45y7/6njSdffmP7DcAXS1bEVMzcSmGn6xM6fvkUQgOiEErtc+vWreymiDq/8PFV1xdl8LlXdho/+j//t6u88NqHtt+AfPGLuJWVlUpOHTW+fAqhAVEIxQL0GXwkIH5D7fzCx1cP39z2J12XwVa2H31hfAfoy+1pYSdTR40vn0JoQBRC8SGZxMtgJ9N+nF/4+KrjiymgvRbCmDpqfAfri4/OxNO3XErhVV8dNb58pRZCG5BvGD6lR9plfHw86Yv49PR04+DgwPmFj69mvufnP+i5EL787ifGd0i+XJaoWFxcNL58yfoUQj6FUErN1NRUJcqg8wsfX3V8T//yt57LYOSnb/zO+A7RF+9251AKY6qr8eVTCA2IQiiSydPBbsug8wsfX3V8v/79074KYcT4Dte3t7fXPG+nXAhnZ2cbJycnxpdPITQgCqFI6stM9FIGnV/4+Krje+X+Ud+FcOfwxPgO2Rfn7dRL4ebmpvHlUwgNiEIokvIi9L2WQecXPr40fFHEWh+EmXxzv+NidvbnZ+uP+y6E73z0pOttFP9OLFsRy1289Paj79Y0NL7VKYVhu+gpofHlUwgNiEIo3h1MaJ1Bxy8fX56+KH8XrR0YS0h04/vJ8sO+C2Enf2YrUfyivF60pqGF7qtXCi96Smh8+RRCA6IQincHE57K4/zCx5e+r10ZPFuuLnta+L1rVp9lMBJPKTt9KniVO0qh/a9apfDo6Mjxy6cQGhCFUDwdTCnLy8uOXz6+TH1XlcFOnty1for4oEwkPL08FWxXCuPLp/a/6pTCWC7D8cunEBoQhVBqmevXr2f15TfHLx9f2r5uyuBlTwtbP289PCmkEEbOvgPYzVPBixLTWIsshXXZ/+Lrozm8S+j8wqcQGhCFUGqT27dvJ3dh7vUjMs4vfHzl+nopg2dz7/6nP/DNvP9ZYYVw+9EXPT8VHHQprNP+l+o6hWdfU3B+4VMIDYhCKLXI6Oho5d4bdH7h4yvH128ZPPuu36MnX333341F5YsqhGenp/byVHCQpbBu+9/a2lrSTwmdX/gUQgOiEEotcvPmzaQuxvPz845fPr4Mfft//HMh5ers+36x9uAvdz4v7L8Z+fGrv2kWwX6eCg6qFNZx/1tYWEj2y9bOL3wKoQFRCMXHZDKeKur8wsc3XF8Ry0Lkniiv9r/ufKenp42ZmZnk3mF3fuFTCA2IQii1yNjYWFIX4a2tLccvH1+mvrqXwcjL735i/+vBt7+/n9xTwvjwjfMLn0JoQBRCqXxu3bqVzMU3fkP87Nkzxy8fX6a+It/z84SwfvvfyspKcktQOL/wKYQGRCGUSmdkZCSpi+/u7q7jl48vY1+8Q1jnMjh277feIezDF78QTG3qaJicX/gUQgOiEEplMz4+nsxFd25uzvHLx1cBX3zBs66F8Ne/f2r/69MXvxhM8ReVzi98CqEBUQjF2oMDzuHhoeOXj68ivlhgvm5lML6Gav8rxre0tJTMtSm+gOr8wqcQGhCFUCqbu3fvJnHBjYu/45ePrzq+WIuwTmUwvq5q/yvOd3x8nNRTwvgKqvHlUwgNiEIovi46xCk5jl8+vvx9dZo6Gu9O2v+K9aW0YH2sSWh8+UophDYg3zB8ipHF6FNZ68nxy8dXPV8d1iWM4mv/K953dHSUTCGcn583vnyl+BRCPoVQarEYffzm1fHLx1dNX9W/OhqF1/43OF8s+5BKKYyCanz5FEI7jEIolcno6GgSF9jp6enGycmJ45ePr8K++NhKlaeK2v8G50vpKeFFv7w0vnwKIZ9CKJabKGDRX8cvH1/1fVVcsL71VVHjO1hfKk8Jl5eXjS+fQmiHUQilOrl161YSF9i9vT3HLx9fDXxH3/618fz8BwMpZs+9stOYfHO/+S7f2cT/L/63QX9V1PgO1ndwcJDMjBbjy6cQ2mEUQqlM7ty5k+THZBy/fHzV9RU9dfTF1x823vnoyZWe+Gfiny3yz46Ca3yH54uPuqRQCqOcGl8+hdAOoxBK9hkZGUniwrq+vu745eOrke+XO58XUsZ+/OpvGtuPvujaFcWwqCeGZ5eZML6D98X7eylct7a3t40vn0Joh1EIJf9cv349+d+0On75+PL2Pf3L3xq//v3T5lPBl9/9pLDlJ1547cPGky+/6dkW/25Rlngvcub9zxorO3/oqaDa/zr3xcfHYspmFd4jNL58CiGfQiilZ2JiIvl3MRy/fHz5+HYOT5pP3+K9vZiaOXbvtwN5b6/fMthKlNVBrY8Yxtb7jFESHz35yv5XkC+Fj8sU8R6h8eVTCPkUQvFBmUu+Lur45eNL3xdF56W3HxX+Xt5V00SLKIOt7TfIj9xc9NGb2FY//9XHHf0d7H8XZ3d3txLrERpfPoWQTyGU0jM5OZn8ek6OXz6+NH1RBstY4mEQUzKLeqex6Kec9r/2SWHaaBRT5xc+hdAOoxBK1snhN6yOXz6+NH0xHXLYJSqerg1q+w1qeutliXcO7X+9+eIdvrKvX5ubm84vfAqhHUYhlHwzOjqa9HITjl8+vrR9w5wm2konS0v0uv3KeEoY7xfa/3rzpfC10cXFRecXPoXQDqMQii+MDvorbY5fPj6FsJVBbr94l1AhzGf/i9klOfxS0/jyKYR8CqEkmxs3bmQx3cbxy8enELaWdhj09hv2tFGFsD9fFLKyr2POL3wKoR1GIRRLTvSRvb09xy8fn0LYUWKdv0FvvyidCmE+x0cKy090ch0zvnwKIZ9CKJac6OOT3Y5fPj6FMBIL2yuE9r/vfel2ezvrL40aXz6FkE8hlNovOeH45eNTCBVC+1+vvng6l/OXRo0vn0LIpxBKrQvh/Py845ePTyHsOD9bf6wQ2v9+EIXQ+U8hNCB8CqH0mKmpqSw+1+345eNTCCM/WX448O33/PwHCmFmx0fZC9T3s/SE8eXrqhDagHzD8ClJFqUfZtbW1hy/fHwZ+4b9NC0SS0MMavvtHJ4M/e8T02Dtf/35lpaWSr2WxZ/v/MI3DJ9CyKcQSuUK4dbWluOXj08hLLRA9bP9Xnr7kUKY4fERv1ws81q2sLDg/MKnENphFEJRCBVCPr76+aLMDLtAxZTOp3/5W+Hb79GTr4b+d4ns//HP9r8+fXEtKft65vzCpxDaYRRCUQgVQj6+2vmimJXxlDDWIyx6+02+uT/0v8cvdz63/ymExpdPIeRTCEUhdPzy8eXti/f63nv8dfOJYXwJdOzebwdepuLPK2r7rez8YSgfxHn53U+a2+jXv3/a8VNO+9/VP4eHhwqh859CaED4FELJsRDGRdzxy8dXXV8Un3v3P238/FcfF/5F0pg6etV0y05+ii6D4YqnplH83np40rfR/qcQOr/wKYR8CqEohI5fPr7K+OJLnu989KTxwmsfFlK+onT1+hNTNosogTHddPvRF40nX35j/1MIjS+fQsinEIpCqBDy8fFd5YtSWOSC9d0sRxFP7Yp899H4KoTGl08htMMohKIQeoeQj4+vC98gFrWPYhhPDC96Py8KY/xvg/gITkyLNb4KofHlUwj5FEJRCBVCPj6+DnxRoIbxFc8of/Exl0H/Oc+9stOcCmt8FULjy6cQ8imEohAqhHw18MXNf+tDKd0mSkq7tJ5wVXn7xXp/UaDKWPNvkIl3Ih0fCqHx5VMI+RRCUQgVQr6K+6IIDrpcxLINnX6dMrftN4ipoqlkbvsTx69CaHz5FEI+hVAUwk6zsrLi+OXLyjeMMnj2C5qdrFWX0/Yb1lTRMlPEUhiOX4XQ+PIphHwKoQwlU1NTpV5Al5aWHL982fhiquOwy0UsZF6V7RfTbKteBlsL0Dt+h+vb3d1VCF0/FEIDwqcQSi+ZnJws9QI6Nzfn+OXLxlfG0614SliV7VfEuoO5JBald/wOzxevHyiErh8KoQHhUwglw0LY6UXU8cuXgu+ltx+VUi6umjaaw/aLd+vqUgaLnjrq+E2/EM7MzBhfPoXQDqMQSp65detW6YXw+PjY8cvnCdcl+fXvn2a9/eoyVXRQU0cdv1f/xOsHObz+YHz5FEI+hVCSy8TEROmFcH9/3/HLl4Uv1emHqW+/Ok0VHcTUUcfv1T8LCwsKoeuHQmhA+BRC6SU3btzIYukJxy9f2b4yn3LF2oS5br8oRHUtg50+4XX89u8r+zq2trZmfPkUQjuMQih55vr166VfSDv5zarjl69s38rOH5Kdepjy9ouP4tS9EM68/5njd4C+eO0glzV1jS9f34XQBuQbhk9JqldGR0dLv5BGHL98qfvipr7MUpHr9nvulZ3aF8JYu9LxOzhfCktObG9vG1++ofgUQj6FUCq5OH3k4ODA8cuXtO+nb/yu1FKx/eiLLLffIL7MGiXzx6/+ZiBPYoc9do7f/n2bm5ulX8P29vaML59CaIdRCMXSE4P87arjl69sX9lTH2PKao7b78mX3xRatOJ9yvhvRoosha33NGOpiCK9l42b47cY3+LiYvK/1DS+fAohn0Iolp64InFBd/zypeo7+vavSU87TH37xTqK/ZasKOTvPf76e77JN/cL275vPTz53jYo4mM4RZRBx+/VyeG1B+PLpxDyKYRi6YkOcnJy4vjlS9IXX4ksuxC++PrDrMe3n1IYT+/i3z/vK3Kx+4sWke/naWFRZdDxe3liqmbZ1675+Xnjy6cQ2mEUQvGl0SISHwZw/PK1+4mndFHMzhaDYflSWTqhjPGN5TaKegcuxi7KXS9PBS/yvfPRk8K27WU/3Y5/kWXQ+eXyrK+vl37tWl5eNr58CqEdRiGUvDMyMpJEIVxdXXX88l14M37+/b34wMtla7sV7eumxAwyj558NZTxjffzYorq+S+ExhTNKIj9ju/L737S9VPBi8Y3tscwlvVoPS0cu/fbjqaeOn6H55udnS392hUftTG+fAqhHUYhlOxz586dpKeNOn7r5+tkimEsBXFRaSja10kRGEbiidigxzeK9mUfa4mS2O0TsIt+2pXCdk8F241vEctahKWTn9jXLlt+pPUeouN3OL6jo6Mkrlv9fGHU+PIphHwKofiwzLk8ePDA8cvX1ftmUdbOPy0sfCHgRNazi3fmBjW+V5WdfqZFtvs5XwoveyrYbnzj3cp+t+svdz7vujSf/yXB2Y/SOL8Mxxdfp079/Xfjy6cQ8imEkk3Gx8eTuLC2+9qo47c+vl4/PhJlZhC+eH8ulUIYUzYHMb4XFZwiS+FlP/E0MKYFX/RRl072v5ja2u92vWz68WUFOkpglMnzdueX4fhSmC4aBuPLpxDaYRRCqURGR0eTKISRmAbk+K2nr9/lCeLfjZvzIm337n+aTCGMqZxFjm+3TwV7LYWD3P/iz+93u3byVNLxm5Yv1v1L/d1348unEPIphJJdpqamkr3AOn6r7ytirbqrplb2kiKeQA36S6PDfCrYSykc5P7X7xPcKNmO3/x8cZ1I+TUH48unEPIphJJlbt68mcQFdnp6+gfvZDh+q+0rsgy28sJrH/b0RczzKeIdtSJz0RIQw34q2G0pHPT+1+/6jo7fvHxxfYjrRKozWowvn0LIpxBKthkbG0tm2uj5z3g7fqvriyUOii6DRT4tTKkMRmIKa6/j289C6/2UwkHvf1H++9k/HL95+VL5mEwR7w8aXz6FkE8hlORy9+7dJJ8SOn6r6Ysy2M/N/KCfFha1zl2ReentRz2Nb7eLqxdZCge9/8U26WcpD8dvXr4UPiYTWV9fN758CqEdRiGU6uX27dtJPiV0/FbPN6wy2M/TwigLqRXCmOLYzfgO+qlgJ6Vw0PtfPx+WidLv+M3HF+/spXKN2t3dNb58CqEdRiEUy08M6ymh47davjLKYC9PC6NAplYIL/qwTNlPBa8qhcPY/7p9ShgL2reMjt98fKk8HYzrk/HlUwgNiEIolczIyEgyhfDsF0cdv9XxlVkGu31amNoHZVo5X2hTeCp4WSkc1v4XT/viozudxPGbny+lp4PLy8vGl08hNCAKoZg2OqzEelOO32r4UimDnT4tjCUJUiyEMZW13fiW+VSwXSl0fPD164vZIqk8HSxquQnjy6cQ8imE4mujHWZxcdHxWwFfamXwqqeFKX5Qpt2HZVJ6KnhR3np44vjg68sX75Sn+DqD8eUbeiG0AfmG4VOIJKWvjbYSnxl3/ObrG8Q6g0UnfFGqcvG2SlZYU33XsZvF6x2/fO18p6enSV2P1tbWjC9faT6FkE8hlNotUn/2N7JFLADs/FKO7+V30y8srTw//wHrABIfcYmnro4Pvm59S0tLSV2P9vf3jS+fQmhAFEKpfkZHR5O6ALemjjp+8/MdffvXbEqLDDY//9XHjg++rnyxtENK16F4j9H48imEBkQhlNpkcnIyuVJY1NRR55fh+d57/LUyJG3XUHT88rXzxVTRmZmZpK5B8S6j8eVTCA2IQig+LpPAV0cdv/n4UvvqpSiEjt88fKlNFY3EqwvGl08hNCAKodQqU1NTyV2QY8pOv194c37xhFAUQsdvur6tra3krj2ttQeNL59CaEAUQqlVxsfHk3xK2O/7hM4vw/PFVzCVIWm3vIfjl+98Dg8Pk7zu7O3tGV8+hdCAKIRSv4yMjCS3BEUrq6urjt9MfDPvf6YQ1TzxldFYi9LxwXdZYkpmau8NRubn540vn0JoQBRCqW8mJiaSLIT9fGTG+cU6hDLcvPPRE8cH36WJVwGieKV4rXnw4IHx5VMIDYhCKJ4SploKz16onV/S9cWi74pRPTP55r7jg+/KxKsAKV5j4r1148unEBoQhVA8JUz4KWEvpdD5pRyfL47WL8/Pf1DYVFHHb3V98QpALtcX48unEBoQhVA8JaxAKXR+Kc9n6mi9El+ZdXzw5VoGzz8dNL58CqEBUQjFF0cTLoTdlELnl/J8po7WJy+/+4njgy/bMtjummJ8+RRCA6IQinUJK1AKnV/K9Zk6Wv2M3ftt82NCjg++XMvg2S+LGl8+hdCAKIQi/8j169eTL4SR9fV155fEfaaOVju//v1Txwdf26+Jpl4Gz647aHz5FEIDohCKnMvt27ezKIXLy8vNGw/nlzR9po5WN7HupOODL7elJc4mvnhqfPkUQgOiEIq0yejoaPIfmDk75efg4MD5JVHfL3c+V6AqPFXU8cF3NnEujo+05HDtODo6Mr58CqEBUQhFcl6G4mymp6d9Njxh30/f+J0iVdGpoo4PvlbiHBzn4hyuGZubm8aXTyE0IAqhSCe5c+dONqUwEu+stKaQOr+k4zv69q+N517ZUaYqOFXU8cGXy/uCZ5eZaPeqgfHlUwgNiEIoci7Xrl3LqhC2LvbxoQDnl7R89+5/qlBVcKqo46PevpgimsP7gp18SMb48iVTCG1AvmH4FB2p6tTRdk8LnV/S8Jk6mnd2Dk8cH3zf/WxtbWV3XdjY2DC+fMn7FEI+hVBMHS343cLt7W3nl0R8MXX0+fkPlKsMM7f9ieODr/lzeHjYmJuby+56EOZnz54ZXz6F0IDwKYRS9a+OtptGuru76/ySgK8KXx2NJ53xLt0r94+aH1i5KCs7f2iWqMk39xs/fvU3Wf99X3jtQ8cHX+P09LSxtLSU7XUgiqzx5VMIDQifQih9ZHx8PNsbgbPrTnXy/ojzy2B9uU0djXfnogBe9HXNTrffoydfNUtiFMQqTRV1fFTfF8szrK2tZX3u73SqqP2PTyE0IAqhyBW5detW9qWw9cTw/DIVzi/D88WHSXKYOvryu590VQI73X5RDuPpYQ5PDq+aKur4qK4vimBOXw9tl4WFBePLpxAaED6FULxP2P4dw1iP6rIFip1fBuN77/HXSRfBeN9xGNsvnhqmuiRHJ1NFHR/V88UsiuXl5Uqc42dmZppTXY0vn0JoQPgUQvE+YUfTSeOpYbsvkzq/FO/72frjpArQT5Yf9vxEsJ/t9+TLb5pP4nKcKur4qIYvfikWH+CK2RNVOq/v7+8bXz6F0IDwKYRifcLuE78dj5ujs08OnV+K96U0dTQ+EFP29osCFk/lcpoq6vjI19cqgbmtI9hpYlkM+x+fQmhA+BRC8ZGZQt43jPdo4iulx8fHzi8F+956eFJq8YnpmlHEUtl+8bTwpbcflbpN4t1G19/q+WL2Q5zH1tfXK1sCW4mP4Nj/+BRCA8KnEMoQcvPmzVqUwvOJT6/HDUf8BjqmJMXnzLt9T8X573+fEpb5jlx84CXF7VfmFNJunw66/qbnOzg4aL4LGO9Ix4yHqk0FveojMp2uN2j/41MIDYhCKOLLowO9KYni2C7xzmKRuejPyOH8F+/slVUG42lcyteP+OBMGdsmnlCmen2LclPU8dFPhnH8XpTWL6LO5uz/Hh9RqfN5N/7+/ZZB96d8CqEBUQhFlMLKJPXzX5TB+JBL2WUw5etHWaUw1XcIozw5tqVdGSxqWr/7Uz6F0IAohCJdZmRkpFLLUSiExZ//YhmHWGoiPt4SC9PHYu9lvTN4vgymfv0o853CF19/2Pj5rz5u3Lv/aWP70RelX99iCqRjWwZZBt2f8imEBkQhFFEKFcI+z39RHKJARJGIQpHDUgqpXz+iRKeyDeOjM5Nv7jefIr7z0ZPme5jD2n7xURTHtpxPvMft/o9PITQgfAqhKIUy5EIYRSAKQRSDKAhRFFJdbD4SJTXX60dKS3S0S5TWmfc/a345tt/1HC9bKsGxLWcT68e6/+NTCA0In0IoSqEMuBDGU794n6311C+mXqZcTi6a+pj79SOm3Oa0zSPxjujP1h83pwpHSYypw/1uP8e2nC2D7v/4FEIDwqcQSqKl0Idm8i2E+3/883dP/VJZKL3ftJaXyP36EeUq97GIJ51nnybG089utl/V19CTqzM9Pd2cPuz+j08hNCB8CqH4+qgUWAjjxjyld9WG+cXMXK4f8YStauMTBTGefna6/XxpVBmMdRbd//EphAaETyEUi9dLwYWwjCUgyvqqaM7Xj5ff/aRy4xQ5Wwov2xa+NKoMuv/jUwgNCJ9CKJllfHzczUzihTDe8apiyYh3Hqt2/ajiU8LWk0KFUNolpgrHR4Xc//FVvhDagHzD8CkoUkauXbvWuHv3rhubIaab80nqXwjtNUV8xCTF60e831nF8Yqv1l61/WKJAcd3vbK0tNR49uyZ+z++WvgUQj6FUCqd0dFRXyBNtBBWsVzE+5BVvX5EcarimLXe91QIpZW1tTX3f3wKoQHhUwjFF0hFIew+8QXLKl8/clv6o6hCeHx87PiuSeJLou7/+BRCA8KnEEqF3ys0hVQhTGG6aK7XjypOG+2kEMaP47vamZubaxZ/9398CqEB4VMIxRRSUQh7yti931b++nHv/qcKoVQuKysrl74v6P6PTyE0IHwKoVQwExMTboQUwkITSzNU/fqxc3iiEEplMjMz0/EUUfd/fAqhAeFTCKWiXyH1tFAhLCqxjEYdrh8KoVTlK6Knp6fu//j4FEI+hVDE00KFsJj8+vdPa3H9eOG1D2tZCONpkmO8Gk8FHzx44P6Pj08h5FMIRX74buHk5KQbJoVQIbzC9+LrD2tZCOOJkmM8/3cF+3kq6P6PTyE0IHwKodQgY2NjjampKTdPCmHXqcv1QyGU3DI7O9vY3993/8fHpxDyKYQinefGjRuWqFAIFcILEgVKIZQcMj093djc3HT/x8enEPIphCK9L2gf7xcqhgqhQqgQKoR5ZXV1tXFycuL+j49PIeRTCEUUQ4VQISzy+vHS2498ZVSSLoJHR0fu//j4FEI+hVBkcMXQO4bt8/Tp09oWwqNv/+odQoVQEiuC7v/4+BRCPoVQZCAZHx+3huEF+fbbb31lVCFUCGWo7wienRrq/o+PTyHkUwhFhr64/a1bt0wn/Ue++eab2hbC9x5/XYvrx3Ov7CiEUmrm5+ebawm6v+LjUwj5MvMpD1L16aTx1PD27du1vlH7n//5n9oWwlfuH1X++vHky28qN26dFMJnz54pYgk8DYxpoQcHB+6v+PgUQj6FUCT9Re5j2Yo6Tin94osvalsIf/rG7yp//Xjnoye1LISHh4dKWYnvBu7u7rq/4uNTCPkUQpH8nxzWYVppnb8y+vz8B5W/fvz8Vx8rhDLQzMzMNNbW1polsJN3A91f8fEphHwKoUh27xzG08OqFsQ6F8JuPyyT4/Xjhdc+rGUhjHKirA0uscbj1tZW4/j42P0VH18ZhdAG5BumTyEQ+WFBjCeIN2/ebExOTmZfErv6JVEFC2E8Qavq9SOW1ajimLXe/bxsW8SXLBW3YjI7O9tYXl5ubtO9vT33V3x8CfgUQj6FUCTBaabXr19vPkmMdQ/jaWKUxRzWP+zmJ6ZYVq1cxBc4q3r9iOJUxUL4y53Pr9x+8R6bMtd98VtcXGysr683tre3m+Wvmymg7q/4+BRCO4xCKCJXfLgmSmM8XYzSmEJiylc3Py+/+0klC8bKzh8qef0Yu/fbSo5XPPm8avvFEgfxRKubxPFQZLr984vwbWxsNKdzns/Kysr3/rnYPlH4IpctDu/+io9PITQgfEqhSEXTy0/ciFfxKWEs3F6168dbD08qWQZn3v/M/QEfH59CaED4FEIRKaMQtopGFUvh9qMvKnX9qOLTwXhC7f6Aj4+PTyHkK8nnBlpEGTz7pDBuzn/86m8qUzbia5xVuX5U7elgrBcZfyf3B3x8fHwKIZ9CKCIJFMLz55d4unbv/qfNL3bG9Mtci0f8HXK/fjz9y9+yfYIbTzV/tv64+TGc9x5//d27gu4P+Pj4+BRCvkR8bqRFlMFOzy87hyeNdz560lwzLkpiDk8T44ujj558lfX1IwpVLk/94ilzfDG0m7Ug3R/w8fHxKYR8JfvcUIsog72eX558+c13TxNfevtRkk8TL/vATOrn53iqltr2jF8ExDaNXwyEb/+Pf3b95ePj41MI+XL3ubEWUQiLPL/E08RY+iGmCsaTo7KnPLZbrD7l83Nsw7K3WxS/KPpR+KP4xy8AXH/5+Pj4FEI+hVBEEkhu5794Fy6mEpa19uFFaxOmuv2ieJUxJTf+zNhOUUZdf/n4+PgUQjtMzXxusEXyKoM5n//iPbMUSmGK2y/KYHwhtYwyeP4JoOsvHx8fn0Joh6mZz422SD5lMPfzX1nTIM+WwtS2X1llMBLvBLr+8vHx8SmEBoTPDbdIJmUw5/NffIikzHfjWuUnpe0X0zTL/HJrvCvo+svHx8enEBoQPqVQJJMymPP5Lz40U/bXMiff3G++15jC9ounlrFERtnbpNN3B11/+fj4+BRCvpr43ISLpFkEcz6/lPX+YLuF03tdM6+I7RdTRKOYprI9YrpqN+8Ruv7y8fHxKYR8NfC5IRdJswzmeH45+vavpS+lcFFi8fewDXP7xVIOKTwV7HSJDtdfPj4+PoWQr+Y+N+ci6RTBXM8vKUwVvSyxJEY/xbDT6aFlvivYSWLNQddfPj4+PoXQDsOnGIokWgRzPL+kNFX0qkRxfevhSdfvGF72wZh48pbiE8F+lqBw/eXj4+NTCPlq7HPzLlJeEczt/JLqVNFOp5NGme3kXcOzBTCeBMaXO1N/GtjP1FHXXz4+Pr6CCqENyJe7zw29SPep0/mlrLX1BpF4yvfi6w8vzE+WH1bm7xm5qgS7/vLx8fEVE4WQj4+Pj6+yvljzr0olqU6Jr7BeNm3W8cHHx8enEPLx8fHx8bX9iamTilXemXn/M8cHHx8fn0LIx8fHx8fX/U+VporWOe89/trxwcfHx6cQ8vHx8fHxdf7zyv0jZaoiiQ8CXTR11PHBx8fHpxDy8fHx8fH94Gf/j39WpCqW+Nqq44OPj49PIeTj4+Pj47vyp2pf25SLp446Pvj4+PgUQj4+Pj4+vu/9mCpan6mjjg8+Pj4+hZCPj4+Pj++7n1i3TnGqz9RRxwcfHx+fQsjHx8fHx9f8iSdHsW6d0lSfqaOODz4+Pj6FkI+Pj4+Pr/kT69UpS/WaOur44OPj41MI+fj4+Pj4TBWt6dRRxwcfHx+fQsjHx8fHV3OfqaL1zb37nzo++Pj4+BRCPj4+Pr46+0wVrW+ee2Wn8ejJV44PPj4+PoWQj4+Pj6+OPlNF5cXXHzo++Pj4+BRCPj4+Pr46+kwVlcjKzh8cH3x8fHwKIR8fHx9fnXyeDkork2/uOz74+Pj4FEI+Pj4+vjr5frnzuTIkhU4bdfzy8fEphAaEj4+Pj08hFIXQ8cvHx6cQGhA+Pj4+vpR9+3/8szIkpozy8fHxFVEIbUA+Pj4+vhx9P371NwqRNN8ndXzw8fHx9f6jEPLx8fHxZenbOTxprkWXemF56e1Hje1HXzTmtj9J3hvTL9/56Enzy505fMX15Xc/cXzw8fHxKYR8fHx8fHX1pVwKX3jtw6bvrDeKVqrlKp64nrU+/cvfGjPvf1aLMuj45ePjUwgNCB8fHx9fpr4US2E8DWz7rkaiBeve/U8vHN+Ykpna08J46ur44OPj41MI+fj4+Pj4kiqF8ZQtpodeZo1pmSkWwvPusz8pPS2MMuj44OPj41MI+fj4+Pj4kiqFP//Vx40nX35zpTP+uRQLYSfjW/bTwlYZdHzw8fHxKYR8fHx8fHxJlMJOngqeTUzNTP39wcvGt6ynhWfLoOODj4+PTyHk4+Pj4+MrvRR2+lTwbKI85rCW31U/w3xaeL4MOj74+Pj4FEI+Pj4+Pr5LS+Hz8x8k81Qw9Q/LXPQRnE5+hvG08KIy6Pjg4+PjUwj5+Pj4+Pguzf4f/zyQUtjLU8HziSUpUiqEsfZgP+M7qKeF7cqg44OPj49PIeTj4+Pj47vSV2Qp7Pep4NnEFM2UCuGjJ1/1Pb5FPy28rAw6Pvj4+PgUQj4+Pj4+vo58RZTCKDr9PhU8m5iimUoZjPctixzfeFrY7/a+qgw6Pvj4+PgUQj4+Pj4+vo59vZbCmAYZBadoX0oflol1EYse33ha+LP1xwMrg44PPj4+PoWQj4+Pj4+vK1+3pTCeCkaxGYQvpmimUgjjnchBje97j7/uapt3WgYdH3x8fHwKIR8fHx8fX9e+Tkph/O+tp4KD9A3yK6jdZGXnDwMd306fFnZTBh0ffHx8fAohHx8fHx9fT74ohe2+iBnF5exTwUH6fvrG75IohO0+lFP0T3zJtN36kO2eUjo++Pj4+BRCOwwfHx8f30B8MZ3xlftH3yWK4jB9g16/r9MMc3zjwzzxRDI+qhO5d//TC79w6vjg4+PjUwjtMHx8fHx8lfa99fCk9DIY6yEaXz4+Pj6F0IDw8fHx8fEN2RdPJMsuhLEeovHl4+PjUwgNCB8fHx8fXwm+sgthTNs0vnx8fHw1L4Q2IB8fHx8fXzm+mLJZZiG86GuqxpePj4+vXj6FkI+Pj4+PryRfLLVQZiFs90VV48vHx8enEBoQPj4+Pj6+AftiymZZZTDWQTS+fHx8fHwKIR8fHx8fX0m+WAOwrEIY6yAaXz4+Pj4+hZCPj4+Pj68kX6zLV1YhjLUXjS8fHx8fn0LIx8fHx8dXou/Hr/6mlEIY6yAaXz4+Pj4+hZCPj4+Pj69E34uvPyylEMY6iMaXj4+Pj08h5OPj4+PjK9FX1odljC8fHx8fn0LIx8fHx8dXsu+dj54MvQz+bP2x8eXj4+PjUwj5+Pj4+PhS8A17gfrLFqQ3vnx8fHwKoQHh4+Pj4+Mbou/Rk6+G9nGZqz4mY3z5+Pj4FEIDwsfHx8fHN2RfLEHx0tuPGs+9sjOQIviT5YcdPRk0vnx8fHwKoQHh4+Pj4+Pj4+Pj4+NTCA0IHx8fHx8fHx8fHx+fQmhA+Pj4+Pj4+Pj4+Pj4FEIDwsfHx8fHx8fHx8fHpxAaED4+Pj4+Pj4+Pj4+PoXQgPDx8fHx8fHx8fHx8SmEBoSPj4+Pj4+Pj4+Pj08hNCB8fHx8fHx8fHx8fHyJFkIbkI+Pj4+Pj4+Pj4+Pr54+hZCPj4+Pj4+Pj4+Pj08hNCB8fHx8fHx8fHx8fHwKoQHh4+Pj4+Pj4+Pj4+NTCA0IHx8fHx8fHx8fHx+fQmhA+Pj4+Pj4+Pj4+Pj4FEIDwsfHx8fHx8fHx8fHpxAaED4+Pj4+Pj4+Pj4+PoXQgPDx8fHx8fHx8fHx8SmEBoSPj4+Pj4+Pj4+Pj08hNCB8fHx8fHx8fHx8fHwKoQHh4+Pj4+Pj4+Pj4+NTCA0IHx8fHx8fHx8fHx+fQmhA+Pj4+Pj4+Pj4+Pj4FEIDwsfHx8fHx8fHx8fHpxDaYfj4+Pj4+Pj4+Pj4+BRCPj4+Pj4+Pj4+Pj4+PoWQj4+Pj4+Pj4+Pj4+PTyHk4+Pj4+Pj4+Pj4+PjUwj5+Pj4+Pj4+Pj4+Pj4ui+ENiAfHx8fHx8fHx8fH189fQohHx8fHx8fHx8fHx+fQmhA+Pj4+Pj4+Pj4+Pj4FEIDwsfHx8fHx8fHx8fHpxAaED4+Pj4+Pj4+Pj4+PoXQgPDx8fHx8fHx8fHx8SmEBoSPj4+Pj4+Pj4+Pj08hNCB8fHx8fHx8fHx8fHwKoQHh4+Pj4+Pj4+Pj4+NTCA0IHx8fHx8fHx8fHx+fQmhA+Pj4+Pj4+Pj4+Pj4FEIDwsfHx8fHx8fHx8fHl4zv/wEpRepwqQVGSQAAAABJRU5ErkJggg==" vertex="1" parent="1">
          <mxGeometry x="169.98000000000002" y="524" width="76.02" height="50" as="geometry" />
        </mxCell>
        <mxCell id="EOrUfLX56-fCI15zJVo0-39" value="User Service" style="text;html=1;strokeColor=none;fillColor=none;align=center;verticalAlign=middle;whiteSpace=wrap;rounded=0;" vertex="1" parent="1">
          <mxGeometry x="164.49" y="564" width="87" height="30" as="geometry" />
        </mxCell>
        <mxCell id="EOrUfLX56-fCI15zJVo0-40" value="" style="endArrow=classic;html=1;rounded=0;entryX=-0.042;entryY=0.625;entryDx=0;entryDy=0;entryPerimeter=0;" edge="1" parent="1" target="EOrUfLX56-fCI15zJVo0-38">
          <mxGeometry width="50" height="50" relative="1" as="geometry">
            <mxPoint x="91" y="330" as="sourcePoint" />
            <mxPoint x="141" y="280" as="targetPoint" />
          </mxGeometry>
        </mxCell>
        <mxCell id="EOrUfLX56-fCI15zJVo0-41" value="" style="endArrow=classic;html=1;rounded=0;exitX=1;exitY=0.5;exitDx=0;exitDy=0;" edge="1" parent="1" source="EOrUfLX56-fCI15zJVo0-38" target="EOrUfLX56-fCI15zJVo0-15">
          <mxGeometry width="50" height="50" relative="1" as="geometry">
            <mxPoint x="430" y="710" as="sourcePoint" />
            <mxPoint x="480" y="660" as="targetPoint" />
          </mxGeometry>
        </mxCell>
        <mxCell id="EOrUfLX56-fCI15zJVo0-42" value="" style="shape=image;verticalLabelPosition=bottom;verticalAlign=top;imageAspect=0;image=data:image/png,iVBORw0KGgoAAAANSUhEUgAAA4QAAAJQCAYAAADWlqq2AABPyUlEQVR42u3dP2hl55038Owu6gQ2000T1KgbQ1A1hWFSTaMmTCXcjKuFVFIR9KpYsECYUSEcxHqFERgLrV3IChhkdTOQF2SF2DtIYRgLCzsRIzsrry17AmGSIsV9399NrleWdaX759x7nuecj+Bb7Mb2fOY8599X5znn+VGj4J8//elPhYaPj4+Pj4+Pj4+Pj49vML4fGRA+Pj4+Pj4+Pj4+Pj6F0IDw8fHx8fHx8fHx8fEphAaEj4+Pj4+Pj4+Pj49PITQgfHx8fHx8fHx8fHx8CqEB4ePj4+Pj4+Pj4+PjUwgNCB8fHx8fHx8fHx8fn0JoQPj4+Pj4+Pj4+Pj4+BRCA8LHx8fHx8fHx8fHx6cQGhA+Pj4+Pj4+Pj4+Pj6F0IDw8fHx8fHx8fHx8fEphAaEj4+Pj4+Pj4+Pj49PITQgfHx8fHx8fHx8fHx8CqEB4ePj4+Pj4+Pj4+PjUwjtMHx8fHx8fHx8fHx8fAqhHYaPj4+Pj4+Pj4+Pj08h5OPj4+Pj4+Pj4+Pj41MI+fj4+Pj4+Pj4+Pj4+BRCPj4+Pj4+Pj4+Pj4+PoWQj4+Pj4+Pj4+Pj4+Pr+tCaAPy8fHx8fHx8fHx8fHV06cQ8vHx8fHx8fHx8fHxKYQGhI+Pj4+Pj4+Pj4+PTyE0IHx8fHx8fHx8fHx8fAqhAeHj4+Pj4+Pj4+Pj41MIDQgfHx8fHx8fHx8fH59CaED4+Pj4+Pj4+Pj4+PgUQgPCx8fHx8fHx8fHx8enEBoQPj4+Pj4+Pj4+Pj4+hdCA8PHx8fHx8fHx8fHxKYQGhI+Pj4+Pj4+Pj4+PTyE0IHx8fHx8fHx8fHx8fAqhAeHj4+Pj4+Pj4+Pj41MIDQgfHx8fHx8fHx8fH59CaED4+Pj4+Pj4+Pj4+PgUQjsMHx8fHx8fHx8fHx+fQsjHx8fHx8fHx8fHx8enEPLx8fHx8fHx8fHx8fEphHx8fHx8fHx8fHx8fHwKIR8fHx8fHx8fHx8fH1/3hdAG5OPj4+Pj4+Pj4+Pjq6dPIeTL3vejH/1IRLqM8wsfHx8fHx+fQsiXrc8NvUj55dD5j4+Pj4+PTyE0IHxD9bl5F0mnHDr/8fHx8fHxKYQGhG8oPjfqIukVQ+c/Pj4+Pj4+hdCA8A3U58ZcJN1S6PzHx8fHx8enEBoQvoH53JCLpF0Mnf/4+Pj4+PgUQgPCV7jPDbhIHqXQ+Y+Pj4+Pj08hNCB8hfrceIvkUwqd//j4+Pj4+BRCA8JXmM8Nt0hepdD5j4+Pj4+PTyE0IHyF+Nxoi+RXCp3/+Pj4+Pj4FEIDwte3zw22SJ6l0PmPj4+Pj49PITQgfAqhSE3j/MfHx8fHx6cQGhC+vuKmWkQpdH7m4+Pj4+NTCA1IDX1upkUUQudnPj4+Pj4+hdCA1NDnRlpEKXR+5uPj4+PjUwgNiEIoIkqh8zMfHx8fH59CaEDq4nPzLKIQOj/z8fHx8fEphAZEIRQRpdD5mY+Pj4+PTyE0IHXxuWkWUQidn/n4+Pj4+BIqhDYg3zB9bppFqr1YvfMfHx8fHx9fZsvAGRA+hVBEUiiFzs98fHx8fHwKoR2mwj43yyIKofMzHx8fHx+fQmhAFEIRUQidn/n4+Pj4+BRCA6IQiohS6PzMx8fHx8enEBoQhVBEFELnZz4+Pj4+PoXQDlM9n5tkEYXQ+ZmPj4+Pj08hNCAKoYgohM7PfHx8fHx8CqEBUQhFRCF0fubj4+Pj41MIDYhCKCIKofMzHx8fHx+fQmiHUQhFRCF0fubj4+Pj41MI7TAKoYgohM7PfHx8fHx8CiGfQigiCqHzMx8fHx8fn0LIpxCKiELo/MzHx8fHx6cQ8imEIqIQOj/z8fHx8fEphHwKoYgohM7PfHx8fHx8CiGfQigiCqHzMx8fHx8fn0LIpxCKiELo/MzHx8fHx6cQ8imEIqIQOj/z8fHx8fEphHwKoYgohHx8fHx8fHxRCG1AvmH43CSL1CfOf3x8fHx8fPn4FEI+hVBEFEI+Pj4+Pj6F0IDwKYRuePkcH44PPj4+Pj4+hdCA8LnhLfRG1/7H5zgxvnx8fHx8fAqhAVEIa1wG7X98jhXjy8fHx8fHpxAaEIWwpmXQ/sfneDG+fHx8fHx8CqEBUQhrWgbtf3yOGePLx8fHx8enEBoQhVAhtP/xOWbsf3x8fHx8fAqhAVEI61QG7X98jhvjy8fHx8fHpxAaEIVQIbT/8TlujC8fHx8fH59CaEAUQoXQ/sfnuLH/8fHx8fHxKYQGRCFUCO1/fAqh/Y+Pj4+Pj08htMMohAqh/Y9PIbT/8fHx8fHxKYR2GIVQIbT/KYQKof2Pj4+Pj49PIeRTCBVC+59CqBDa//j4+Pj4+BRCPoVQIbT/KYQKof2Pj4+Pj49PIeRTCC1Mz2dheoXQ/sfHx8fHx6cQ8imECiGfQqgQ2v/4+Pj4+PgUQj6FMNVSaP/jc7wYXz4+Pj4+PoXQgCiENS2F9j8+x4r9j4+Pj4+PL6lCaAPyDcNXhZvcVowv3yB8jhH7Hx8fHx8fXxk+hZBPIRziTa/9j8+xYf/j4+Pj4+NTCA2IQigilY3zHx8fHx8fn0JoQPgUQhGF0PmPj4+Pj49PITQgfAqhiELo/MzHx8fHx6cQGhCFUEQUQudnPj4+Pj4+hdCAKIQiohA6P/Px8fHx8SmEBkQhFBGF0PmZj4+Pj49PITQgCqGIKITOz3x8fHx8fAqhHUYhFBGF0PmZj4+Pj49PIeRTCEVEIXR+5uPj4+PjUwj5FEIRUQidn/n4+Pj4+BRCPoVQRBRC52c+Pj4+Pj6FkE8hFBGF0PmZj4+Pj49PIeRTCEVEIXR+5uPj4+PjUwj5FEIRUQidn/n4+Pj4+BRCPoVQRBRC52c+Pj4+Pj6FkE8hFBGFkI+Pj4+Pj08h5FMIRUQh5OPj4+PjUwgNCJ9CKCIKIR8fHx8fX/0KoQ3INwyfm2SR+sT5j4+Pj4+PLx+fQsinEIqIQsjHx8fHx6cQGhA+hVBEFEI+Pj4+Pj6F0IDwKYQiohDy8fHx8fEphAaETyEUEYWQj4+Pj49PITQgfAqhiCiEfHx8fHx8CqEB4VMIRUQh5OPj4+PjUwgNCJ9CKCIKIR8fHx8fn0JoQPgUQhFx/uPj4+Pj41MIDQifQiiiEDr/8fHx8fHxKYQGhE8hFFEInZ/5+Pj4+PgUQgOiEIqIQuj8zMfHx8fHpxAaEIVQRBRC52c+Pj4+Pj6F0IAohCKiEDo/8/Hx8fHxKYQGRCEUEYXQ+ZmPj4+Pj08htMMohCKiEDo/8/Hx8fHxKYR8CqGIKITOz3x8fHx8fAohn0IoIgqh8zMfHx8fH59CyKcQiohC6PzMx8fHx8enEPIphCKiEDo/8/Hx8fHxdV8IbUC+YfjcJIvUJ85/fHx8fHx8+fgUQj6FUEQUQj4+Pj4+PoXQgPAphCKiEPLx8fHx8SmEBoRPIRzITa/9j8+xYf/j4+Pj4+NTCA2IQlizG137H5/jxPjy8fHx8fEphAZEIaxxGbT/8TlWjC8fHx8fH59CaEAUwpqWQfsfn+PF+PLx8fHx8SmEBkQhrGkZtP/xOWaMLx8fHx8fn0JoQBRChdD+x+eYsf/x8fHx8fEphAZEIaxTGbT/8TlujC8fHx8fH59CaEAUQoXQ/sfnuDG+fHx8fHx8CqEBUQgVQvsfn+PG/sfHx8fHx6cQGhCFUCG0//EphPY/Pj4+Pj4+hdAOoxAqhPY/PoXQ/sfHx8fHx6cQ2mEUQoXQ/qcQKoT2Pz4+Pj4+PoWQTyFUCO1/CqFCaP/j4+Pj4+NTCPkUQoXQ/qcQKoT2Pz4+Pj4+PoWQTyG0MD1fNX0Wprf/5ejb29trZnt7u7G5udnM4uJiM0tLS42ZmZnGv/7rv/aVubm55n+r9d9t/TnxZ7b+fOPLx8fHpxDyKYQKIZ9CqBDa/wbgi8L14MGDZglbXl5ulrJ+S94gMj093bSFMay7u7uNg4MD48vHx8enEPIphOWVQvsfn+PF+ObiOzk5aZa/VvGbn59Psvj1kvi7rK6ufvdU0f7Hx8dX60JoA/INw5f7DW7E+PINw1fnY8X+V67v6Oio+eQvilKVyl83JXF9fb25DWJb2P/4+Pjq4lMI+RTCIZZC+x+f48T+l4rvbAGM6ZV1K4BXZXZ2trltYhvF01L7Hx8fn0JoQPgUwr5Lof2PzzFi/yvTF9Mj4ylYlB2lr7cniJe9h2j/4+PjUwgNCF8Nbnb7uem1//FV/bhQCNPzxcdUPAUs/oM1sU1j29r/+Pj4FEIDwlfjG18RUQhT9CmB5ZdD9wd8fHwKoQHhUwhFFELnv6H5YiqjElh+OWxNK3V/wMfHpxAaED6FUEQhdP4bqO/Zs2fNj57EYu0KWVpZWFhojk2MkfsDPj4+hdCAKIRukkUUQufnwnyHh4eNtbU1xSuTxFgdHx+7P+Dj41MIDYhCKCIKofNz7754T83TwHyztLTUHEPHBx8fn0JoQBRCEVEInZ87nha6tbXVmJmZUaoqkij1MabdTCd1fPDx8SmEfAqhiCiENTo/n56eNjY2NhTBCifGttNi6Pjg4+NTCPkUQhFRCGtwfo4i6P1AxdDxwcfHpxDaYRRCEVEIa3R+VgTlsmLo/oWPj08h5FMIRUQhrOD52TuC0kkxdP/Cx8enEPIphCKiEFbs/Bzr1CmCclkxbH2V1P0LHx+fQsinEIqIQliR8/Pe3p7lI6SrRe5jn3H/wsfHpxDyKYRSSP7pn/6pmX/+53/+Xv7lX/7le/93659r5ey/azuKQth9jo6OGouLi0qO9JTl5eXmPuT+hY+PTyHkUwhFRCHM6Px8cnLS2NzcVGqk70xPTzf3JfcvfHx8CiGfQigiCmEG57+Y6jc7O6vMSKGZn5/vaxqp+xc+Pj6FkE8hFBGFcIC+eCq4urqqvMhAs76+3tzX3L/w8fH1XAhtQL5h+Nwki9Qnzn+Nxv7+vq+HytASHyg6PDx0/8LHx9fbgxsDwqcQiohCWIwv1o2zuLyUlY2NjQsXtXf/wsfHpxDyKYQiohAO+PwXT2gsJSEpPC08Pj52/8LHx6cQ8imEIqIQDuv8t7W1pYxIUol90v0LHx+fQsinEIqIQjjA89/p6WljaWlJAZEkE/tmuymk7l/4+PgUQj6FUEQUwj58PhwjOST20Ys+OOP+hY+PTyHkUwhFRCHs0WeKqOSWBw8euH/h4+NTCPkUQhFRCPvxxfS7lZUVBUOyTOy7rSmk7l/4+PgUQj6FUEQUwi4SX25cWFhQLCTrxD4c+7L7Fz4+PoWQTyEUEYWww+zt7XlfsIcsLi42s76+3pxmG4n32c4mPszT7uf8Pxvvbbb+O/HfbP33bevu3yuMfdr9Cx8fn0LIpxCKiEJ4ReLdKyWifWZnZxvLy8uNzc3Nxu7ubtuiMejxPTk5af7ZMV5hiaIYNmN0+XuF7l/4+PgUQj6FUEQUwjZZXV1VHM5kenr6u/IX5StKWOrj2yqKYQ57/B2M5f8mnrS6f+HjUwgNCJ9CKCIKoTLYtgBub283Dg4OKnN9i79L/J0UxL8n9nX3L3x8CqEB4VMIRUQh/McTpfn5+Vp/dGRjY6PvApjbO6Lxd67zR4Niim03T3zdX/HxKYQGhE8hFJHKFcK6lsEoQvE+2dkPvNT1+hbbILZFHcth7Pu9lkL3V3x8CqEB4VMIRSTrQli3Mjg3N/eDEuj69v2f2DbxRdPYVkqh+ys+PoXQgPAphCJS0UIY0yPrUAZjuYG1tbXmEg6ub935YpvFtqvD8iO9lEL3V3x8CqEB4VMIRSTLQhhlsOofFmk9DXz27JnrW5++2IaxLav+1LDbUuj+io9PITQgfAqhiGRXCKteBpeWlpqLubu+DcYX2za2sVLo/oqPTyE0IHwKoYhkVgjjRreqZbDTaaGub8X4WtNJ61wK3V/x8WVcCG1AvmH43CSL1Cc5nP9i2l8VvyIZ68kdHR25vpXki21fxfUr41i5arqx+ys+vnx9CiGfQigitSqEVSyDKysrhRVB17diimGMSZ1KofsrPj6F0IDwKYQiknwhrFoZjPfXWlNDXd/S88XYVOkdw8tKof2Pj08hNCB8CqGIJF8Iq/LUJr5wef5jMa5v6fp2d3cr81XSOIaMLx+fQmhA+BRCEcmuEFblox+xUPpFT2lc39L2xZjF2FXlo0XGl49PITQgfAqhiGRTCKtwIx5TD09PT13fMvfFGFZhGmmsxWh8+fgUQgPCpxCKSPKFMKbr5XzjPTMz09Fagq5vefliv4yxzXnfjL+D8eXjUwgNCJ9CKCLJFsLj4+Ps39e66nP/rm/5+mJsc36vNQptHGPGl49PITQgfAqhiCRXCONmO9cnMJ0+FXR9q4Yvpl/mvK/GsWZ8+fgUQgPCpxCKSDKF8OTkJNvlJa56V9D1rZq+GPNc99lwG18+PoXQgPAphCKSTCFcXV3N9guirh/19m1sbGS578YxZ3z5+BRCA8KnEIpI6ee/mH6X47S71gLzrh98MV04xymkcewZXz4+hdCA8CmEIgphaee/g4ODLKfbdfrhGNe3+vhynEI6PT3dPAaNLx+fQmhA+BRCEYVw6Oe/eG9wdnY2+wW+XT/4Wj/xi4LYR3Lap+MYjGPR+PLxKYQGhE8hFFEIh3r+W15eznYNN9cPvst+4t3Sur1PaP/j41MI7TAKoYgohJV8bzCm1RVdBl3fqu/L7d3Yft8ntP/x8SmEdhiFUEQUwo5ydHTULFm5vWPl+sHXrS/2nZz29Tg2jS8fn0JoQPgUQhGFcKDnl/n5+SxukMN59gbZ9YOvF19OpXBxcdH48vEphAaETyEUUQgHd37Z3NzMpgye/9CG6wdfr774xUIuvwiJY9T48vEphAaEz02yiEJY+PkllyUmLiqDrh98/fpin8qlFPayFIX9j49viIXQBuQbhs9Nskh9MqzzSw5rtF22xqDrB1+/vti3cjkOjC8fX7o+hZBPIRSpUUZHRxvXr1/vOCMjI0kWwhw+w3/VgvOuH3xF+HIphfHVUePLx6cQGhCFUESGkGvXrjXGxsYaExMTjdu3bzcmJyf7vpmbmppq/ndu3brV/O9eVhYHfX45PT1tzMzMZF0GXT/4ivTlUArjmI1j1/jy8SmEBkQhFJGCE+UsSloRxa+Xohgl8caNG82nj8MohEtLS9mXQdcPvqJ9sc/Nzc0lfWzEsWt8+fgUQgOiEIpIAdM+x8fHm0//Urvhi4K4urraXHh9EOeX/f39SpRB1w++QfiOj4+Tf3oex7Dx5eNTCA2IQigiXSamZ0YJvHPnThZfFWwtTB3lcG9vrxZPQOJGPG7IXT/4yvSlXgrjGPYEnY9PITQgCqGIdDEdNKZk5lIC22V2draxvb194fILnZ5fUv6QTLdl0PWDb5C+1J+kx7FsfPn4FEIDohCKyCXJ7WlgN4mnhrGwdjfnl/gYRRWmwbl+8A3LF9O2Uz5mrvrAjPHl41MI7TAKoUhti2C8h1fFInhVMbzsZ2VlpTKf03f94BuWb21tLdnjJmzGl49PITQgCqGI1LAItiuG7X4ODw+zval1/eAr25fyV3nj2Da+fHwKoQFRCEVq/45gVaeGdpuNjY0LPzaR6g1tN18Udf3gK8uX8seYLluGwvjy8SmEdhiFUKTyXw2twsdiBvFxlnj3qfWT6scxul1k2/WDr0xffPAot6eExpePTyG0wyiEIpXN2NhY4+7duwrgFU8OonCl+mSjl4/IuH7wlemLd11TXYbC+PLxKYQGRCEUqc1TwRQXk5fup7a6fvDl6Ev140xnZwUYXz4+hdAOoxCKVPZdQU8F80+8N+j6wZerL9X3CS96Smh8+fgUQjuMQihSmUxMTChTFXm/sdvF510/+FLzpfrV3vNPCY0vH59CaIdRCEUqMUV0cnJSmapIel1v0PWDLzVfTHtO/Smh8eXjUwjtMAqhSNa5du2a5SQqlMXFRdcPvkr55ufnk/5Yk/Hl41MI7TAKoUjWZdD7gtXJ9PR04+joyPWDr1K+vb29pNclNL58fAqhHUYhFPHxGEki29vbrh98lfStr68nuy6h8eXjG2IhtAH5huFTFKQOGR8fV6Aq/FVR1w++qvlS/Oro6uqq8eXjG7JPIeRTCEWUQbniaYXrB19VffHeXmrHnSnafHwKoR1GIRTJbpqo8lS9rK2tuX7w1cIX7+6ldOzFVFbjy8enENphFEIRH5CRUtccjOl0rh98dfCdnp4m9yEn48vHpxDaYRRCEWVQSsvW1pbrB1+tfKmtTXh+oXrjy8enEPIphCLJLTpvncFq5vwC2a4ffHXwxRPxeDKe4hIUxpePTyHkUwhFksvk5KTyVNG0ezLh+sFXdV88GU/pWIyprMaXj08htMMohCLJZWJiQnGq2dNB1w++OvhSe0oY01iNLx+fQmiHUQhFksrY2JjiVOHEJ/hdP/jq7Isn5Dn8gsb48vEphHwKoUgp7w36iEw9FqF3/eCrsy+lxeov+yWN8eXjUwj5FEIR7w3K0L5q6PrBVxffgwcPkl0P1Pjy8SmEfAqhSCm5ceOG0lTTdwddP/jq5kvpXcJwGF8+PoWQTyEUMVVUSl/zzPWDr06+lL44WsS0UePLx6cQ8imEIj3n9u3blS1Cs7OzjcXFxe8yPT3t6aDrBx9f8ylhlaaNGl8+PoWQTyEU6SnXr1+vROmJRZ43NzebT8L29vY6Om7jn4t3idbX1xvz8/O1fjro+sFXR18UsapMGzW+fHwKIZ9CKNJTpqamsiw5cQMVN3Nnp1r1ez45OTlpFsTl5eXaPR10/eCro+/4+Lgy00aNLx+fQsinEIp0nfHx8SyfBLZ74lXkuSXKYbxjlNLn6XtJ/B1cP/j42v/EOaUK00aNLx+fQsinEIpU+ulg3LQdHh6Wcn6JAppjMYynqPGelOsHH1/7n1QWqu93kXrjy8enEPIphCKVfDoYN0lXFcFhnF+iWMXTtlQ+VV/000HXD746+1I5rmMKq/Hl41MI+RRCEU8HEy40p6enyUwxK/LpoOsHX519qXxcJt5hNr58fAMohDYg3zB8CoZ4OljsUhEHBwdJn1+2t7eT3obxxVXnZz6+zhLnmxSO21gax/jy8RXvUwj5FEKRjJ4Oxg1RfNAlh/NL3ESmuK5hmHrZhq4ffHX2xS+iUjh+jS8fn0LIpxCK1HbdwdXV1ezOL1G8osRWYTu6fvDV2RfrkaZw/Ha6jqrx5eNTCPkUQpGecuvWrUqWwbLPL6ncTEaOjo6cn/n4uvzzU5k22st0b+PLx6cQ8imEIh1lZGSksmUwhfNLfL6+7Cmk/WxL1w++uvtSmDba63uExpePTyHkUwhFrsyNGzcqWwZTOb/E07n5+fnsng66fvDxpfOk3/jy8SmEfAqhyEBy586d5D4gU8XzS7xXGEXXO5iuH3x5+VKZNtrLe4TGl49PIeRTCEUuzejoaHILzvf6NdFczi+xplguTwddP/j4/p4Uvhwcy9oYXz4+hZBPIRSp9HTRw8PDWpxf4onDMN5LWl5edn7m4yvAF8dSjlPpjS8fn0LIpxCKXJrbt28nUwY3NjZqdX6JJ6GDvsns9VP1rh98fOU+2b8o8R6y8eXjUwj5FEKRQpPSVNFnz57V8vyytbWV9LuYrh98fH//MFSOH5Yxvnx8CiGfQiiSxWL0sTRDnc8vMVV2ZmYmuaeDrh98fGktP9HtcW18+fgUQj6FUKRtJiYmkiiDS0tLzi///+f09LSxsLCQ3JdaXT/4+P6eMr4S3O+HZYwvH59CyKcQirTN5ORkEoVwf3/f+eXMT7xLmcrTQdcPPr7/TZSxss+XsSai8eXjUwj5FEKRyrw/GO8OOr/88Cem0PY6hbSXD0+4fvDx5bEeYbdP/40vH59CyKcQilyYa9euJVEI48t9zi8X/xwfH/c0hTS2qe3HxzcYX9nnzFgP0fjy8SmEfAqhSN8ZGxtLohC2vizq/HLxT2yftbW1rp642n58fIPzxRO6nL40anz5+BRCPoVQJNkPyqysrDi/dOjrdA20mGpq+/HxDc4X7/Dl9KVR48vHpxDyKYQiyS5Iv7Oz4/zShS+mkF72XmHrfUzbj49vcL4UPizTzS9+jC8fn0LIpxCKJPuF0a+//tr5pUtfTCGNZTouW8vR9uPjG5wvns6Vfe7c3Nw0vnx8RRRCG5BvGD7FQ1LN3bt3S72h+cUvftF4+vSp80uPvrghbPehCduPj29wvvilTNmFcGtry/jy8RXwoxDyKYRiyYkS8x//8R/OL3364olgFMHzTwxsPz6+wfp6XRKmqMQsAePLx6cQ8imEIj1nZGSk9EL4n//5n54QFuA7OjpqfvXw5OTE9uPjG5Kv3bRthdD+x6cQGhA+hVCyyPXr10svhB988IFCyMfHl6Wvm6VgBpF4Qml8+fgUQj6FUEQhdP7j4+MrwRfv8JV9DjW+fHwKIZ9CKJJ1Ifz8888VQj4+vix9na4LqhDy8SmEBoRP+RCFsE2++OILhZCPjy9L3+HhYenn0FiX1Pjy8SmEfAqhSNZPCJ1f+Pj4FMLeEgbjy8enEPIphCKmjDr/8fHxDdl3enqqENr/+BRCA8KnEIpCqBDy8fHV1acQ2v/4FEIDwqcQikKoEPLx8SmEpSQ+bGN8+fgUQj6FUCTbQvhf//VfCiEfH59C2GNi6Qvjy8enEPIphCLZFsKdnR2FkI+PL1vfwsKCQmj/41MIDQifQih5ZnR0tPRCuLm5qRDy8fFl61taWlII7X98CqEB4VMIJd+UXQj//d//XSHk4+NTCBVCPj6F0IAohCJ1LIT/9m//phDy8fEphAohH59CaEAUQpEyMjk5WXop/O///m/nFz4+PoVQIeTjUwgNiEIoMuzcvn279EL4wQcfOL/w8fEphAohH59CaEAUQpFhZ2JiovRC+MYbbzi/8PHxKYQKIR+fQmhAFEKRYWd8fLz0Qjg9Pe38wsfHl6Vvbm5OIbT/8eVeCG1AvmH4FA9JNdeuXSu9EEb29/edX/j4+LLzpbB0j/Hl4+svCiGfQii+NJpAIVxbW3N+4ePjUwi7zIMHD4wvH59CyKcQiuT/pdGYduX8wsfHpxB2l729PePLx6cQ8imEIv3l5s2bSTwlPD4+dn7h4+PLxnd0dFT6eXN2drb5lPDk5MT48vEphHwKoUhvGRsbS6IQbmxsOL/w8fFl44uncymcO1sf54r3CdsVQ+PLx6cQ8imEIkkvPXHRtFHnFz4+PoWwmGJofPn4FEI+hVDkBxkdHU3i/cGzOT09dX7h4+NTCAuaSmp8+fgUQj6FUOTC3Lhxo3H37t3kbmLiBsb5hY+PLwff7u5usoWwlfn5+WZxNb58fAohn0Io0szIyEhyTwXPZmFhwfmFj48vC19MzUy9ELaysrLyvRkYxpePTyHkUwilph+PSfGpYLtpo84vfHx8CmFxmZmZ+d4sDOPLx6cQ8imE4sMxSaZ1w+L8wsfHpxAWn6Wlpb6fFtr/+BRCA8KnEIopogOd2uT8wsfHl7pvfX09y0JYxNNC+x+fQmhA+BRCySDXrl1rTE1NZXmz8uzZM+cXPj6+pH2Li4vZFsKzTwvjfGt8+RRCA8KnEIr3BZNKfL3P+YWPj08hHM7Twv39fePLpxAaED6FUKqS8fHx7G9QYtqo8wsfH59COLxsbGwYXz6F0IDwKYSSe27evFmZ31g7v/Dx8SmEaU4htf/xKYQGhE8hlARz69atSt2YFD1t1PmPj4+vSF/VymArc3NzjePjY/sfn0JoQPgUQlEGy83q6qrzCx8fn0KY4HuF9j8+hdCA8CmEogwOPNPT084vfHx8CmHJMzXsf3wKoQHhUwhFGSwtBwcHzi98fHwKYYnZ2tqy//FVuxDagHzD8Ckuogz29sW7XtbHcv7j4+MbtO/w8LA2hfCiKfz2P74q+RRCPoVQlMHEEl/uiyeDzi98fHwKYZql0P7HpxAaED6FUCwtUXhmZ2cbDx48cH7h4+NTCBMvhfY/PoXQgPAphGLR+UKzubnZODk5cX7h4+NTCDMohfY/PoXQgPAphFJCxsbGKjk99OjoyPmFj48vO198gTMWcq9jKVxbW7P/8SmEBoRPIZRh5tq1a427d+9WanroVQvPO7/w8fHl4Ds9PW2sr683l8qpUymMD3/Z//gUQgPCpxDKEDIyMtKYmpqqzNqCF00PdX7h4+PL3RfntXgPen5+vjalsN06hfY/PoXQgPAphFJgJicnK3HjsLy83HZ6qPMLHx9flXx7e3vNd+3qUAr39/ftf3wKoQHhUwhlUJmYmKjE9NC4OXJ+4ePjq5svnhrGrIg4D1a1EM7MzDSOj4/tf3wKoQHhUwil6Fy/fr0S00OdX/j4+Pj+1JxeGR/SqmopfPbsmf2PTyE0IHwKoRT53mDOH5GJqVLdTA91fuHj46uLL86NVfwIzcLCgvHlUwgNCJ9CKHV/bzA+ptDL9FDnFz4+vjr6qvYRml6/PGr/41MIDYhCKHImN27cyHK60Pb2tvMLHx8fXw+p0kdoevnIjP2PTyE0IAqhyD8yOjqa3VTRWJg51uFyfuHj4+PrLzGdNPdiGL8gjGuC8eVTCA0In0IoNZgqGtOdnF/4+Pj4ivVFoVpbW6vN+4T2Pz6F0IAohCKZTRWNi/35z4w7v/Dx8fEV6zs8PGzOwsixFG5tbRlfPoXQgPAphFLFr4rGb60v+ry48wsfX7V8j5581fj5rz5uvPj6w45y7/6njSdffmP7DcAXS1bEVMzcSmGn6xM6fvkUQgOiEErtc+vWreymiDq/8PFV1xdl8LlXdho/+j//t6u88NqHtt+AfPGLuJWVlUpOHTW+fAqhAVEIxQL0GXwkIH5D7fzCx1cP39z2J12XwVa2H31hfAfoy+1pYSdTR40vn0JoQBRC8SGZxMtgJ9N+nF/4+KrjiymgvRbCmDpqfAfri4/OxNO3XErhVV8dNb58pRZCG5BvGD6lR9plfHw86Yv49PR04+DgwPmFj69mvufnP+i5EL787ifGd0i+XJaoWFxcNL58yfoUQj6FUErN1NRUJcqg8wsfX3V8T//yt57LYOSnb/zO+A7RF+9251AKY6qr8eVTCA2IQiiSydPBbsug8wsfX3V8v/79074KYcT4Dte3t7fXPG+nXAhnZ2cbJycnxpdPITQgCqFI6stM9FIGnV/4+Krje+X+Ud+FcOfwxPgO2Rfn7dRL4ebmpvHlUwgNiEIokvIi9L2WQecXPr40fFHEWh+EmXxzv+NidvbnZ+uP+y6E73z0pOttFP9OLFsRy1289Paj79Y0NL7VKYVhu+gpofHlUwgNiEIo3h1MaJ1Bxy8fX56+KH8XrR0YS0h04/vJ8sO+C2Enf2YrUfyivF60pqGF7qtXCi96Smh8+RRCA6IQincHE57K4/zCx5e+r10ZPFuuLnta+L1rVp9lMBJPKTt9KniVO0qh/a9apfDo6Mjxy6cQGhCFUDwdTCnLy8uOXz6+TH1XlcFOnty1for4oEwkPL08FWxXCuPLp/a/6pTCWC7D8cunEBoQhVBqmevXr2f15TfHLx9f2r5uyuBlTwtbP289PCmkEEbOvgPYzVPBixLTWIsshXXZ/+Lrozm8S+j8wqcQGhCFUGqT27dvJ3dh7vUjMs4vfHzl+nopg2dz7/6nP/DNvP9ZYYVw+9EXPT8VHHQprNP+l+o6hWdfU3B+4VMIDYhCKLXI6Oho5d4bdH7h4yvH128ZPPuu36MnX333341F5YsqhGenp/byVHCQpbBu+9/a2lrSTwmdX/gUQgOiEEotcvPmzaQuxvPz845fPr4Mfft//HMh5ers+36x9uAvdz4v7L8Z+fGrv2kWwX6eCg6qFNZx/1tYWEj2y9bOL3wKoQFRCMXHZDKeKur8wsc3XF8Ry0Lkniiv9r/ufKenp42ZmZnk3mF3fuFTCA2IQii1yNjYWFIX4a2tLccvH1+mvrqXwcjL735i/+vBt7+/n9xTwvjwjfMLn0JoQBRCqXxu3bqVzMU3fkP87Nkzxy8fX6a+It/z84SwfvvfyspKcktQOL/wKYQGRCGUSmdkZCSpi+/u7q7jl48vY1+8Q1jnMjh277feIezDF78QTG3qaJicX/gUQgOiEEplMz4+nsxFd25uzvHLx1cBX3zBs66F8Ne/f2r/69MXvxhM8ReVzi98CqEBUQjF2oMDzuHhoeOXj68ivlhgvm5lML6Gav8rxre0tJTMtSm+gOr8wqcQGhCFUCqbu3fvJnHBjYu/45ePrzq+WIuwTmUwvq5q/yvOd3x8nNRTwvgKqvHlUwgNiEIovi46xCk5jl8+vvx9dZo6Gu9O2v+K9aW0YH2sSWh8+UophDYg3zB8ipHF6FNZ68nxy8dXPV8d1iWM4mv/K953dHSUTCGcn583vnyl+BRCPoVQarEYffzm1fHLx1dNX9W/OhqF1/43OF8s+5BKKYyCanz5FEI7jEIolcno6GgSF9jp6enGycmJ45ePr8K++NhKlaeK2v8G50vpKeFFv7w0vnwKIZ9CKJabKGDRX8cvH1/1fVVcsL71VVHjO1hfKk8Jl5eXjS+fQmiHUQilOrl161YSF9i9vT3HLx9fDXxH3/618fz8BwMpZs+9stOYfHO/+S7f2cT/L/63QX9V1PgO1ndwcJDMjBbjy6cQ2mEUQqlM7ty5k+THZBy/fHzV9RU9dfTF1x823vnoyZWe+Gfiny3yz46Ca3yH54uPuqRQCqOcGl8+hdAOoxBK9hkZGUniwrq+vu745eOrke+XO58XUsZ+/OpvGtuPvujaFcWwqCeGZ5eZML6D98X7eylct7a3t40vn0Joh1EIJf9cv349+d+0On75+PL2Pf3L3xq//v3T5lPBl9/9pLDlJ1547cPGky+/6dkW/25Rlngvcub9zxorO3/oqaDa/zr3xcfHYspmFd4jNL58CiGfQiilZ2JiIvl3MRy/fHz5+HYOT5pP3+K9vZiaOXbvtwN5b6/fMthKlNVBrY8Yxtb7jFESHz35yv5XkC+Fj8sU8R6h8eVTCPkUQvFBmUu+Lur45eNL3xdF56W3HxX+Xt5V00SLKIOt7TfIj9xc9NGb2FY//9XHHf0d7H8XZ3d3txLrERpfPoWQTyGU0jM5OZn8ek6OXz6+NH1RBstY4mEQUzKLeqex6Kec9r/2SWHaaBRT5xc+hdAOoxBK1snhN6yOXz6+NH0xHXLYJSqerg1q+w1qeutliXcO7X+9+eIdvrKvX5ubm84vfAqhHUYhlHwzOjqa9HITjl8+vrR9w5wm2konS0v0uv3KeEoY7xfa/3rzpfC10cXFRecXPoXQDqMQii+MDvorbY5fPj6FsJVBbr94l1AhzGf/i9klOfxS0/jyKYR8CqEkmxs3bmQx3cbxy8enELaWdhj09hv2tFGFsD9fFLKyr2POL3wKoR1GIRRLTvSRvb09xy8fn0LYUWKdv0FvvyidCmE+x0cKy090ch0zvnwKIZ9CKJac6OOT3Y5fPj6FMBIL2yuE9r/vfel2ezvrL40aXz6FkE8hlNovOeH45eNTCBVC+1+vvng6l/OXRo0vn0LIpxBKrQvh/Py845ePTyHsOD9bf6wQ2v9+EIXQ+U8hNCB8CqH0mKmpqSw+1+345eNTCCM/WX448O33/PwHCmFmx0fZC9T3s/SE8eXrqhDagHzD8ClJFqUfZtbW1hy/fHwZ+4b9NC0SS0MMavvtHJ4M/e8T02Dtf/35lpaWSr2WxZ/v/MI3DJ9CyKcQSuUK4dbWluOXj08hLLRA9bP9Xnr7kUKY4fERv1ws81q2sLDg/MKnENphFEJRCBVCPr76+aLMDLtAxZTOp3/5W+Hb79GTr4b+d4ns//HP9r8+fXEtKft65vzCpxDaYRRCUQgVQj6+2vmimJXxlDDWIyx6+02+uT/0v8cvdz63/ymExpdPIeRTCEUhdPzy8eXti/f63nv8dfOJYXwJdOzebwdepuLPK2r7rez8YSgfxHn53U+a2+jXv3/a8VNO+9/VP4eHhwqh859CaED4FELJsRDGRdzxy8dXXV8Un3v3P238/FcfF/5F0pg6etV0y05+ii6D4YqnplH83np40rfR/qcQOr/wKYR8CqEohI5fPr7K+OJLnu989KTxwmsfFlK+onT1+hNTNosogTHddPvRF40nX35j/1MIjS+fQsinEIpCqBDy8fFd5YtSWOSC9d0sRxFP7Yp899H4KoTGl08htMMohKIQeoeQj4+vC98gFrWPYhhPDC96Py8KY/xvg/gITkyLNb4KofHlUwj5FEJRCBVCPj6+DnxRoIbxFc8of/Exl0H/Oc+9stOcCmt8FULjy6cQ8imEohAqhHw18MXNf+tDKd0mSkq7tJ5wVXn7xXp/UaDKWPNvkIl3Ih0fCqHx5VMI+RRCUQgVQr6K+6IIDrpcxLINnX6dMrftN4ipoqlkbvsTx69CaHz5FEI+hVAUwk6zsrLi+OXLyjeMMnj2C5qdrFWX0/Yb1lTRMlPEUhiOX4XQ+PIphHwKoQwlU1NTpV5Al5aWHL982fhiquOwy0UsZF6V7RfTbKteBlsL0Dt+h+vb3d1VCF0/FEIDwqcQSi+ZnJws9QI6Nzfn+OXLxlfG0614SliV7VfEuoO5JBald/wOzxevHyiErh8KoQHhUwglw0LY6UXU8cuXgu+ltx+VUi6umjaaw/aLd+vqUgaLnjrq+E2/EM7MzBhfPoXQDqMQSp65detW6YXw+PjY8cvnCdcl+fXvn2a9/eoyVXRQU0cdv1f/xOsHObz+YHz5FEI+hVCSy8TEROmFcH9/3/HLl4Uv1emHqW+/Ok0VHcTUUcfv1T8LCwsKoeuHQmhA+BRC6SU3btzIYukJxy9f2b4yn3LF2oS5br8oRHUtg50+4XX89u8r+zq2trZmfPkUQjuMQih55vr166VfSDv5zarjl69s38rOH5Kdepjy9ouP4tS9EM68/5njd4C+eO0glzV1jS9f34XQBuQbhk9JqldGR0dLv5BGHL98qfvipr7MUpHr9nvulZ3aF8JYu9LxOzhfCktObG9vG1++ofgUQj6FUCq5OH3k4ODA8cuXtO+nb/yu1FKx/eiLLLffIL7MGiXzx6/+ZiBPYoc9do7f/n2bm5ulX8P29vaML59CaIdRCMXSE4P87arjl69sX9lTH2PKao7b78mX3xRatOJ9yvhvRoosha33NGOpiCK9l42b47cY3+LiYvK/1DS+fAohn0Iolp64InFBd/zypeo7+vavSU87TH37xTqK/ZasKOTvPf76e77JN/cL275vPTz53jYo4mM4RZRBx+/VyeG1B+PLpxDyKYRi6YkOcnJy4vjlS9IXX4ksuxC++PrDrMe3n1IYT+/i3z/vK3Kx+4sWke/naWFRZdDxe3liqmbZ1675+Xnjy6cQ2mEUQvGl0SISHwZw/PK1+4mndFHMzhaDYflSWTqhjPGN5TaKegcuxi7KXS9PBS/yvfPRk8K27WU/3Y5/kWXQ+eXyrK+vl37tWl5eNr58CqEdRiGUvDMyMpJEIVxdXXX88l14M37+/b34wMtla7sV7eumxAwyj558NZTxjffzYorq+S+ExhTNKIj9ju/L737S9VPBi8Y3tscwlvVoPS0cu/fbjqaeOn6H55udnS392hUftTG+fAqhHUYhlOxz586dpKeNOn7r5+tkimEsBXFRaSja10kRGEbiidigxzeK9mUfa4mS2O0TsIt+2pXCdk8F241vEctahKWTn9jXLlt+pPUeouN3OL6jo6Mkrlv9fGHU+PIphHwKofiwzLk8ePDA8cvX1ftmUdbOPy0sfCHgRNazi3fmBjW+V5WdfqZFtvs5XwoveyrYbnzj3cp+t+svdz7vujSf/yXB2Y/SOL8Mxxdfp079/Xfjy6cQ8imEkk3Gx8eTuLC2+9qo47c+vl4/PhJlZhC+eH8ulUIYUzYHMb4XFZwiS+FlP/E0MKYFX/RRl072v5ja2u92vWz68WUFOkpglMnzdueX4fhSmC4aBuPLpxDaYRRCqURGR0eTKISRmAbk+K2nr9/lCeLfjZvzIm337n+aTCGMqZxFjm+3TwV7LYWD3P/iz+93u3byVNLxm5Yv1v1L/d1348unEPIphJJdpqamkr3AOn6r7ytirbqrplb2kiKeQA36S6PDfCrYSykc5P7X7xPcKNmO3/x8cZ1I+TUH48unEPIphJJlbt68mcQFdnp6+gfvZDh+q+0rsgy28sJrH/b0RczzKeIdtSJz0RIQw34q2G0pHPT+1+/6jo7fvHxxfYjrRKozWowvn0LIpxBKthkbG0tm2uj5z3g7fqvriyUOii6DRT4tTKkMRmIKa6/j289C6/2UwkHvf1H++9k/HL95+VL5mEwR7w8aXz6FkE8hlORy9+7dJJ8SOn6r6Ysy2M/N/KCfFha1zl2ReentRz2Nb7eLqxdZCge9/8U26WcpD8dvXr4UPiYTWV9fN758CqEdRiGU6uX27dtJPiV0/FbPN6wy2M/TwigLqRXCmOLYzfgO+qlgJ6Vw0PtfPx+WidLv+M3HF+/spXKN2t3dNb58CqEdRiEUy08M6ymh47davjLKYC9PC6NAplYIL/qwTNlPBa8qhcPY/7p9ShgL2reMjt98fKk8HYzrk/HlUwgNiEIolczIyEgyhfDsF0cdv9XxlVkGu31amNoHZVo5X2hTeCp4WSkc1v4XT/viozudxPGbny+lp4PLy8vGl08hNCAKoZg2OqzEelOO32r4UimDnT4tjCUJUiyEMZW13fiW+VSwXSl0fPD164vZIqk8HSxquQnjy6cQ8imE4mujHWZxcdHxWwFfamXwqqeFKX5Qpt2HZVJ6KnhR3np44vjg68sX75Sn+DqD8eUbeiG0AfmG4VOIJKWvjbYSnxl3/ObrG8Q6g0UnfFGqcvG2SlZYU33XsZvF6x2/fO18p6enSV2P1tbWjC9faT6FkE8hlNotUn/2N7JFLADs/FKO7+V30y8srTw//wHrABIfcYmnro4Pvm59S0tLSV2P9vf3jS+fQmhAFEKpfkZHR5O6ALemjjp+8/MdffvXbEqLDDY//9XHjg++rnyxtENK16F4j9H48imEBkQhlNpkcnIyuVJY1NRR55fh+d57/LUyJG3XUHT88rXzxVTRmZmZpK5B8S6j8eVTCA2IQig+LpPAV0cdv/n4UvvqpSiEjt88fKlNFY3EqwvGl08hNCAKodQqU1NTyV2QY8pOv194c37xhFAUQsdvur6tra3krj2ttQeNL59CaEAUQqlVxsfHk3xK2O/7hM4vw/PFVzCVIWm3vIfjl+98Dg8Pk7zu7O3tGV8+hdCAKIRSv4yMjCS3BEUrq6urjt9MfDPvf6YQ1TzxldFYi9LxwXdZYkpmau8NRubn540vn0JoQBRCqW8mJiaSLIT9fGTG+cU6hDLcvPPRE8cH36WJVwGieKV4rXnw4IHx5VMIDYhCKJ4SploKz16onV/S9cWi74pRPTP55r7jg+/KxKsAKV5j4r1148unEBoQhVA8JUz4KWEvpdD5pRyfL47WL8/Pf1DYVFHHb3V98QpALtcX48unEBoQhVA8JaxAKXR+Kc9n6mi9El+ZdXzw5VoGzz8dNL58CqEBUQjFF0cTLoTdlELnl/J8po7WJy+/+4njgy/bMtjummJ8+RRCA6IQinUJK1AKnV/K9Zk6Wv2M3ftt82NCjg++XMvg2S+LGl8+hdCAKIQi/8j169eTL4SR9fV155fEfaaOVju//v1Txwdf26+Jpl4Gz647aHz5FEIDohCKnMvt27ezKIXLy8vNGw/nlzR9po5WN7HupOODL7elJc4mvnhqfPkUQgOiEIq0yejoaPIfmDk75efg4MD5JVHfL3c+V6AqPFXU8cF3NnEujo+05HDtODo6Mr58CqEBUQhFcl6G4mymp6d9Njxh30/f+J0iVdGpoo4PvlbiHBzn4hyuGZubm8aXTyE0IAqhSCe5c+dONqUwEu+stKaQOr+k4zv69q+N517ZUaYqOFXU8cGXy/uCZ5eZaPeqgfHlUwgNiEIoci7Xrl3LqhC2LvbxoQDnl7R89+5/qlBVcKqo46PevpgimsP7gp18SMb48iVTCG1AvmH4FB2p6tTRdk8LnV/S8Jk6mnd2Dk8cH3zf/WxtbWV3XdjY2DC+fMn7FEI+hVBMHS343cLt7W3nl0R8MXX0+fkPlKsMM7f9ieODr/lzeHjYmJuby+56EOZnz54ZXz6F0IDwKYRS9a+OtptGuru76/ySgK8KXx2NJ53xLt0r94+aH1i5KCs7f2iWqMk39xs/fvU3Wf99X3jtQ8cHX+P09LSxtLSU7XUgiqzx5VMIDQifQih9ZHx8PNsbgbPrTnXy/ojzy2B9uU0djXfnogBe9HXNTrffoydfNUtiFMQqTRV1fFTfF8szrK2tZX3u73SqqP2PTyE0IAqhyBW5detW9qWw9cTw/DIVzi/D88WHSXKYOvryu590VQI73X5RDuPpYQ5PDq+aKur4qK4vimBOXw9tl4WFBePLpxAaED6FULxP2P4dw1iP6rIFip1fBuN77/HXSRfBeN9xGNsvnhqmuiRHJ1NFHR/V88UsiuXl5Uqc42dmZppTXY0vn0JoQPgUQvE+YUfTSeOpYbsvkzq/FO/72frjpArQT5Yf9vxEsJ/t9+TLb5pP4nKcKur4qIYvfikWH+CK2RNVOq/v7+8bXz6F0IDwKYRifcLuE78dj5ujs08OnV+K96U0dTQ+EFP29osCFk/lcpoq6vjI19cqgbmtI9hpYlkM+x+fQmhA+BRC8ZGZQt43jPdo4iulx8fHzi8F+956eFJq8YnpmlHEUtl+8bTwpbcflbpN4t1G19/q+WL2Q5zH1tfXK1sCW4mP4Nj/+BRCA8KnEMoQcvPmzVqUwvOJT6/HDUf8BjqmJMXnzLt9T8X573+fEpb5jlx84CXF7VfmFNJunw66/qbnOzg4aL4LGO9Ix4yHqk0FveojMp2uN2j/41MIDYhCKOLLowO9KYni2C7xzmKRuejPyOH8F+/slVUG42lcyteP+OBMGdsmnlCmen2LclPU8dFPhnH8XpTWL6LO5uz/Hh9RqfN5N/7+/ZZB96d8CqEBUQhFlMLKJPXzX5TB+JBL2WUw5etHWaUw1XcIozw5tqVdGSxqWr/7Uz6F0IAohCJdZmRkpFLLUSiExZ//YhmHWGoiPt4SC9PHYu9lvTN4vgymfv0o853CF19/2Pj5rz5u3Lv/aWP70RelX99iCqRjWwZZBt2f8imEBkQhFFEKFcI+z39RHKJARJGIQpHDUgqpXz+iRKeyDeOjM5Nv7jefIr7z0ZPme5jD2n7xURTHtpxPvMft/o9PITQgfAqhKIUy5EIYRSAKQRSDKAhRFFJdbD4SJTXX60dKS3S0S5TWmfc/a345tt/1HC9bKsGxLWcT68e6/+NTCA0In0IoSqEMuBDGU794n6311C+mXqZcTi6a+pj79SOm3Oa0zSPxjujP1h83pwpHSYypw/1uP8e2nC2D7v/4FEIDwqcQSqKl0Idm8i2E+3/883dP/VJZKL3ftJaXyP36EeUq97GIJ51nnybG089utl/V19CTqzM9Pd2cPuz+j08hNCB8CqH4+qgUWAjjxjyld9WG+cXMXK4f8YStauMTBTGefna6/XxpVBmMdRbd//EphAaETyEUi9dLwYWwjCUgyvqqaM7Xj5ff/aRy4xQ5Wwov2xa+NKoMuv/jUwgNCJ9CKJllfHzczUzihTDe8apiyYh3Hqt2/ajiU8LWk0KFUNolpgrHR4Xc//FVvhDagHzD8CkoUkauXbvWuHv3rhubIaab80nqXwjtNUV8xCTF60e831nF8Yqv1l61/WKJAcd3vbK0tNR49uyZ+z++WvgUQj6FUCqd0dFRXyBNtBBWsVzE+5BVvX5EcarimLXe91QIpZW1tTX3f3wKoQHhUwjFF0hFIew+8QXLKl8/clv6o6hCeHx87PiuSeJLou7/+BRCA8KnEEqF3ys0hVQhTGG6aK7XjypOG+2kEMaP47vamZubaxZ/9398CqEB4VMIxRRSUQh7yti931b++nHv/qcKoVQuKysrl74v6P6PTyE0IHwKoVQwExMTboQUwkITSzNU/fqxc3iiEEplMjMz0/EUUfd/fAqhAeFTCKWiXyH1tFAhLCqxjEYdrh8KoVTlK6Knp6fu//j4FEI+hVDE00KFsJj8+vdPa3H9eOG1D2tZCONpkmO8Gk8FHzx44P6Pj08h5FMIRX74buHk5KQbJoVQIbzC9+LrD2tZCOOJkmM8/3cF+3kq6P6PTyE0IHwKodQgY2NjjampKTdPCmHXqcv1QyGU3DI7O9vY3993/8fHpxDyKYQinefGjRuWqFAIFcILEgVKIZQcMj093djc3HT/x8enEPIphCK9L2gf7xcqhgqhQqgQKoR5ZXV1tXFycuL+j49PIeRTCEUUQ4VQISzy+vHS2498ZVSSLoJHR0fu//j4FEI+hVBkcMXQO4bt8/Tp09oWwqNv/+odQoVQEiuC7v/4+BRCPoVQZCAZHx+3huEF+fbbb31lVCFUCGWo7wienRrq/o+PTyHkUwhFhr64/a1bt0wn/Ue++eab2hbC9x5/XYvrx3Ov7CiEUmrm5+ebawm6v+LjUwj5MvMpD1L16aTx1PD27du1vlH7n//5n9oWwlfuH1X++vHky28qN26dFMJnz54pYgk8DYxpoQcHB+6v+PgUQj6FUCT9Re5j2Yo6Tin94osvalsIf/rG7yp//Xjnoye1LISHh4dKWYnvBu7u7rq/4uNTCPkUQpH8nxzWYVppnb8y+vz8B5W/fvz8Vx8rhDLQzMzMNNbW1polsJN3A91f8fEphHwKoUh27xzG08OqFsQ6F8JuPyyT4/Xjhdc+rGUhjHKirA0uscbj1tZW4/j42P0VH18ZhdAG5BumTyEQ+WFBjCeIN2/ebExOTmZfErv6JVEFC2E8Qavq9SOW1ajimLXe/bxsW8SXLBW3YjI7O9tYXl5ubtO9vT33V3x8CfgUQj6FUCTBaabXr19vPkmMdQ/jaWKUxRzWP+zmJ6ZYVq1cxBc4q3r9iOJUxUL4y53Pr9x+8R6bMtd98VtcXGysr683tre3m+Wvmymg7q/4+BRCO4xCKCJXfLgmSmM8XYzSmEJiylc3Py+/+0klC8bKzh8qef0Yu/fbSo5XPPm8avvFEgfxRKubxPFQZLr984vwbWxsNKdzns/Kysr3/rnYPlH4IpctDu/+io9PITQgfEqhSEXTy0/ciFfxKWEs3F6168dbD08qWQZn3v/M/QEfH59CaED4FEIRKaMQtopGFUvh9qMvKnX9qOLTwXhC7f6Aj4+PTyHkK8nnBlpEGTz7pDBuzn/86m8qUzbia5xVuX5U7elgrBcZfyf3B3x8fHwKIZ9CKCIJFMLz55d4unbv/qfNL3bG9Mtci0f8HXK/fjz9y9+yfYIbTzV/tv64+TGc9x5//d27gu4P+Pj4+BRCvkR8bqRFlMFOzy87hyeNdz560lwzLkpiDk8T44ujj558lfX1IwpVLk/94ilzfDG0m7Ug3R/w8fHxKYR8JfvcUIsog72eX558+c13TxNfevtRkk8TL/vATOrn53iqltr2jF8ExDaNXwyEb/+Pf3b95ePj41MI+XL3ubEWUQiLPL/E08RY+iGmCsaTo7KnPLZbrD7l83Nsw7K3WxS/KPpR+KP4xy8AXH/5+Pj4FEI+hVBEEkhu5794Fy6mEpa19uFFaxOmuv2ieJUxJTf+zNhOUUZdf/n4+PgUQjtMzXxusEXyKoM5n//iPbMUSmGK2y/KYHwhtYwyeP4JoOsvHx8fn0Joh6mZz422SD5lMPfzX1nTIM+WwtS2X1llMBLvBLr+8vHx8SmEBoTPDbdIJmUw5/NffIikzHfjWuUnpe0X0zTL/HJrvCvo+svHx8enEBoQPqVQJJMymPP5Lz40U/bXMiff3G++15jC9ounlrFERtnbpNN3B11/+fj4+BRCvpr43ISLpFkEcz6/lPX+YLuF03tdM6+I7RdTRKOYprI9YrpqN+8Ruv7y8fHxKYR8NfC5IRdJswzmeH45+vavpS+lcFFi8fewDXP7xVIOKTwV7HSJDtdfPj4+PoWQr+Y+N+ci6RTBXM8vKUwVvSyxJEY/xbDT6aFlvivYSWLNQddfPj4+PoXQDsOnGIokWgRzPL+kNFX0qkRxfevhSdfvGF72wZh48pbiE8F+lqBw/eXj4+NTCPlq7HPzLlJeEczt/JLqVNFOp5NGme3kXcOzBTCeBMaXO1N/GtjP1FHXXz4+Pr6CCqENyJe7zw29SPep0/mlrLX1BpF4yvfi6w8vzE+WH1bm7xm5qgS7/vLx8fEVE4WQj4+Pj6+yvljzr0olqU6Jr7BeNm3W8cHHx8enEPLx8fHx8bX9iamTilXemXn/M8cHHx8fn0LIx8fHx8fX/U+VporWOe89/trxwcfHx6cQ8vHx8fHxdf7zyv0jZaoiiQ8CXTR11PHBx8fHpxDy8fHx8fH94Gf/j39WpCqW+Nqq44OPj49PIeTj4+Pj47vyp2pf25SLp446Pvj4+PgUQj4+Pj4+vu/9mCpan6mjjg8+Pj4+hZCPj4+Pj++7n1i3TnGqz9RRxwcfHx+fQsjHx8fHx9f8iSdHsW6d0lSfqaOODz4+Pj6FkI+Pj4+Pr/kT69UpS/WaOur44OPj41MI+fj4+Pj4TBWt6dRRxwcfHx+fQsjHx8fHV3OfqaL1zb37nzo++Pj4+BRCPj4+Pr46+0wVrW+ee2Wn8ejJV44PPj4+PoWQj4+Pj6+OPlNF5cXXHzo++Pj4+BRCPj4+Pr46+kwVlcjKzh8cH3x8fHwKIR8fHx9fnXyeDkork2/uOz74+Pj4FEI+Pj4+vjr5frnzuTIkhU4bdfzy8fEphAaEj4+Pj08hFIXQ8cvHx6cQGhA+Pj4+vpR9+3/8szIkpozy8fHxFVEIbUA+Pj4+vhx9P371NwqRNN8ndXzw8fHx9f6jEPLx8fHxZenbOTxprkWXemF56e1Hje1HXzTmtj9J3hvTL9/56Enzy505fMX15Xc/cXzw8fHxKYR8fHx8fHX1pVwKX3jtw6bvrDeKVqrlKp64nrU+/cvfGjPvf1aLMuj45ePjUwgNCB8fHx9fpr4US2E8DWz7rkaiBeve/U8vHN+Ykpna08J46ur44OPj41MI+fj4+Pj4kiqF8ZQtpodeZo1pmSkWwvPusz8pPS2MMuj44OPj41MI+fj4+Pj4kiqFP//Vx40nX35zpTP+uRQLYSfjW/bTwlYZdHzw8fHxKYR8fHx8fHxJlMJOngqeTUzNTP39wcvGt6ynhWfLoOODj4+PTyHk4+Pj4+MrvRR2+lTwbKI85rCW31U/w3xaeL4MOj74+Pj4FEI+Pj4+Pr5LS+Hz8x8k81Qw9Q/LXPQRnE5+hvG08KIy6Pjg4+PjUwj5+Pj4+Pguzf4f/zyQUtjLU8HziSUpUiqEsfZgP+M7qKeF7cqg44OPj49PIeTj4+Pj47vSV2Qp7Pep4NnEFM2UCuGjJ1/1Pb5FPy28rAw6Pvj4+PgUQj4+Pj4+vo58RZTCKDr9PhU8m5iimUoZjPctixzfeFrY7/a+qgw6Pvj4+PgUQj4+Pj4+vo59vZbCmAYZBadoX0oflol1EYse33ha+LP1xwMrg44PPj4+PoWQj4+Pj4+vK1+3pTCeCkaxGYQvpmimUgjjnchBje97j7/uapt3WgYdH3x8fHwKIR8fHx8fX9e+Tkph/O+tp4KD9A3yK6jdZGXnDwMd306fFnZTBh0ffHx8fAohHx8fHx9fT74ohe2+iBnF5exTwUH6fvrG75IohO0+lFP0T3zJtN36kO2eUjo++Pj4+BRCOwwfHx8f30B8MZ3xlftH3yWK4jB9g16/r9MMc3zjwzzxRDI+qhO5d//TC79w6vjg4+PjUwjtMHx8fHx8lfa99fCk9DIY6yEaXz4+Pj6F0IDw8fHx8fEN2RdPJMsuhLEeovHl4+PjUwgNCB8fHx8fXwm+sgthTNs0vnx8fHw1L4Q2IB8fHx8fXzm+mLJZZiG86GuqxpePj4+vXj6FkI+Pj4+PryRfLLVQZiFs90VV48vHx8enEBoQPj4+Pj6+AftiymZZZTDWQTS+fHx8fHwKIR8fHx8fX0m+WAOwrEIY6yAaXz4+Pj4+hZCPj4+Pj68kX6zLV1YhjLUXjS8fHx8fn0LIx8fHx8dXou/Hr/6mlEIY6yAaXz4+Pj4+hZCPj4+Pj69E34uvPyylEMY6iMaXj4+Pj08h5OPj4+PjK9FX1odljC8fHx8fn0LIx8fHx8dXsu+dj54MvQz+bP2x8eXj4+PjUwj5+Pj4+PhS8A17gfrLFqQ3vnx8fHwKoQHh4+Pj4+Mbou/Rk6+G9nGZqz4mY3z5+Pj4FEIDwsfHx8fHN2RfLEHx0tuPGs+9sjOQIviT5YcdPRk0vnx8fHwKoQHh4+Pj4+Pj4+Pj4+NTCA0IHx8fHx8fHx8fHx+fQmhA+Pj4+Pj4+Pj4+Pj4FEIDwsfHx8fHx8fHx8fHpxAaED4+Pj4+Pj4+Pj4+PoXQgPDx8fHx8fHx8fHx8SmEBoSPj4+Pj4+Pj4+Pj08hNCB8fHx8fHx8fHx8fHyJFkIbkI+Pj4+Pj4+Pj4+Pr54+hZCPj4+Pj4+Pj4+Pj08hNCB8fHx8fHx8fHx8fHwKoQHh4+Pj4+Pj4+Pj4+NTCA0IHx8fHx8fHx8fHx+fQmhA+Pj4+Pj4+Pj4+Pj4FEIDwsfHx8fHx8fHx8fHpxAaED4+Pj4+Pj4+Pj4+PoXQgPDx8fHx8fHx8fHx8SmEBoSPj4+Pj4+Pj4+Pj08hNCB8fHx8fHx8fHx8fHwKoQHh4+Pj4+Pj4+Pj4+NTCA0IHx8fHx8fHx8fHx+fQmhA+Pj4+Pj4+Pj4+Pj4FEIDwsfHx8fHx8fHx8fHpxDaYfj4+Pj4+Pj4+Pj4+BRCPj4+Pj4+Pj4+Pj4+PoWQj4+Pj4+Pj4+Pj4+PTyHk4+Pj4+Pj4+Pj4+PjUwj5+Pj4+Pj4+Pj4+Pj4ui+ENiAfHx8fHx8fHx8fH189fQohHx8fHx8fHx8fHx+fQmhA+Pj4+Pj4+Pj4+Pj4FEIDwsfHx8fHx8fHx8fHpxAaED4+Pj4+Pj4+Pj4+PoXQgPDx8fHx8fHx8fHx8SmEBoSPj4+Pj4+Pj4+Pj08hNCB8fHx8fHx8fHx8fHwKoQHh4+Pj4+Pj4+Pj4+NTCA0IHx8fHx8fHx8fHx+fQmhA+Pj4+Pj4+Pj4+Pj4FEIDwsfHx8fHx8fHx8fHl4zv/wEpRepwqQVGSQAAAABJRU5ErkJggg==" vertex="1" parent="1">
          <mxGeometry x="188.49" y="160" width="76.02" height="50" as="geometry" />
        </mxCell>
        <mxCell id="EOrUfLX56-fCI15zJVo0-43" value="Timeline" style="text;html=1;strokeColor=none;fillColor=none;align=center;verticalAlign=middle;whiteSpace=wrap;rounded=0;" vertex="1" parent="1">
          <mxGeometry x="183" y="205" width="87" height="30" as="geometry" />
        </mxCell>
        <mxCell id="EOrUfLX56-fCI15zJVo0-44" value="" style="endArrow=classic;html=1;rounded=0;" edge="1" parent="1" source="EOrUfLX56-fCI15zJVo0-42" target="EOrUfLX56-fCI15zJVo0-45">
          <mxGeometry width="50" height="50" relative="1" as="geometry">
            <mxPoint x="250.51" y="327.4999999999999" as="sourcePoint" />
            <mxPoint x="460" y="350" as="targetPoint" />
          </mxGeometry>
        </mxCell>
        <mxCell id="EOrUfLX56-fCI15zJVo0-45" value="" style="outlineConnect=0;dashed=0;verticalLabelPosition=bottom;verticalAlign=top;align=center;html=1;shape=mxgraph.aws3.cache_node;fillColor=#2E73B8;gradientColor=none;" vertex="1" parent="1">
          <mxGeometry x="620" y="172" width="60" height="63" as="geometry" />
        </mxCell>
        <mxCell id="EOrUfLX56-fCI15zJVo0-46" value="" style="endArrow=classic;html=1;rounded=0;exitX=0.5;exitY=1;exitDx=0;exitDy=0;exitPerimeter=0;" edge="1" parent="1" source="EOrUfLX56-fCI15zJVo0-45">
          <mxGeometry width="50" height="50" relative="1" as="geometry">
            <mxPoint x="620" y="530" as="sourcePoint" />
            <mxPoint x="670" y="480" as="targetPoint" />
          </mxGeometry>
        </mxCell>
        <mxCell id="EOrUfLX56-fCI15zJVo0-48" value="" style="endArrow=classic;html=1;rounded=0;exitX=1;exitY=0.5;exitDx=0;exitDy=0;entryX=0.5;entryY=0;entryDx=0;entryDy=0;" edge="1" parent="1" source="EOrUfLX56-fCI15zJVo0-42" target="EOrUfLX56-fCI15zJVo0-31">
          <mxGeometry width="50" height="50" relative="1" as="geometry">
            <mxPoint x="540" y="380" as="sourcePoint" />
            <mxPoint x="590" y="330" as="targetPoint" />
          </mxGeometry>
        </mxCell>
      </root>
    </mxGraphModel>
  </diagram>
</mxfile>
